<?xml version="1.0" encoding="UTF-8" standalone="no"?>
<!-- Created with Inkscape (http://www.inkscape.org/) -->

<svg
   xmlns:dc="http://purl.org/dc/elements/1.1/"
   xmlns:cc="http://creativecommons.org/ns#"
   xmlns:rdf="http://www.w3.org/1999/02/22-rdf-syntax-ns#"
   xmlns:svg="http://www.w3.org/2000/svg"
   xmlns="http://www.w3.org/2000/svg"
   xmlns:sodipodi="http://sodipodi.sourceforge.net/DTD/sodipodi-0.dtd"
   xmlns:inkscape="http://www.inkscape.org/namespaces/inkscape"
   width="162.00494mm"
   height="65.194748mm"
   viewBox="0 0 574.03327 231.00501"
   id="svg2"
   version="1.1"
   inkscape:version="0.91 r13725"
   sodipodi:docname="qwp_retarder.svg">
  <defs
     id="defs4" />
  <sodipodi:namedview
     id="base"
     pagecolor="#ffffff"
     bordercolor="#666666"
     borderopacity="1.0"
     inkscape:pageopacity="0.0"
     inkscape:pageshadow="2"
     inkscape:zoom="0.7"
     inkscape:cx="32.404395"
     inkscape:cy="-5.774561"
     inkscape:document-units="px"
     inkscape:current-layer="g8111"
     showgrid="false"
     fit-margin-top="0"
     fit-margin-left="0"
     fit-margin-right="0"
     fit-margin-bottom="0"
     inkscape:window-width="1600"
     inkscape:window-height="851"
     inkscape:window-x="0"
     inkscape:window-y="100"
     inkscape:window-maximized="1" />
  <metadata
     id="metadata7">
    <rdf:RDF>
      <cc:Work
         rdf:about="">
        <dc:format>image/svg+xml</dc:format>
        <dc:type
           rdf:resource="http://purl.org/dc/dcmitype/StillImage" />
        <dc:title></dc:title>
      </cc:Work>
    </rdf:RDF>
  </metadata>
  <g
     inkscape:label="Layer 1"
     inkscape:groupmode="layer"
     id="layer1"
     transform="translate(-84.41193,-84.56265)">
    <g
       transform="matrix(1.25,0,0,-1.25,84.397321,315.5489)"
       inkscape:label="qwp_retarder"
       id="g8111">
      <g
         id="g8253">
        <path
           inkscape:connector-curvature="0"
           id="path8115"
           style="fill:none;stroke:#000000;stroke-width:0.80000001;stroke-linecap:butt;stroke-linejoin:miter;stroke-miterlimit:4;stroke-dasharray:none;stroke-opacity:1"
           d="m 269.379,86.199 c 0,-27.113 -15.453,-49.089 -34.516,-49.089 -19.062,0 -34.515,21.976 -34.515,49.089 0,27.114 15.453,49.09 34.515,49.09 19.063,0 34.516,-21.976 34.516,-49.09 z" />
        <path
           inkscape:connector-curvature="0"
           id="path8117"
           style="fill:#ffffff;fill-opacity:1;fill-rule:nonzero;stroke:#000000;stroke-width:0.80000001;stroke-linecap:butt;stroke-linejoin:miter;stroke-miterlimit:4;stroke-dasharray:none;stroke-opacity:1"
           d="m 274.18,86.199 c 0,-27.113 -15.453,-49.089 -34.516,-49.089 -19.066,0 -34.519,21.976 -34.519,49.089 0,27.114 15.453,49.09 34.519,49.09 19.063,0 34.516,-21.976 34.516,-49.09 z" />
        <path
           inkscape:connector-curvature="0"
           id="path8119"
           style="fill:none;stroke:#000000;stroke-width:0.80000001;stroke-linecap:butt;stroke-linejoin:miter;stroke-miterlimit:4;stroke-dasharray:4.8, 0.8;stroke-dashoffset:0;stroke-opacity:1"
           d="m 239.52,0.598 0,169.976" />
        <path
           inkscape:connector-curvature="0"
           id="path8121"
           style="fill:none;stroke:#000000;stroke-width:0.80000001;stroke-linecap:butt;stroke-linejoin:miter;stroke-miterlimit:4;stroke-dasharray:2.4, 2.4;stroke-dashoffset:0;stroke-opacity:1"
           d="m 167.406,66.871 142.977,33.137" />
        <path
           inkscape:connector-curvature="0"
           id="path8123"
           style="fill:#ff0000;fill-opacity:1;fill-rule:nonzero;stroke:#ff0000;stroke-width:1.60000002;stroke-linecap:butt;stroke-linejoin:miter;stroke-miterlimit:4;stroke-dasharray:none;stroke-opacity:1"
           d="m 239.734,40.598 0.051,90.808" />
        <g
           transform="matrix(5.88041e-4,1,1,-5.88041e-4,0,210.82832)"
           id="g8125">
          <path
             inkscape:connector-curvature="0"
             id="path8127"
             style="fill:#ff0000;fill-opacity:1;fill-rule:evenodd;stroke:#ff0000;stroke-width:0.80000001;stroke-linecap:butt;stroke-linejoin:miter;stroke-miterlimit:4;stroke-dasharray:none;stroke-opacity:1"
             d="m -163.687,239.835 3.197,-3.202 -11.197,3.202 11.197,3.197 -3.197,-3.197 z" />
        </g>
        <g
           transform="matrix(-5.88041e-4,-1,-1,5.88041e-4,0,210.82832)"
           id="g8129">
          <path
             inkscape:connector-curvature="0"
             id="path8131"
             style="fill:#ff0000;fill-opacity:1;fill-rule:evenodd;stroke:#ff0000;stroke-width:0.60000002;stroke-linecap:butt;stroke-linejoin:round;stroke-miterlimit:4;stroke-dasharray:none;stroke-opacity:1"
             d="m 87.65,-235.962 -10.49,-3.857 10.49,-3.858 c -1.679,2.279 -1.669,5.396 0,7.715 z" />
        </g>
        <path
           inkscape:connector-curvature="0"
           id="path8133"
           style="fill:#000000;fill-opacity:1;fill-rule:nonzero;stroke:none"
           d="m 314.277,112.946 0.016,0.066 0.019,0.078 0.024,0.078 0.019,0.094 0.032,0.098 0.027,0.105 0.031,0.113 0.035,0.11 0.043,0.117 0.043,0.121 0.055,0.129 0.051,0.121 0.055,0.129 0.058,0.125 0.067,0.129 0.148,0.25 0.078,0.121 0.086,0.117 0.09,0.109 0.094,0.114 0.101,0.101 0.106,0.098 0.113,0.09 0.117,0.082 0.188,0.105 0.066,0.032 0.07,0.027 0.067,0.023 0.07,0.028 0.07,0.019 0.079,0.016 0.074,0.015 0.078,0.008 0.082,0.012 0.082,0.004 0.078,0 c 0.129,0 0.734,0 1.262,-0.324 -0.707,-0.129 -1.215,-0.762 -1.215,-1.368 0,-0.402 0.281,-0.89 0.961,-0.89 0.558,0 1.367,0.453 1.367,1.469 0,1.324 -1.492,1.668 -2.352,1.668 -1.472,0 -2.359,-1.344 -2.66,-1.922 -0.636,1.668 -2.004,1.922 -2.73,1.922 -2.641,0 -4.09,-3.266 -4.09,-3.899 0,-0.254 0.254,-0.254 0.309,-0.254 0.199,0 0.281,0.055 0.328,0.278 0.859,2.687 2.535,3.32 3.394,3.32 0.485,0 1.364,-0.223 1.364,-1.692 0,-0.785 -0.426,-2.488 -1.364,-6.031 -0.406,-1.57 -1.289,-2.633 -2.41,-2.633 -0.152,0 -0.73,0 -1.262,0.329 0.637,0.121 1.192,0.652 1.192,1.367 0,0.683 -0.555,0.883 -0.934,0.883 -0.765,0 -1.398,-0.657 -1.398,-1.473 0,-1.16 1.269,-1.668 2.379,-1.668 1.675,0 2.582,1.777 2.664,1.922 0.301,-0.934 1.215,-1.922 2.73,-1.922 2.614,0 4.063,3.266 4.063,3.902 0,0.254 -0.227,0.254 -0.309,0.254 -0.226,0 -0.281,-0.101 -0.328,-0.273 -0.832,-2.711 -2.555,-3.321 -3.371,-3.321 -0.992,0 -1.399,0.805 -1.399,1.672 0,0.559 0.153,1.114 0.438,2.227 l 0.859,3.473 z" />
        <path
           inkscape:connector-curvature="0"
           id="path8135"
           style="fill:#000000;fill-opacity:1;fill-rule:nonzero;stroke:none"
           d="m 256.359,183.508 0.004,0.016 0.004,0.011 0.004,0.028 0.012,0.019 0.004,0.028 0.004,0.019 0.007,0.016 0.004,0.023 0.008,0.031 0,0.02 0.012,0.047 0,0.012 0.008,0.011 0,0.012 0.004,0.016 0,0.011 0.004,0.02 0,0.07 0.003,0.02 0,0.05 c 0,0.387 -0.293,0.571 -0.609,0.571 -0.211,0 -0.551,-0.125 -0.742,-0.442 -0.039,-0.109 -0.211,-0.754 -0.289,-1.14 -0.153,-0.543 -0.297,-1.114 -0.422,-1.68 l -0.953,-3.793 c -0.082,-0.32 -0.985,-1.789 -2.375,-1.789 -1.074,0 -1.313,0.922 -1.313,1.703 0,0.969 0.364,2.278 1.078,4.125 0.34,0.867 0.422,1.102 0.422,1.524 0,0.941 -0.672,1.722 -1.726,1.722 -2.004,0 -2.785,-3.051 -2.785,-3.246 0,-0.211 0.214,-0.211 0.257,-0.211 0.215,0 0.231,0.047 0.336,0.387 0.571,1.98 1.407,2.609 2.125,2.609 0.172,0 0.532,0 0.532,-0.672 0,-0.531 -0.211,-1.07 -0.36,-1.476 -0.844,-2.234 -1.226,-3.434 -1.226,-4.426 0,-1.871 1.332,-2.504 2.57,-2.504 0.828,0 1.539,0.36 2.125,0.946 -0.27,-1.09 -0.52,-2.125 -1.363,-3.247 -0.551,-0.711 -1.348,-1.328 -2.317,-1.328 -0.293,0 -1.246,0.067 -1.605,0.887 0.34,0 0.617,0 0.906,0.258 0.211,0.183 0.422,0.461 0.422,0.859 0,0.656 -0.567,0.738 -0.777,0.738 -0.481,0 -1.184,-0.335 -1.184,-1.367 0,-1.058 0.934,-1.836 2.238,-1.836 2.172,0 4.336,1.926 4.934,4.301 l 2.019,8.047 z" />
        <path
           inkscape:connector-curvature="0"
           id="path8137"
           style="fill:none;stroke:#000000;stroke-width:0.80000001;stroke-linecap:butt;stroke-linejoin:miter;stroke-miterlimit:4;stroke-dasharray:none;stroke-opacity:1"
           d="m 239.223,83.77 206.73,0" />
        <path
           inkscape:connector-curvature="0"
           id="path8139"
           style="fill:#000000;fill-opacity:1;fill-rule:evenodd;stroke:#000000;stroke-width:0.80000001;stroke-linecap:butt;stroke-linejoin:miter;stroke-miterlimit:4;stroke-dasharray:none;stroke-opacity:1"
           d="m 437.953,83.77 -3.203,-3.199 11.203,3.199 -11.203,3.199 3.203,-3.199 z" />
        <path
           inkscape:connector-curvature="0"
           id="path8141"
           style="fill:none;stroke:#000000;stroke-width:0.80000001;stroke-linecap:butt;stroke-linejoin:miter;stroke-miterlimit:4;stroke-dasharray:none;stroke-opacity:1"
           d="M 32.145,84.168 199.586,83.77" />
        <path
           inkscape:connector-curvature="0"
           id="path8143"
           style="fill:none;stroke:#000000;stroke-width:0.80000001;stroke-linecap:butt;stroke-linejoin:miter;stroke-miterlimit:4;stroke-dasharray:4.8, 0.8;stroke-dashoffset:0;stroke-opacity:1"
           d="m 72.215,1.77 0,169.976" />
        <path
           inkscape:connector-curvature="0"
           id="path8145"
           style="fill:none;stroke:#000000;stroke-width:0.80000001;stroke-linecap:butt;stroke-linejoin:miter;stroke-miterlimit:4;stroke-dasharray:2.4, 2.4;stroke-dashoffset:0;stroke-opacity:1"
           d="M 0.102,68.043 143.078,101.18" />
        <path
           inkscape:connector-curvature="0"
           id="path8147"
           style="fill:#ff0000;fill-opacity:1;fill-rule:nonzero;stroke:#ff0000;stroke-width:1.60000002;stroke-linecap:butt;stroke-linejoin:miter;stroke-miterlimit:4;stroke-dasharray:none;stroke-opacity:1"
           d="M 50.566,52.91 94.25,118.008" />
        <g
           transform="matrix(0.671051,1,1,-0.671051,0,210.82832)"
           id="g8149">
          <path
             inkscape:connector-curvature="0"
             id="path8151"
             style="fill:#ff0000;fill-opacity:1;fill-rule:evenodd;stroke:#ff0000;stroke-width:0.66429299;stroke-linecap:butt;stroke-linejoin:miter;stroke-miterlimit:4;stroke-dasharray:none;stroke-opacity:1"
             d="m -80.173,107.933 2.658,-2.658 -9.302,2.659 9.302,2.657 -2.658,-2.658 z" />
        </g>
        <g
           transform="matrix(-0.671051,-1,-1,0.671051,0,210.82832)"
           id="g8153">
          <path
             inkscape:connector-curvature="0"
             id="path8155"
             style="fill:#ff0000;fill-opacity:1;fill-rule:evenodd;stroke:#ff0000;stroke-width:0.66429299;stroke-linecap:butt;stroke-linejoin:miter;stroke-miterlimit:4;stroke-dasharray:none;stroke-opacity:1"
             d="m 25.705,-107.933 2.657,-2.658 -9.298,2.658 9.299,2.658 -2.658,-2.658 z" />
        </g>
        <path
           inkscape:connector-curvature="0"
           id="path8157"
           style="fill:none;stroke:#000000;stroke-width:0.80000001;stroke-linecap:butt;stroke-linejoin:miter;stroke-miterlimit:4;stroke-dasharray:none;stroke-opacity:1"
           d="m 85.297,103.242 c 2.523,-1.238 4.711,-3.156 6.269,-5.492 1.559,-2.34 2.489,-5.094 2.661,-7.898" />
        <path
           inkscape:connector-curvature="0"
           id="path8159"
           style="fill:#000000;fill-opacity:1;fill-rule:nonzero;stroke:none"
           d="m 98.238,104.168 0,0.113 0.004,0.036 0.004,0.031 0,0.035 0.004,0.027 0.008,0.032 0.008,0.027 0.011,0.027 0.008,0.024 0.016,0.023 0.039,0.047 0.023,0.02 0.024,0.015 0.031,0.02 0.012,0.008 0.019,0.007 0.016,0.008 0.019,0.008 0.024,0.008 0.019,0.004 0.02,0.008 0.023,0.003 0.028,0.008 0.023,0.008 0.055,0.008 0.031,0.004 0.027,0.008 0.036,0 0.031,0.007 0.035,0 0.07,0.008 0.039,0.004 0.043,0 0.039,0.004 0.043,0.004 0.09,0 0.047,0.004 0.621,0 0,0.387 c -0.449,-0.04 -1.59,-0.04 -2.098,-0.04 -0.511,0 -1.664,0 -2.109,0.04 l 0,-0.387 0.41,0 c 1.176,0 1.176,-0.164 1.176,-0.598 l 0,-5.508 c -1.625,0.434 -1.687,2.344 -1.687,3.149 -0.012,1.508 -0.559,1.738 -1.106,1.738 l -0.461,0 c -0.183,0 -0.308,0 -0.308,-0.133 0,-0.062 0.035,-0.125 0.109,-0.136 0.414,-0.051 0.723,-0.223 0.734,-1.688 0,-0.289 0.035,-1.269 0.633,-2.098 0.488,-0.671 1.242,-1.031 2.086,-1.144 l 0,-0.692 c 0,-0.425 0,-0.597 -1.176,-0.597 l -0.41,0 0,-0.387 c 0.445,0.043 1.586,0.043 2.098,0.043 0.504,0 1.66,0 2.109,-0.043 l 0,0.387 -0.414,0 c -1.176,0 -1.176,0.16 -1.176,0.597 l 0,0.692 c 0.895,0.113 1.653,0.484 2.133,1.129 0.649,0.883 0.66,1.863 0.66,2.41 0,0.199 0.012,1.305 0.68,1.391 0.078,0.011 0.164,0.027 0.164,0.136 0,0.133 -0.102,0.133 -0.301,0.133 l -0.469,0 c -0.484,0 -1.093,-0.086 -1.105,-1.883 -0.012,-1.367 -0.422,-2.683 -1.762,-3.004 l 0,5.508 z" />
        <path
           inkscape:connector-curvature="0"
           id="path8161"
           style="fill:none;stroke:#000000;stroke-width:0.80000001;stroke-linecap:butt;stroke-linejoin:miter;stroke-miterlimit:4;stroke-dasharray:4.8, 0.8;stroke-dashoffset:0;stroke-opacity:1"
           d="m 388.285,-0.015 0,169.976" />
        <path
           inkscape:connector-curvature="0"
           id="path8163"
           style="fill:none;stroke:#000000;stroke-width:0.80000001;stroke-linecap:butt;stroke-linejoin:miter;stroke-miterlimit:4;stroke-dasharray:2.4, 2.4;stroke-dashoffset:0;stroke-opacity:1"
           d="M 316.172,66.258 459.148,99.395" />
        <path
           inkscape:connector-curvature="0"
           id="path8171"
           style="fill:#000000;fill-opacity:1;fill-rule:nonzero;stroke:none"
           d="m 204.859,154.363 0.071,-0.183 0.074,-0.188 0.144,-0.39 0.149,-0.403 0.144,-0.406 0.145,-0.41 0.144,-0.402 0.137,-0.399 0.071,-0.195 0.07,-0.188 0.062,-0.187 0.067,-0.18 0.058,-0.176 0.063,-0.168 0.058,-0.164 0.059,-0.156 0.055,-0.144 0.05,-0.137 0.047,-0.129 0.051,-0.117 0.043,-0.11 0.047,-0.097 0.035,-0.082 0.039,-0.074 0.031,-0.063 0.032,-0.043 c 0.293,-0.406 0.476,-0.406 0.976,-0.406 l 0.407,0 c 0.183,0.015 0.203,0.129 0.203,0.183 0,0.051 -0.036,0.094 -0.094,0.172 -0.18,0.2 -0.297,0.473 -0.422,0.844 l -3.77,10.512 c -0.386,1.074 -1.39,1.32 -2.253,1.32 -0.094,0 -0.332,0 -0.332,-0.207 0,-0.152 0.148,-0.184 0.164,-0.184 0.609,-0.113 0.734,-0.218 1.199,-1.476 l 1.793,-5.027 -5.102,-5.067 c -0.219,-0.219 -0.332,-0.332 -0.332,-0.57 0,-0.317 0.262,-0.535 0.559,-0.535 0.297,0 0.457,0.203 0.609,0.39 l 4.449,5.242 z" />
        <path
           inkscape:connector-curvature="0"
           id="path8173"
           style="fill:#000000;fill-opacity:1;fill-rule:nonzero;stroke:none"
           d="m 217.148,162.125 0.008,0.012 0.012,0.035 0.004,0.004 0.008,0.023 0.004,0.008 0.004,0.02 0.007,0.019 0.004,0.012 0.008,0.02 0,0.015 0.004,0.016 0.019,0.058 0,0.008 0.004,0.012 0,0.008 0.004,0.004 0,0.015 0.004,0.008 0,0.039 c 0,0.203 -0.168,0.367 -0.371,0.367 -0.125,0 -0.258,-0.054 -0.312,-0.164 l -6.418,-17.613 c -0.09,-0.238 -0.09,-0.316 -0.09,-0.332 0,-0.203 0.168,-0.371 0.371,-0.371 0.242,0 0.297,0.129 0.406,0.441 l 6.32,17.336 z" />
        <path
           inkscape:connector-curvature="0"
           id="path8175"
           style="fill:#000000;fill-opacity:1;fill-rule:nonzero;stroke:none"
           d="m 223.727,152.016 0,-1.606 c 0,-0.668 -0.039,-0.867 -1.403,-0.867 l -0.39,0 0,-0.574 c 0.761,0.059 1.722,0.059 2.496,0.059 0.781,0 1.761,0 2.511,-0.059 l 0,0.574 -0.386,0 c -1.371,0 -1.403,0.199 -1.403,0.867 l 0,1.606 1.848,0 0,0.574 -1.848,0 0,8.41 c 0,0.371 0,0.481 -0.297,0.481 -0.167,0 -0.218,0 -0.371,-0.227 l -5.672,-8.664 0.52,0 4.508,6.891 0,-6.891 -5.028,0 0,-0.574 4.915,0 z" />
        <path
           inkscape:connector-curvature="0"
           id="path8177"
           style="fill:none;stroke:#ff0000;stroke-width:1.36704695;stroke-linecap:butt;stroke-linejoin:miter;stroke-miterlimit:4;stroke-dasharray:none;stroke-opacity:1"
           d="m 373.359,106.098 c 8.703,10.996 22.293,10.289 30.356,-1.578 8.062,-11.867 7.547,-30.403 -1.156,-41.399 -8.704,-10.996 -22.297,-10.289 -30.36,1.582 -5.582,8.211 -7.238,20.043 -4.273,30.485" />
        <g
           transform="matrix(-0.283951,-1,-1,0.283951,0,210.82832)"
           id="g8179">
          <path
             inkscape:connector-curvature="0"
             id="path8181"
             style="fill:#ff0000;fill-opacity:1;fill-rule:evenodd;stroke:#ff0000;stroke-width:0.65753001;stroke-linecap:butt;stroke-linejoin:miter;stroke-miterlimit:4;stroke-dasharray:none;stroke-opacity:1"
             d="m 15.597,-370.858 2.628,-2.63 -9.206,2.63 9.207,2.628 -2.629,-2.628 z" />
        </g>
      </g>
    </g>
  </g>
</svg>
