<?xml version="1.0" encoding="UTF-8" standalone="no"?>
<!-- Created with Inkscape (http://www.inkscape.org/) -->

<svg
   xmlns:ns0="http://www.iki.fi/pav/software/textext/"
   xmlns:dc="http://purl.org/dc/elements/1.1/"
   xmlns:cc="http://creativecommons.org/ns#"
   xmlns:rdf="http://www.w3.org/1999/02/22-rdf-syntax-ns#"
   xmlns:svg="http://www.w3.org/2000/svg"
   xmlns="http://www.w3.org/2000/svg"
   xmlns:xlink="http://www.w3.org/1999/xlink"
   xmlns:sodipodi="http://sodipodi.sourceforge.net/DTD/sodipodi-0.dtd"
   xmlns:inkscape="http://www.inkscape.org/namespaces/inkscape"
   width="81.05748mm"
   height="42.184025mm"
   viewBox="0 0 287.21154 149.47095"
   id="svg41068"
   version="1.1"
   inkscape:version="0.91 r13725"
   sodipodi:docname="our_PD_right.svg">
  <sodipodi:namedview
     id="base"
     pagecolor="#ffffff"
     bordercolor="#666666"
     borderopacity="1.0"
     inkscape:pageopacity="0.0"
     inkscape:pageshadow="2"
     inkscape:zoom="0.7"
     inkscape:cx="-199.8628"
     inkscape:cy="143.57658"
     inkscape:document-units="px"
     inkscape:current-layer="layer1"
     showgrid="false"
     inkscape:window-width="1600"
     inkscape:window-height="851"
     inkscape:window-x="0"
     inkscape:window-y="0"
     inkscape:window-maximized="1"
     fit-margin-top="0"
     fit-margin-left="0"
     fit-margin-right="0"
     fit-margin-bottom="0" />
  <defs
     id="defs41070" />
  <metadata
     id="metadata41073">
    <rdf:RDF>
      <cc:Work
         rdf:about="">
        <dc:format>image/svg+xml</dc:format>
        <dc:type
           rdf:resource="http://purl.org/dc/dcmitype/StillImage" />
        <dc:title></dc:title>
      </cc:Work>
    </rdf:RDF>
  </metadata>
  <g
     inkscape:label="Layer 1"
     inkscape:groupmode="layer"
     id="layer1"
     transform="translate(-363.53709,-226.19815)">
    <g
       ns0:text="$$u_{obj} = e^{\\frac{-(x^2+y^2)}{\\sigma}}$$"
       ns0:preamble="/Users/Santiago/Dropbox/Faustos/Master 3/Focus poster/Tikzposter (extended example)/preamble.ini"
       transform="matrix(2.106482,0,0,2.106482,-337.90927,17.075391)"
       id="g23797">
      <defs
         id="defs23799">
        <g
           id="g23801">
          <symbol
             style="overflow:visible"
             overflow="visible"
             id="textext-9de04a4d-0">
            <path
               inkscape:connector-curvature="0"
               style="stroke:none"
               d=""
               id="path23804" />
          </symbol>
          <symbol
             style="overflow:visible"
             overflow="visible"
             id="textext-9de04a4d-1">
            <path
               inkscape:connector-curvature="0"
               style="stroke:none"
               d="M 3.484375,-0.5625 C 3.59375,-0.15625 3.953125,0.109375 4.375,0.109375 4.71875,0.109375 4.953125,-0.125 5.109375,-0.4375 5.28125,-0.796875 5.40625,-1.40625 5.40625,-1.421875 c 0,-0.109375 -0.078125,-0.109375 -0.109375,-0.109375 -0.109375,0 -0.109375,0.046875 -0.140625,0.1875 -0.140625,0.5625 -0.328125,1.234375 -0.75,1.234375 -0.203125,0 -0.3125,-0.125 -0.3125,-0.453125 0,-0.21875 0.125,-0.6875 0.203125,-1.046875 L 4.578125,-2.6875 C 4.609375,-2.828125 4.703125,-3.203125 4.75,-3.359375 4.796875,-3.59375 4.890625,-3.96875 4.890625,-4.03125 c 0,-0.171875 -0.140625,-0.265625 -0.28125,-0.265625 -0.046875,0 -0.3125,0.015625 -0.390625,0.34375 -0.1875,0.734375 -0.625,2.484375 -0.75,3 -0.015625,0.046875 -0.40625,0.84375 -1.140625,0.84375 -0.515625,0 -0.609375,-0.453125 -0.609375,-0.8125 0,-0.5625 0.28125,-1.34375 0.53125,-2.03125 0.125,-0.3125 0.171875,-0.453125 0.171875,-0.640625 0,-0.4375 -0.3125,-0.8125 -0.8125,-0.8125 -0.953125,0 -1.3125,1.453125 -1.3125,1.53125 0,0.109375 0.09375,0.109375 0.109375,0.109375 0.109375,0 0.109375,-0.03125 0.15625,-0.1875 0.25,-0.859375 0.640625,-1.234375 1.015625,-1.234375 0.09375,0 0.25,0.015625 0.25,0.328125 0,0.234375 -0.109375,0.53125 -0.171875,0.671875 -0.375,1 -0.578125,1.609375 -0.578125,2.09375 0,0.953125 0.6875,1.203125 1.21875,1.203125 0.65625,0 1.015625,-0.453125 1.1875,-0.671875 z m 0,0"
               id="path23807" />
          </symbol>
          <symbol
             style="overflow:visible"
             overflow="visible"
             id="textext-9de04a4d-2">
            <path
               inkscape:connector-curvature="0"
               style="stroke:none"
               d="m 1.859375,-2.296875 c 0.296875,0 1.03125,-0.03125 1.53125,-0.234375 0.703125,-0.296875 0.75,-0.890625 0.75,-1.03125 0,-0.4375 -0.375,-0.84375 -1.0625,-0.84375 -1.109375,0 -2.625,0.96875 -2.625,2.71875 0,1.015625 0.59375,1.796875 1.578125,1.796875 1.421875,0 2.25,-1.0625 2.25,-1.171875 0,-0.0625 -0.046875,-0.140625 -0.109375,-0.140625 -0.0625,0 -0.078125,0.03125 -0.140625,0.109375 -0.78125,0.984375 -1.875,0.984375 -1.984375,0.984375 -0.78125,0 -0.875,-0.84375 -0.875,-1.15625 0,-0.125 0.015625,-0.421875 0.15625,-1.03125 z m -0.46875,-0.21875 C 1.78125,-4.03125 2.8125,-4.1875 3.078125,-4.1875 c 0.453125,0 0.734375,0.296875 0.734375,0.625 0,1.046875 -1.59375,1.046875 -2.015625,1.046875 z m 0,0"
               id="path23810" />
          </symbol>
          <symbol
             style="overflow:visible"
             overflow="visible"
             id="textext-9de04a4d-3">
            <path
               inkscape:connector-curvature="0"
               style="stroke:none"
               d=""
               id="path23813" />
          </symbol>
          <symbol
             style="overflow:visible"
             overflow="visible"
             id="textext-9de04a4d-4">
            <path
               inkscape:connector-curvature="0"
               style="stroke:none"
               d="m 3.703125,-1.859375 c 0,-0.765625 -0.578125,-1.21875 -1.265625,-1.21875 -1.03125,0 -2,0.96875 -2,1.921875 0,0.703125 0.5,1.21875 1.265625,1.21875 1,0 2,-0.90625 2,-1.921875 z m -2,1.734375 c -0.34375,0 -0.6875,-0.21875 -0.6875,-0.78125 0,-0.28125 0.125,-0.96875 0.40625,-1.359375 C 1.71875,-2.703125 2.125,-2.875 2.4375,-2.875 c 0.375,0 0.6875,0.25 0.6875,0.765625 C 3.125,-1.9375 3.046875,-1.25 2.734375,-0.765625 2.46875,-0.34375 2.0625,-0.125 1.703125,-0.125 Z m 0,0"
               id="path23816" />
          </symbol>
          <symbol
             style="overflow:visible"
             overflow="visible"
             id="textext-9de04a4d-5">
            <path
               inkscape:connector-curvature="0"
               style="stroke:none"
               d="m 1.84375,-4.625 c 0,-0.015625 0.03125,-0.109375 0.03125,-0.109375 0,-0.046875 -0.03125,-0.109375 -0.125,-0.109375 -0.140625,0 -0.71875,0.0625 -0.890625,0.078125 -0.046875,0 -0.15625,0.015625 -0.15625,0.15625 0,0.09375 0.109375,0.09375 0.1875,0.09375 0.328125,0 0.328125,0.0625 0.328125,0.109375 0,0.046875 -0.0625,0.328125 -0.109375,0.484375 l -0.15625,0.640625 c -0.0625,0.25 -0.4375,1.765625 -0.453125,1.859375 -0.046875,0.171875 -0.046875,0.265625 -0.046875,0.34375 0,0.703125 0.453125,1.140625 1.03125,1.140625 0.875,0 1.796875,-0.9375 1.796875,-1.96875 0,-0.8125 -0.5625,-1.171875 -1.046875,-1.171875 -0.359375,0 -0.671875,0.203125 -0.875,0.390625 z m -0.359375,4.5 c -0.328125,0 -0.53125,-0.296875 -0.53125,-0.71875 0,-0.25 0.0625,-0.484375 0.265625,-1.28125 C 1.25,-2.25 1.25,-2.265625 1.390625,-2.421875 1.65625,-2.71875 1.96875,-2.875 2.21875,-2.875 c 0.265625,0 0.5,0.203125 0.5,0.671875 0,0.28125 -0.140625,1 -0.359375,1.40625 C 2.1875,-0.453125 1.84375,-0.125 1.484375,-0.125 Z m 0,0"
               id="path23819" />
          </symbol>
          <symbol
             style="overflow:visible"
             overflow="visible"
             id="textext-9de04a4d-6">
            <path
               inkscape:connector-curvature="0"
               style="stroke:none"
               d="M 3.0625,-4.359375 C 3.0625,-4.46875 2.96875,-4.625 2.78125,-4.625 c -0.203125,0 -0.390625,0.203125 -0.390625,0.390625 0,0.109375 0.078125,0.265625 0.28125,0.265625 0.1875,0 0.390625,-0.1875 0.390625,-0.390625 z M 1.578125,0.34375 C 1.46875,0.828125 1.09375,1.21875 0.6875,1.21875 c -0.09375,0 -0.171875,0 -0.25,-0.03125 0.171875,-0.09375 0.234375,-0.25 0.234375,-0.359375 0,-0.171875 -0.140625,-0.25 -0.28125,-0.25 C 0.1875,0.578125 0,0.765625 0,0.984375 c 0,0.265625 0.265625,0.4375 0.6875,0.4375 0.421875,0 1.234375,-0.25 1.453125,-1.09375 l 0.625,-2.5 c 0.015625,-0.078125 0.03125,-0.140625 0.03125,-0.25 0,-0.375 -0.328125,-0.65625 -0.734375,-0.65625 -0.78125,0 -1.21875,0.96875 -1.21875,1.078125 0,0.078125 0.09375,0.078125 0.109375,0.078125 0.078125,0 0.09375,-0.015625 0.140625,-0.125 C 1.265625,-2.453125 1.625,-2.875 2.03125,-2.875 c 0.171875,0 0.234375,0.109375 0.234375,0.34375 0,0.078125 0,0.171875 -0.015625,0.203125 z m 0,0"
               id="path23822" />
          </symbol>
          <symbol
             style="overflow:visible"
             overflow="visible"
             id="textext-9de04a4d-7">
            <path
               inkscape:connector-curvature="0"
               style="stroke:none"
               d=""
               id="path23825" />
          </symbol>
          <symbol
             style="overflow:visible"
             overflow="visible"
             id="textext-9de04a4d-8">
            <path
               inkscape:connector-curvature="0"
               style="stroke:none"
               d="m 6.84375,-3.265625 c 0.15625,0 0.34375,0 0.34375,-0.1875 C 7.1875,-3.65625 7,-3.65625 6.859375,-3.65625 l -5.96875,0 c -0.140625,0 -0.328125,0 -0.328125,0.203125 0,0.1875 0.1875,0.1875 0.328125,0.1875 z m 0.015625,1.9375 c 0.140625,0 0.328125,0 0.328125,-0.203125 0,-0.1875 -0.1875,-0.1875 -0.34375,-0.1875 l -5.953125,0 c -0.140625,0 -0.328125,0 -0.328125,0.1875 0,0.203125 0.1875,0.203125 0.328125,0.203125 z m 0,0"
               id="path23828" />
          </symbol>
          <symbol
             style="overflow:visible"
             overflow="visible"
             id="textext-9de04a4d-9">
            <path
               inkscape:connector-curvature="0"
               style="stroke:none"
               d=""
               id="path23831" />
          </symbol>
          <symbol
             style="overflow:visible"
             overflow="visible"
             id="textext-9de04a4d-10">
            <path
               inkscape:connector-curvature="0"
               style="stroke:none"
               d="m 4.390625,-1.109375 c 0.078125,0 0.203125,0 0.203125,-0.140625 0,-0.140625 -0.125,-0.140625 -0.203125,-0.140625 l -3.375,0 c -0.078125,0 -0.21875,0 -0.21875,0.140625 0,0.140625 0.140625,0.140625 0.21875,0.140625 z m 0,0"
               id="path23834" />
          </symbol>
          <symbol
             style="overflow:visible"
             overflow="visible"
             id="textext-9de04a4d-11">
            <path
               inkscape:connector-curvature="0"
               style="stroke:none"
               d=""
               id="path23837" />
          </symbol>
          <symbol
             style="overflow:visible"
             overflow="visible"
             id="textext-9de04a4d-12">
            <path
               inkscape:connector-curvature="0"
               style="stroke:none"
               d="m 2.203125,-3.625 c 0,0 0.015625,-0.015625 0.015625,-0.046875 0,-0.015625 -0.015625,-0.0625 -0.09375,-0.0625 -0.09375,0 -1.375,0.796875 -1.375,2.484375 0,1.6875 1.28125,2.5 1.375,2.5 0.078125,0 0.09375,-0.046875 0.09375,-0.078125 C 2.21875,1.140625 2.1875,1.125 2.171875,1.109375 1.296875,0.40625 1.125,-0.609375 1.125,-1.25 c 0,-1.21875 0.5625,-2.015625 1.078125,-2.375 z m 0,0"
               id="path23840" />
          </symbol>
          <symbol
             style="overflow:visible"
             overflow="visible"
             id="textext-9de04a4d-13">
            <path
               inkscape:connector-curvature="0"
               style="stroke:none"
               d="m 2.9375,-0.96875 -0.21875,0 c 0,0.09375 -0.0625,0.40625 -0.140625,0.453125 -0.03125,0.03125 -0.453125,0.03125 -0.53125,0.03125 l -0.96875,0 C 1.40625,-0.71875 1.765625,-1 2.0625,-1.203125 c 0.453125,-0.3125 0.875,-0.59375 0.875,-1.125 0,-0.640625 -0.609375,-0.984375 -1.3125,-0.984375 -0.671875,0 -1.171875,0.375 -1.171875,0.875 0,0.25 0.21875,0.296875 0.296875,0.296875 0.125,0 0.28125,-0.09375 0.28125,-0.296875 0,-0.171875 -0.125,-0.28125 -0.28125,-0.28125 0.140625,-0.234375 0.4375,-0.375 0.765625,-0.375 0.484375,0 0.890625,0.28125 0.890625,0.765625 0,0.421875 -0.296875,0.75 -0.671875,1.0625 l -1.21875,1.03125 C 0.46875,-0.1875 0.453125,-0.1875 0.453125,-0.15625 l 0,0.15625 2.3125,0 z m 0,0"
               id="path23843" />
          </symbol>
          <symbol
             style="overflow:visible"
             overflow="visible"
             id="textext-9de04a4d-14">
            <path
               inkscape:connector-curvature="0"
               style="stroke:none"
               d="m 2.703125,-1.109375 1.734375,0 c 0.0625,0 0.203125,0 0.203125,-0.140625 0,-0.140625 -0.140625,-0.140625 -0.203125,-0.140625 l -1.734375,0 0,-1.734375 c 0,-0.0625 0,-0.203125 -0.140625,-0.203125 -0.140625,0 -0.140625,0.140625 -0.140625,0.203125 l 0,1.734375 -1.734375,0 c -0.0625,0 -0.203125,0 -0.203125,0.140625 0,0.140625 0.140625,0.140625 0.203125,0.140625 l 1.734375,0 0,1.734375 c 0,0.078125 0,0.203125 0.140625,0.203125 0.140625,0 0.140625,-0.125 0.140625,-0.203125 z m 0,0"
               id="path23846" />
          </symbol>
          <symbol
             style="overflow:visible"
             overflow="visible"
             id="textext-9de04a4d-15">
            <path
               inkscape:connector-curvature="0"
               style="stroke:none"
               d="m 1.953125,-1.25 c 0,-1.6875 -1.28125,-2.484375 -1.390625,-2.484375 -0.078125,0 -0.078125,0.0625 -0.078125,0.0625 0,0.015625 0,0.03125 0.03125,0.0625 0.75,0.59375 1.046875,1.46875 1.046875,2.359375 0,0.453125 -0.078125,0.921875 -0.25,1.328125 C 1.078125,0.640625 0.75,0.921875 0.515625,1.125 0.5,1.125 0.484375,1.15625 0.484375,1.171875 c 0,0.015625 0,0.078125 0.078125,0.078125 0.109375,0 1.390625,-0.796875 1.390625,-2.5 z m 0,0"
               id="path23849" />
          </symbol>
          <symbol
             style="overflow:visible"
             overflow="visible"
             id="textext-9de04a4d-16">
            <path
               inkscape:connector-curvature="0"
               style="stroke:none"
               d=""
               id="path23852" />
          </symbol>
          <symbol
             style="overflow:visible"
             overflow="visible"
             id="textext-9de04a4d-17">
            <path
               inkscape:connector-curvature="0"
               style="stroke:none"
               d="m 3.09375,-1.953125 c -0.234375,0.0625 -0.234375,0.28125 -0.234375,0.296875 0,0.078125 0.0625,0.203125 0.234375,0.203125 0.140625,0 0.3125,-0.125 0.3125,-0.34375 0,-0.296875 -0.328125,-0.40625 -0.59375,-0.40625 -0.328125,0 -0.546875,0.203125 -0.640625,0.34375 -0.15625,-0.28125 -0.484375,-0.34375 -0.65625,-0.34375 -0.625,0 -0.984375,0.59375 -0.984375,0.765625 0,0.078125 0.078125,0.078125 0.109375,0.078125 0.046875,0 0.078125,0 0.109375,-0.0625 0.140625,-0.484375 0.546875,-0.609375 0.734375,-0.609375 0.171875,0 0.359375,0.0625 0.359375,0.328125 0,0.125 -0.09375,0.46875 -0.265625,1.140625 -0.0625,0.28125 -0.296875,0.453125 -0.515625,0.453125 -0.03125,0 -0.171875,0 -0.296875,-0.078125 0.21875,-0.09375 0.21875,-0.28125 0.21875,-0.296875 0,-0.140625 -0.109375,-0.203125 -0.21875,-0.203125 -0.125,0 -0.296875,0.09375 -0.296875,0.328125 0,0.3125 0.328125,0.421875 0.59375,0.421875 0.265625,0 0.5,-0.171875 0.609375,-0.34375 C 1.875,0.015625 2.1875,0.0625 2.34375,0.0625 c 0.625,0 0.984375,-0.59375 0.984375,-0.78125 0,-0.0625 -0.078125,-0.0625 -0.109375,-0.0625 -0.078125,0 -0.09375,0.03125 -0.109375,0.0625 C 2.96875,-0.265625 2.59375,-0.109375 2.375,-0.109375 c -0.15625,0 -0.359375,-0.0625 -0.359375,-0.34375 0,-0.0625 0,-0.09375 0.03125,-0.265625 0.09375,-0.34375 0.21875,-0.890625 0.265625,-0.984375 0.0625,-0.125 0.234375,-0.328125 0.484375,-0.328125 0.015625,0 0.1875,0 0.296875,0.078125 z m 0,0"
               id="path23855" />
          </symbol>
          <symbol
             style="overflow:visible"
             overflow="visible"
             id="textext-9de04a4d-18">
            <path
               inkscape:connector-curvature="0"
               style="stroke:none"
               d="M 3.296875,-1.859375 C 3.3125,-1.9375 3.3125,-1.96875 3.3125,-1.96875 c 0,-0.109375 -0.078125,-0.171875 -0.171875,-0.171875 -0.203125,0 -0.25,0.171875 -0.28125,0.296875 L 2.75,-1.421875 l -0.140625,0.625 c -0.03125,0.0625 -0.046875,0.15625 -0.0625,0.1875 0,0.03125 -0.265625,0.5 -0.6875,0.5 -0.234375,0 -0.40625,-0.109375 -0.40625,-0.4375 0,-0.265625 0.140625,-0.640625 0.28125,-1 0.03125,-0.046875 0.0625,-0.140625 0.0625,-0.21875 0,-0.25 -0.234375,-0.4375 -0.546875,-0.4375 -0.515625,0 -0.796875,0.640625 -0.796875,0.765625 0,0.078125 0.078125,0.078125 0.109375,0.078125 0.078125,0 0.078125,-0.03125 0.109375,-0.09375 0.109375,-0.34375 0.34375,-0.578125 0.5625,-0.578125 0.09375,0 0.15625,0.046875 0.15625,0.1875 0,0.09375 -0.03125,0.171875 -0.0625,0.265625 -0.25,0.59375 -0.296875,0.765625 -0.296875,0.96875 0,0.546875 0.46875,0.671875 0.796875,0.671875 0.28125,0 0.5,-0.140625 0.625,-0.25 -0.078125,0.28125 -0.125,0.5 -0.359375,0.734375 -0.125,0.109375 -0.359375,0.3125 -0.65625,0.3125 -0.09375,0 -0.28125,-0.015625 -0.390625,-0.125 0.21875,-0.0625 0.25,-0.25 0.25,-0.296875 0,-0.140625 -0.125,-0.203125 -0.21875,-0.203125 -0.15625,0 -0.328125,0.109375 -0.328125,0.34375 0,0.25 0.265625,0.4375 0.6875,0.4375 C 2,1.015625 2.671875,0.640625 2.828125,0 Z m 0,0"
               id="path23858" />
          </symbol>
          <symbol
             style="overflow:visible"
             overflow="visible"
             id="textext-9de04a4d-19">
            <path
               inkscape:connector-curvature="0"
               style="stroke:none"
               d="m 3.4375,-1.765625 c 0.09375,0 0.140625,0 0.203125,-0.046875 0.03125,-0.03125 0.078125,-0.09375 0.078125,-0.171875 0,-0.15625 -0.140625,-0.15625 -0.21875,-0.15625 l -1.46875,0 c -0.84375,0 -1.515625,0.75 -1.515625,1.34375 0,0.515625 0.4375,0.859375 0.984375,0.859375 0.71875,0 1.46875,-0.5625 1.46875,-1.3125 0,-0.203125 -0.046875,-0.375 -0.15625,-0.515625 z m -1.921875,1.65625 c -0.234375,0 -0.59375,-0.09375 -0.59375,-0.5625 0,-0.15625 0.0625,-1.09375 1.03125,-1.09375 0.375,0 0.609375,0.140625 0.609375,0.484375 0,0.5 -0.390625,1.171875 -1.046875,1.171875 z m 0,0"
               id="path23861" />
          </symbol>
        </g>
      </defs>
      <g
         id="textext-9de04a4d-20">
        <g
           style="fill:#000000;fill-opacity:1"
           id="g23864">
          <use
             height="100%"
             width="100%"
             xlink:href="#textext-9de04a4d-1"
             x="360.48801"
             y="137.633"
             id="use23866" />
        </g>
        <g
           style="fill:#000000;fill-opacity:1"
           id="g23868">
          <use
             height="100%"
             width="100%"
             xlink:href="#textext-9de04a4d-4"
             x="366.19101"
             y="139.127"
             id="use23870" />
          <use
             height="100%"
             width="100%"
             xlink:href="#textext-9de04a4d-5"
             x="370.12354"
             y="139.127"
             id="use23872" />
          <use
             height="100%"
             width="100%"
             xlink:href="#textext-9de04a4d-6"
             x="373.62717"
             y="139.127"
             id="use23874" />
        </g>
        <g
           style="fill:#000000;fill-opacity:1"
           id="g23876">
          <use
             height="100%"
             width="100%"
             xlink:href="#textext-9de04a4d-8"
             x="380.59201"
             y="137.633"
             id="use23878" />
        </g>
        <g
           style="fill:#000000;fill-opacity:1"
           id="g23880">
          <use
             height="100%"
             width="100%"
             xlink:href="#textext-9de04a4d-2"
             x="391.108"
             y="137.633"
             id="use23882" />
        </g>
        <g
           style="fill:#000000;fill-opacity:1"
           id="g23884">
          <use
             height="100%"
             width="100%"
             xlink:href="#textext-9de04a4d-10"
             x="396.94299"
             y="130.022"
             id="use23886" />
        </g>
        <g
           style="fill:#000000;fill-opacity:1"
           id="g23888">
          <use
             height="100%"
             width="100%"
             xlink:href="#textext-9de04a4d-12"
             x="402.33899"
             y="130.022"
             id="use23890" />
        </g>
        <g
           style="fill:#000000;fill-opacity:1"
           id="g23892">
          <use
             height="100%"
             width="100%"
             xlink:href="#textext-9de04a4d-17"
             x="405.03799"
             y="130.022"
             id="use23894" />
        </g>
        <g
           style="fill:#000000;fill-opacity:1"
           id="g23896">
          <use
             height="100%"
             width="100%"
             xlink:href="#textext-9de04a4d-13"
             x="408.98099"
             y="128.01199"
             id="use23898" />
        </g>
        <g
           style="fill:#000000;fill-opacity:1"
           id="g23900">
          <use
             height="100%"
             width="100%"
             xlink:href="#textext-9de04a4d-14"
             x="412.86899"
             y="130.022"
             id="use23902" />
        </g>
        <g
           style="fill:#000000;fill-opacity:1"
           id="g23904">
          <use
             height="100%"
             width="100%"
             xlink:href="#textext-9de04a4d-18"
             x="417.98901"
             y="130.022"
             id="use23906" />
        </g>
        <g
           style="fill:#000000;fill-opacity:1"
           id="g23908">
          <use
             height="100%"
             width="100%"
             xlink:href="#textext-9de04a4d-13"
             x="421.80701"
             y="128.01199"
             id="use23910" />
        </g>
        <g
           style="fill:#000000;fill-opacity:1"
           id="g23912">
          <use
             height="100%"
             width="100%"
             xlink:href="#textext-9de04a4d-15"
             x="425.69501"
             y="130.022"
             id="use23914" />
        </g>
        <path
           inkscape:connector-curvature="0"
           style="fill:none;stroke:#000000;stroke-width:0.33899999;stroke-linecap:butt;stroke-linejoin:miter;stroke-miterlimit:10;stroke-opacity:1"
           d="m -0.00159375,-0.00134375 31.45312475,0"
           transform="matrix(1,0,0,-1,396.943,131.776)"
           id="path23916" />
        <g
           style="fill:#000000;fill-opacity:1"
           id="g23918">
          <use
             height="100%"
             width="100%"
             xlink:href="#textext-9de04a4d-19"
             x="410.54901"
             y="135.92"
             id="use23920" />
        </g>
      </g>
    </g>
    <g
       id="g47262"
       transform="matrix(1.5187165,0,0,1.5187165,23.708882,32.040691)"
       ns0:preamble="/Users/Santiago/Dropbox/Faustos/Master 3/Focus poster/Tikzposter (extended example)/preamble.ini"
       ns0:text="En el laboratorio podemos escoger el tipo\\\\\nde iluminaci\\\'on y definir nuestro propio $u_{obj}$ ">
      <defs
         id="defs47264">
        <g
           id="g47266">
          <symbol
             id="textext-e23fc3e5-0"
             overflow="visible"
             style="overflow:visible">
            <path
               id="path47269"
               d=""
               style="stroke:none"
               inkscape:connector-curvature="0" />
          </symbol>
          <symbol
             id="textext-e23fc3e5-1"
             overflow="visible"
             style="overflow:visible">
            <path
               id="path47272"
               d="m 1.359375,-0.78125 c 0,0.359375 -0.03125,0.46875 -0.796875,0.46875 l -0.234375,0 0,0.3125 5.75,0 L 6.5,-2.578125 l -0.25,0 C 6,-1.03125 5.765625,-0.3125 4.0625,-0.3125 l -1.328125,0 C 2.265625,-0.3125 2.25,-0.375 2.25,-0.703125 l 0,-2.671875 0.890625,0 c 0.96875,0 1.078125,0.328125 1.078125,1.171875 l 0.25,0 0,-2.640625 -0.25,0 c 0,0.859375 -0.109375,1.171875 -1.078125,1.171875 l -0.890625,0 0,-2.40625 c 0,-0.328125 0.015625,-0.390625 0.484375,-0.390625 l 1.28125,0 c 1.53125,0 1.796875,0.546875 1.953125,1.9375 l 0.25,0 -0.28125,-2.25 -5.609375,0 0,0.3125 0.234375,0 c 0.765625,0 0.796875,0.109375 0.796875,0.46875 z m 0,0"
               style="stroke:none"
               inkscape:connector-curvature="0" />
          </symbol>
          <symbol
             id="textext-e23fc3e5-2"
             overflow="visible"
             style="overflow:visible">
            <path
               id="path47275"
               d="m 1.09375,-3.421875 0,2.671875 c 0,0.4375 -0.109375,0.4375 -0.78125,0.4375 l 0,0.3125 c 0.359375,-0.015625 0.859375,-0.03125 1.140625,-0.03125 0.25,0 0.765625,0.015625 1.109375,0.03125 l 0,-0.3125 c -0.671875,0 -0.78125,0 -0.78125,-0.4375 l 0,-1.84375 C 1.78125,-3.625 2.5,-4.1875 3.125,-4.1875 c 0.640625,0 0.75,0.53125 0.75,1.109375 l 0,2.328125 c 0,0.4375 -0.109375,0.4375 -0.78125,0.4375 l 0,0.3125 c 0.34375,-0.015625 0.859375,-0.03125 1.125,-0.03125 0.25,0 0.78125,0.015625 1.109375,0.03125 l 0,-0.3125 c -0.515625,0 -0.765625,0 -0.765625,-0.296875 l 0,-1.90625 c 0,-0.859375 0,-1.15625 -0.3125,-1.515625 -0.140625,-0.171875 -0.46875,-0.375 -1.046875,-0.375 C 2.46875,-4.40625 2,-3.984375 1.71875,-3.359375 l 0,-1.046875 -1.40625,0.109375 0,0.3125 c 0.703125,0 0.78125,0.0625 0.78125,0.5625 z m 0,0"
               style="stroke:none"
               inkscape:connector-curvature="0" />
          </symbol>
          <symbol
             id="textext-e23fc3e5-3"
             overflow="visible"
             style="overflow:visible">
            <path
               id="path47278"
               d="M 1.109375,-2.515625 C 1.171875,-4 2.015625,-4.25 2.359375,-4.25 c 1.015625,0 1.125,1.34375 1.125,1.734375 z m 0,0.21875 2.78125,0 c 0.21875,0 0.25,0 0.25,-0.21875 0,-0.984375 -0.546875,-1.953125 -1.78125,-1.953125 -1.15625,0 -2.078125,1.03125 -2.078125,2.28125 0,1.328125 1.046875,2.296875 2.1875,2.296875 C 3.6875,0.109375 4.140625,-1 4.140625,-1.1875 4.140625,-1.28125 4.0625,-1.3125 4,-1.3125 c -0.078125,0 -0.109375,0.0625 -0.125,0.140625 -0.34375,1.03125 -1.25,1.03125 -1.34375,1.03125 -0.5,0 -0.890625,-0.296875 -1.125,-0.671875 -0.296875,-0.46875 -0.296875,-1.125 -0.296875,-1.484375 z m 0,0"
               style="stroke:none"
               inkscape:connector-curvature="0" />
          </symbol>
          <symbol
             id="textext-e23fc3e5-4"
             overflow="visible"
             style="overflow:visible">
            <path
               id="path47281"
               d="m 1.765625,-6.921875 -1.4375,0.109375 0,0.3125 c 0.703125,0 0.78125,0.0625 0.78125,0.5625 l 0,5.1875 c 0,0.4375 -0.109375,0.4375 -0.78125,0.4375 l 0,0.3125 C 0.65625,-0.015625 1.1875,-0.03125 1.4375,-0.03125 c 0.25,0 0.734375,0.015625 1.109375,0.03125 l 0,-0.3125 c -0.671875,0 -0.78125,0 -0.78125,-0.4375 z m 0,0"
               style="stroke:none"
               inkscape:connector-curvature="0" />
          </symbol>
          <symbol
             id="textext-e23fc3e5-5"
             overflow="visible"
             style="overflow:visible">
            <path
               id="path47284"
               d="m 3.3125,-0.75 c 0.046875,0.390625 0.3125,0.8125 0.78125,0.8125 0.21875,0 0.828125,-0.140625 0.828125,-0.953125 l 0,-0.5625 -0.25,0 0,0.5625 c 0,0.578125 -0.25,0.640625 -0.359375,0.640625 -0.328125,0 -0.375,-0.453125 -0.375,-0.5 l 0,-1.984375 c 0,-0.421875 0,-0.8125 -0.359375,-1.1875 C 3.1875,-4.3125 2.6875,-4.46875 2.21875,-4.46875 c -0.828125,0 -1.515625,0.46875 -1.515625,1.125 0,0.296875 0.203125,0.46875 0.46875,0.46875 0.28125,0 0.453125,-0.203125 0.453125,-0.453125 0,-0.125 -0.046875,-0.453125 -0.515625,-0.453125 C 1.390625,-4.140625 1.875,-4.25 2.1875,-4.25 c 0.5,0 1.0625,0.390625 1.0625,1.28125 l 0,0.359375 c -0.515625,0.03125 -1.203125,0.0625 -1.828125,0.359375 -0.75,0.34375 -1,0.859375 -1,1.296875 0,0.8125 0.96875,1.0625 1.59375,1.0625 0.65625,0 1.109375,-0.40625 1.296875,-0.859375 z M 3.25,-2.390625 l 0,1 c 0,0.9375 -0.71875,1.28125 -1.171875,1.28125 -0.484375,0 -0.890625,-0.34375 -0.890625,-0.84375 0,-0.546875 0.421875,-1.375 2.0625,-1.4375 z m 0,0"
               style="stroke:none"
               inkscape:connector-curvature="0" />
          </symbol>
          <symbol
             id="textext-e23fc3e5-6"
             overflow="visible"
             style="overflow:visible">
            <path
               id="path47287"
               d="m 1.71875,-3.765625 0,-3.15625 -1.4375,0.109375 0,0.3125 c 0.703125,0 0.78125,0.0625 0.78125,0.5625 l 0,5.9375 0.25,0 c 0,-0.015625 0.078125,-0.15625 0.359375,-0.625 0.140625,0.234375 0.5625,0.734375 1.296875,0.734375 1.1875,0 2.21875,-0.984375 2.21875,-2.265625 0,-1.265625 -0.96875,-2.25 -2.109375,-2.25 -0.78125,0 -1.203125,0.46875 -1.359375,0.640625 z m 0.03125,2.625 0,-2.046875 c 0,-0.1875 0,-0.203125 0.109375,-0.359375 C 2.25,-4.109375 2.796875,-4.1875 3.03125,-4.1875 c 0.453125,0 0.8125,0.265625 1.046875,0.640625 0.265625,0.40625 0.28125,0.96875 0.28125,1.390625 0,0.359375 -0.015625,0.953125 -0.296875,1.40625 -0.21875,0.3125 -0.59375,0.640625 -1.125,0.640625 -0.453125,0 -0.8125,-0.234375 -1.046875,-0.609375 C 1.75,-0.921875 1.75,-0.953125 1.75,-1.140625 Z m 0,0"
               style="stroke:none"
               inkscape:connector-curvature="0" />
          </symbol>
          <symbol
             id="textext-e23fc3e5-7"
             overflow="visible"
             style="overflow:visible">
            <path
               id="path47290"
               d="M 4.6875,-2.140625 C 4.6875,-3.40625 3.703125,-4.46875 2.5,-4.46875 c -1.25,0 -2.21875,1.09375 -2.21875,2.328125 0,1.296875 1.03125,2.25 2.203125,2.25 1.203125,0 2.203125,-0.984375 2.203125,-2.25 z m -2.1875,2 c -0.4375,0 -0.875,-0.203125 -1.140625,-0.671875 -0.25,-0.4375 -0.25,-1.046875 -0.25,-1.40625 0,-0.390625 0,-0.921875 0.234375,-1.359375 C 1.609375,-4.03125 2.078125,-4.25 2.484375,-4.25 c 0.4375,0 0.859375,0.21875 1.125,0.65625 0.265625,0.421875 0.265625,1 0.265625,1.375 0,0.359375 0,0.90625 -0.21875,1.34375 C 3.421875,-0.421875 2.984375,-0.140625 2.5,-0.140625 Z m 0,0"
               style="stroke:none"
               inkscape:connector-curvature="0" />
          </symbol>
          <symbol
             id="textext-e23fc3e5-8"
             overflow="visible"
             style="overflow:visible">
            <path
               id="path47293"
               d="m 1.671875,-3.3125 0,-1.09375 -1.390625,0.109375 0,0.3125 c 0.703125,0 0.78125,0.0625 0.78125,0.5625 l 0,2.671875 c 0,0.4375 -0.109375,0.4375 -0.78125,0.4375 l 0,0.3125 c 0.390625,-0.015625 0.859375,-0.03125 1.140625,-0.03125 0.390625,0 0.859375,0 1.265625,0.03125 l 0,-0.3125 -0.21875,0 c -0.734375,0 -0.75,-0.109375 -0.75,-0.46875 l 0,-1.53125 c 0,-0.984375 0.421875,-1.875 1.171875,-1.875 0.0625,0 0.09375,0 0.109375,0.015625 -0.03125,0 -0.234375,0.125 -0.234375,0.390625 0,0.265625 0.21875,0.421875 0.4375,0.421875 0.171875,0 0.421875,-0.125 0.421875,-0.4375 0,-0.3125 -0.3125,-0.609375 -0.734375,-0.609375 -0.734375,0 -1.09375,0.671875 -1.21875,1.09375 z m 0,0"
               style="stroke:none"
               inkscape:connector-curvature="0" />
          </symbol>
          <symbol
             id="textext-e23fc3e5-9"
             overflow="visible"
             style="overflow:visible">
            <path
               id="path47296"
               d="m 1.71875,-3.984375 1.4375,0 0,-0.3125 -1.4375,0 0,-1.828125 -0.25,0 c 0,0.8125 -0.296875,1.875 -1.28125,1.921875 l 0,0.21875 0.84375,0 0,2.75 c 0,1.21875 0.9375,1.34375 1.296875,1.34375 0.703125,0 0.984375,-0.703125 0.984375,-1.34375 l 0,-0.5625 -0.25,0 0,0.546875 c 0,0.734375 -0.296875,1.109375 -0.671875,1.109375 -0.671875,0 -0.671875,-0.90625 -0.671875,-1.078125 z m 0,0"
               style="stroke:none"
               inkscape:connector-curvature="0" />
          </symbol>
          <symbol
             id="textext-e23fc3e5-10"
             overflow="visible"
             style="overflow:visible">
            <path
               id="path47299"
               d="M 1.765625,-4.40625 0.375,-4.296875 l 0,0.3125 c 0.640625,0 0.734375,0.0625 0.734375,0.546875 l 0,2.6875 c 0,0.4375 -0.109375,0.4375 -0.78125,0.4375 l 0,0.3125 C 0.640625,-0.015625 1.1875,-0.03125 1.421875,-0.03125 1.78125,-0.03125 2.125,-0.015625 2.46875,0 l 0,-0.3125 c -0.671875,0 -0.703125,-0.046875 -0.703125,-0.4375 z m 0.03125,-1.734375 c 0,-0.3125 -0.234375,-0.53125 -0.515625,-0.53125 -0.3125,0 -0.53125,0.265625 -0.53125,0.53125 0,0.265625 0.21875,0.53125 0.53125,0.53125 0.28125,0 0.515625,-0.21875 0.515625,-0.53125 z m 0,0"
               style="stroke:none"
               inkscape:connector-curvature="0" />
          </symbol>
          <symbol
             id="textext-e23fc3e5-11"
             overflow="visible"
             style="overflow:visible">
            <path
               id="path47302"
               d="m 1.71875,-3.75 0,-0.65625 -1.4375,0.109375 0,0.3125 c 0.703125,0 0.78125,0.0625 0.78125,0.5 l 0,4.65625 C 1.0625,1.625 0.953125,1.625 0.28125,1.625 l 0,0.3125 C 0.625,1.921875 1.140625,1.90625 1.390625,1.90625 c 0.28125,0 0.78125,0.015625 1.125,0.03125 l 0,-0.3125 C 1.859375,1.625 1.75,1.625 1.75,1.171875 l 0,-1.765625 c 0.046875,0.171875 0.46875,0.703125 1.21875,0.703125 1.1875,0 2.21875,-0.984375 2.21875,-2.265625 0,-1.265625 -0.953125,-2.25 -2.078125,-2.25 -0.78125,0 -1.203125,0.4375 -1.390625,0.65625 z m 0.03125,2.609375 0,-2.21875 C 2.03125,-3.875 2.515625,-4.15625 3.03125,-4.15625 c 0.734375,0 1.328125,0.875 1.328125,2 0,1.203125 -0.6875,2.046875 -1.421875,2.046875 -0.40625,0 -0.78125,-0.203125 -1.046875,-0.609375 C 1.75,-0.921875 1.75,-0.9375 1.75,-1.140625 Z m 0,0"
               style="stroke:none"
               inkscape:connector-curvature="0" />
          </symbol>
          <symbol
             id="textext-e23fc3e5-12"
             overflow="visible"
             style="overflow:visible">
            <path
               id="path47305"
               d="m 3.78125,-0.546875 0,0.65625 L 5.25,0 l 0,-0.3125 c -0.6875,0 -0.78125,-0.0625 -0.78125,-0.5625 l 0,-6.046875 -1.421875,0.109375 0,0.3125 c 0.6875,0 0.765625,0.0625 0.765625,0.5625 l 0,2.15625 c -0.28125,-0.359375 -0.71875,-0.625 -1.25,-0.625 -1.171875,0 -2.21875,0.984375 -2.21875,2.265625 0,1.265625 0.96875,2.25 2.109375,2.25 0.640625,0 1.078125,-0.34375 1.328125,-0.65625 z m 0,-2.671875 0,2.046875 c 0,0.171875 0,0.1875 -0.109375,0.359375 C 3.375,-0.328125 2.9375,-0.109375 2.5,-0.109375 2.046875,-0.109375 1.6875,-0.375 1.453125,-0.75 1.203125,-1.15625 1.171875,-1.71875 1.171875,-2.140625 1.171875,-2.5 1.1875,-3.09375 1.46875,-3.546875 1.6875,-3.859375 2.0625,-4.1875 2.609375,-4.1875 c 0.34375,0 0.765625,0.15625 1.0625,0.59375 0.109375,0.171875 0.109375,0.1875 0.109375,0.375 z m 0,0"
               style="stroke:none"
               inkscape:connector-curvature="0" />
          </symbol>
          <symbol
             id="textext-e23fc3e5-13"
             overflow="visible"
             style="overflow:visible">
            <path
               id="path47308"
               d="m 1.09375,-3.421875 0,2.671875 c 0,0.4375 -0.109375,0.4375 -0.78125,0.4375 l 0,0.3125 c 0.359375,-0.015625 0.859375,-0.03125 1.140625,-0.03125 0.25,0 0.765625,0.015625 1.109375,0.03125 l 0,-0.3125 c -0.671875,0 -0.78125,0 -0.78125,-0.4375 l 0,-1.84375 C 1.78125,-3.625 2.5,-4.1875 3.125,-4.1875 c 0.640625,0 0.75,0.53125 0.75,1.109375 l 0,2.328125 c 0,0.4375 -0.109375,0.4375 -0.78125,0.4375 l 0,0.3125 c 0.34375,-0.015625 0.859375,-0.03125 1.125,-0.03125 0.25,0 0.78125,0.015625 1.109375,0.03125 l 0,-0.3125 c -0.65625,0 -0.765625,0 -0.765625,-0.4375 l 0,-1.84375 c 0,-1.03125 0.703125,-1.59375 1.34375,-1.59375 0.625,0 0.734375,0.53125 0.734375,1.109375 l 0,2.328125 c 0,0.4375 -0.109375,0.4375 -0.78125,0.4375 l 0,0.3125 c 0.34375,-0.015625 0.859375,-0.03125 1.125,-0.03125 0.265625,0 0.78125,0.015625 1.125,0.03125 l 0,-0.3125 c -0.515625,0 -0.765625,0 -0.78125,-0.296875 l 0,-1.90625 c 0,-0.859375 0,-1.15625 -0.3125,-1.515625 -0.140625,-0.171875 -0.46875,-0.375 -1.046875,-0.375 -0.828125,0 -1.28125,0.59375 -1.4375,0.984375 C 4.390625,-4.296875 3.65625,-4.40625 3.203125,-4.40625 2.46875,-4.40625 2,-3.984375 1.71875,-3.359375 l 0,-1.046875 -1.40625,0.109375 0,0.3125 c 0.703125,0 0.78125,0.0625 0.78125,0.5625 z m 0,0"
               style="stroke:none"
               inkscape:connector-curvature="0" />
          </symbol>
          <symbol
             id="textext-e23fc3e5-14"
             overflow="visible"
             style="overflow:visible">
            <path
               id="path47311"
               d="m 2.078125,-1.9375 c 0.21875,0.046875 1.03125,0.203125 1.03125,0.921875 0,0.5 -0.34375,0.90625 -1.125,0.90625 -0.84375,0 -1.203125,-0.5625 -1.390625,-1.421875 C 0.5625,-1.65625 0.5625,-1.6875 0.453125,-1.6875 c -0.125,0 -0.125,0.0625 -0.125,0.234375 l 0,1.328125 c 0,0.171875 0,0.234375 0.109375,0.234375 0.046875,0 0.0625,-0.015625 0.25,-0.203125 0.015625,-0.015625 0.015625,-0.03125 0.203125,-0.21875 0.4375,0.40625 0.890625,0.421875 1.09375,0.421875 1.140625,0 1.609375,-0.671875 1.609375,-1.390625 0,-0.515625 -0.296875,-0.828125 -0.421875,-0.9375 C 2.84375,-2.546875 2.453125,-2.625 2.03125,-2.703125 1.46875,-2.8125 0.8125,-2.9375 0.8125,-3.515625 c 0,-0.359375 0.25,-0.765625 1.109375,-0.765625 1.09375,0 1.15625,0.90625 1.171875,1.203125 0,0.09375 0.09375,0.09375 0.109375,0.09375 0.140625,0 0.140625,-0.046875 0.140625,-0.234375 l 0,-1.015625 c 0,-0.15625 0,-0.234375 -0.109375,-0.234375 -0.046875,0 -0.078125,0 -0.203125,0.125 -0.03125,0.03125 -0.125,0.125 -0.171875,0.15625 -0.375,-0.28125 -0.78125,-0.28125 -0.9375,-0.28125 -1.21875,0 -1.59375,0.671875 -1.59375,1.234375 0,0.34375 0.15625,0.625 0.421875,0.84375 0.328125,0.25 0.609375,0.3125 1.328125,0.453125 z m 0,0"
               style="stroke:none"
               inkscape:connector-curvature="0" />
          </symbol>
          <symbol
             id="textext-e23fc3e5-15"
             overflow="visible"
             style="overflow:visible">
            <path
               id="path47314"
               d="m 1.171875,-2.171875 c 0,-1.625 0.8125,-2.046875 1.34375,-2.046875 0.09375,0 0.71875,0.015625 1.0625,0.375 -0.40625,0.03125 -0.46875,0.328125 -0.46875,0.453125 0,0.265625 0.1875,0.453125 0.453125,0.453125 0.265625,0 0.46875,-0.15625 0.46875,-0.46875 0,-0.671875 -0.765625,-1.0625 -1.53125,-1.0625 -1.25,0 -2.15625,1.078125 -2.15625,2.3125 0,1.28125 0.984375,2.265625 2.140625,2.265625 1.328125,0 1.65625,-1.203125 1.65625,-1.296875 0,-0.09375 -0.109375,-0.09375 -0.140625,-0.09375 -0.078125,0 -0.109375,0.03125 -0.125,0.09375 -0.28125,0.921875 -0.9375,1.046875 -1.296875,1.046875 -0.53125,0 -1.40625,-0.421875 -1.40625,-2.03125 z m 0,0"
               style="stroke:none"
               inkscape:connector-curvature="0" />
          </symbol>
          <symbol
             id="textext-e23fc3e5-16"
             overflow="visible"
             style="overflow:visible">
            <path
               id="path47317"
               d="m 2.21875,-1.71875 c -0.875,0 -0.875,-1 -0.875,-1.21875 0,-0.265625 0.015625,-0.59375 0.15625,-0.84375 0.078125,-0.109375 0.3125,-0.390625 0.71875,-0.390625 0.859375,0 0.859375,0.984375 0.859375,1.21875 0,0.265625 0,0.59375 -0.15625,0.84375 C 2.84375,-2 2.609375,-1.71875 2.21875,-1.71875 Z M 1.0625,-1.328125 c 0,-0.03125 0,-0.265625 0.15625,-0.46875 0.390625,0.28125 0.8125,0.3125 1,0.3125 0.921875,0 1.609375,-0.6875 1.609375,-1.453125 0,-0.375 -0.15625,-0.734375 -0.40625,-0.96875 C 3.78125,-4.25 4.140625,-4.296875 4.3125,-4.296875 c 0.03125,0 0.078125,0 0.109375,0.015625 C 4.3125,-4.25 4.25,-4.140625 4.25,-4.015625 c 0,0.171875 0.140625,0.28125 0.296875,0.28125 0.09375,0 0.28125,-0.0625 0.28125,-0.296875 0,-0.171875 -0.109375,-0.484375 -0.5,-0.484375 -0.203125,0 -0.640625,0.0625 -1.0625,0.46875 C 2.84375,-4.375 2.4375,-4.40625 2.21875,-4.40625 c -0.9375,0 -1.625,0.6875 -1.625,1.453125 0,0.4375 0.21875,0.8125 0.46875,1.03125 -0.125,0.140625 -0.3125,0.46875 -0.3125,0.828125 0,0.3125 0.140625,0.6875 0.453125,0.890625 -0.609375,0.15625 -0.921875,0.59375 -0.921875,0.984375 0,0.71875 0.984375,1.265625 2.203125,1.265625 1.171875,0 2.203125,-0.5 2.203125,-1.28125 0,-0.34375 -0.125,-0.859375 -0.640625,-1.140625 -0.53125,-0.265625 -1.109375,-0.265625 -1.71875,-0.265625 -0.25,0 -0.671875,0 -0.75,-0.015625 C 1.265625,-0.703125 1.0625,-1 1.0625,-1.328125 Z M 2.5,1.828125 c -1.015625,0 -1.703125,-0.515625 -1.703125,-1.046875 0,-0.453125 0.375,-0.828125 0.8125,-0.84375 l 0.59375,0 c 0.859375,0 1.96875,0 1.96875,0.84375 0,0.546875 -0.703125,1.046875 -1.671875,1.046875 z m 0,0"
               style="stroke:none"
               inkscape:connector-curvature="0" />
          </symbol>
          <symbol
             id="textext-e23fc3e5-17"
             overflow="visible"
             style="overflow:visible">
            <path
               id="path47320"
               d="m 3.890625,-0.78125 0,0.890625 L 5.328125,0 l 0,-0.3125 C 4.640625,-0.3125 4.5625,-0.375 4.5625,-0.875 l 0,-3.53125 -1.46875,0.109375 0,0.3125 c 0.6875,0 0.78125,0.0625 0.78125,0.5625 l 0,1.765625 c 0,0.875 -0.484375,1.546875 -1.21875,1.546875 -0.828125,0 -0.875,-0.46875 -0.875,-0.984375 l 0,-3.3125 -1.46875,0.109375 0,0.3125 c 0.78125,0 0.78125,0.03125 0.78125,0.90625 l 0,1.5 c 0,0.78125 0,1.6875 1.515625,1.6875 0.5625,0 1,-0.28125 1.28125,-0.890625 z m 0,0"
               style="stroke:none"
               inkscape:connector-curvature="0" />
          </symbol>
          <symbol
             id="textext-e23fc3e5-18"
             overflow="visible"
             style="overflow:visible">
            <path
               id="path47323"
               d="M 3.734375,-6.296875 C 3.828125,-6.375 3.90625,-6.484375 3.90625,-6.59375 c 0,-0.1875 -0.171875,-0.359375 -0.359375,-0.359375 -0.140625,0 -0.25,0.109375 -0.296875,0.171875 l -1.203125,1.515625 0.171875,0.1875 z m 0,0"
               style="stroke:none"
               inkscape:connector-curvature="0" />
          </symbol>
          <symbol
             id="textext-e23fc3e5-19"
             overflow="visible"
             style="overflow:visible">
            <path
               id="path47326"
               d="m 4.140625,-3.34375 c 0.25,-0.640625 0.765625,-0.640625 0.921875,-0.640625 l 0,-0.3125 c -0.234375,0.015625 -0.515625,0.03125 -0.75,0.03125 -0.171875,0 -0.640625,-0.015625 -0.859375,-0.03125 l 0,0.3125 c 0.3125,0 0.46875,0.171875 0.46875,0.421875 0,0.109375 -0.015625,0.125 -0.0625,0.25 L 2.84375,-0.875 1.75,-3.546875 C 1.703125,-3.65625 1.6875,-3.6875 1.6875,-3.734375 c 0,-0.25 0.359375,-0.25 0.5625,-0.25 l 0,-0.3125 c -0.265625,0.015625 -0.921875,0.03125 -1.09375,0.03125 -0.265625,0 -0.671875,-0.015625 -0.96875,-0.03125 l 0,0.3125 c 0.484375,0 0.671875,0 0.8125,0.34375 L 2.5,0 C 2.4375,0.125 2.296875,0.453125 2.25,0.59375 2.03125,1.140625 1.75,1.828125 1.109375,1.828125 c -0.046875,0 -0.28125,0 -0.46875,-0.1875 0.3125,-0.03125 0.390625,-0.25 0.390625,-0.421875 0,-0.25 -0.1875,-0.40625 -0.421875,-0.40625 -0.203125,0 -0.421875,0.125 -0.421875,0.421875 0,0.453125 0.421875,0.8125 0.921875,0.8125 0.625,0 1.03125,-0.578125 1.265625,-1.140625 z m 0,0"
               style="stroke:none"
               inkscape:connector-curvature="0" />
          </symbol>
          <symbol
             id="textext-e23fc3e5-20"
             overflow="visible"
             style="overflow:visible">
            <path
               id="path47329"
               d="m 3.296875,-3.984375 c 0.453125,0 0.515625,0.125 0.515625,0.53125 l 0,2.703125 c 0,0.4375 -0.109375,0.4375 -0.765625,0.4375 l 0,0.3125 c 0.328125,-0.015625 0.84375,-0.03125 1.09375,-0.03125 0.25,0 0.75,0.015625 1.109375,0.03125 l 0,-0.3125 c -0.671875,0 -0.78125,0 -0.78125,-0.4375 l 0,-3.671875 -1.25,0.09375 C 3.0625,-4.3125 3.046875,-4.3125 3.046875,-4.3125 3.015625,-4.296875 3,-4.296875 2.859375,-4.296875 l -1.171875,0 0,-1.125 c 0,-0.984375 0.859375,-1.390625 1.46875,-1.390625 0.296875,0 0.65625,0.109375 0.859375,0.328125 -0.40625,0.03125 -0.46875,0.296875 -0.46875,0.46875 C 3.546875,-5.6875 3.8125,-5.5625 4,-5.5625 c 0.234375,0 0.453125,-0.15625 0.453125,-0.453125 0,-0.59375 -0.546875,-1.015625 -1.28125,-1.015625 C 2.25,-7.03125 1.0625,-6.515625 1.0625,-5.4375 l 0,1.140625 -0.796875,0 0,0.3125 0.796875,0 0,3.234375 c 0,0.4375 -0.109375,0.4375 -0.78125,0.4375 l 0,0.3125 C 0.609375,-0.015625 1.140625,-0.03125 1.390625,-0.03125 1.640625,-0.03125 2.125,-0.015625 2.5,0 l 0,-0.3125 c -0.671875,0 -0.78125,0 -0.78125,-0.4375 l 0,-3.234375 z m 0,0"
               style="stroke:none"
               inkscape:connector-curvature="0" />
          </symbol>
          <symbol
             id="textext-e23fc3e5-21"
             overflow="visible"
             style="overflow:visible">
            <path
               id="path47332"
               d=""
               style="stroke:none"
               inkscape:connector-curvature="0" />
          </symbol>
          <symbol
             id="textext-e23fc3e5-22"
             overflow="visible"
             style="overflow:visible">
            <path
               id="path47335"
               d="M 3.484375,-0.5625 C 3.59375,-0.15625 3.953125,0.109375 4.375,0.109375 4.71875,0.109375 4.953125,-0.125 5.109375,-0.4375 5.28125,-0.796875 5.40625,-1.40625 5.40625,-1.421875 c 0,-0.109375 -0.078125,-0.109375 -0.109375,-0.109375 -0.109375,0 -0.109375,0.046875 -0.140625,0.1875 -0.140625,0.5625 -0.328125,1.234375 -0.75,1.234375 -0.203125,0 -0.3125,-0.125 -0.3125,-0.453125 0,-0.21875 0.125,-0.6875 0.203125,-1.046875 L 4.578125,-2.6875 C 4.609375,-2.828125 4.703125,-3.203125 4.75,-3.359375 4.796875,-3.59375 4.890625,-3.96875 4.890625,-4.03125 c 0,-0.171875 -0.140625,-0.265625 -0.28125,-0.265625 -0.046875,0 -0.3125,0.015625 -0.390625,0.34375 -0.1875,0.734375 -0.625,2.484375 -0.75,3 -0.015625,0.046875 -0.40625,0.84375 -1.140625,0.84375 -0.515625,0 -0.609375,-0.453125 -0.609375,-0.8125 0,-0.5625 0.28125,-1.34375 0.53125,-2.03125 0.125,-0.3125 0.171875,-0.453125 0.171875,-0.640625 0,-0.4375 -0.3125,-0.8125 -0.8125,-0.8125 -0.953125,0 -1.3125,1.453125 -1.3125,1.53125 0,0.109375 0.09375,0.109375 0.109375,0.109375 0.109375,0 0.109375,-0.03125 0.15625,-0.1875 0.25,-0.859375 0.640625,-1.234375 1.015625,-1.234375 0.09375,0 0.25,0.015625 0.25,0.328125 0,0.234375 -0.109375,0.53125 -0.171875,0.671875 -0.375,1 -0.578125,1.609375 -0.578125,2.09375 0,0.953125 0.6875,1.203125 1.21875,1.203125 0.65625,0 1.015625,-0.453125 1.1875,-0.671875 z m 0,0"
               style="stroke:none"
               inkscape:connector-curvature="0" />
          </symbol>
          <symbol
             id="textext-e23fc3e5-23"
             overflow="visible"
             style="overflow:visible">
            <path
               id="path47338"
               d=""
               style="stroke:none"
               inkscape:connector-curvature="0" />
          </symbol>
          <symbol
             id="textext-e23fc3e5-24"
             overflow="visible"
             style="overflow:visible">
            <path
               id="path47341"
               d="m 3.703125,-1.859375 c 0,-0.765625 -0.578125,-1.21875 -1.265625,-1.21875 -1.03125,0 -2,0.96875 -2,1.921875 0,0.703125 0.5,1.21875 1.265625,1.21875 1,0 2,-0.90625 2,-1.921875 z m -2,1.734375 c -0.34375,0 -0.6875,-0.21875 -0.6875,-0.78125 0,-0.28125 0.125,-0.96875 0.40625,-1.359375 C 1.71875,-2.703125 2.125,-2.875 2.4375,-2.875 c 0.375,0 0.6875,0.25 0.6875,0.765625 C 3.125,-1.9375 3.046875,-1.25 2.734375,-0.765625 2.46875,-0.34375 2.0625,-0.125 1.703125,-0.125 Z m 0,0"
               style="stroke:none"
               inkscape:connector-curvature="0" />
          </symbol>
          <symbol
             id="textext-e23fc3e5-25"
             overflow="visible"
             style="overflow:visible">
            <path
               id="path47344"
               d="m 1.84375,-4.625 c 0,-0.015625 0.03125,-0.109375 0.03125,-0.109375 0,-0.046875 -0.03125,-0.109375 -0.125,-0.109375 -0.140625,0 -0.71875,0.0625 -0.890625,0.078125 -0.046875,0 -0.15625,0.015625 -0.15625,0.15625 0,0.09375 0.109375,0.09375 0.1875,0.09375 0.328125,0 0.328125,0.0625 0.328125,0.109375 0,0.046875 -0.0625,0.328125 -0.109375,0.484375 l -0.15625,0.640625 c -0.0625,0.25 -0.4375,1.765625 -0.453125,1.859375 -0.046875,0.171875 -0.046875,0.265625 -0.046875,0.34375 0,0.703125 0.453125,1.140625 1.03125,1.140625 0.875,0 1.796875,-0.9375 1.796875,-1.96875 0,-0.8125 -0.5625,-1.171875 -1.046875,-1.171875 -0.359375,0 -0.671875,0.203125 -0.875,0.390625 z m -0.359375,4.5 c -0.328125,0 -0.53125,-0.296875 -0.53125,-0.71875 0,-0.25 0.0625,-0.484375 0.265625,-1.28125 C 1.25,-2.25 1.25,-2.265625 1.390625,-2.421875 1.65625,-2.71875 1.96875,-2.875 2.21875,-2.875 c 0.265625,0 0.5,0.203125 0.5,0.671875 0,0.28125 -0.140625,1 -0.359375,1.40625 C 2.1875,-0.453125 1.84375,-0.125 1.484375,-0.125 Z m 0,0"
               style="stroke:none"
               inkscape:connector-curvature="0" />
          </symbol>
          <symbol
             id="textext-e23fc3e5-26"
             overflow="visible"
             style="overflow:visible">
            <path
               id="path47347"
               d="M 3.0625,-4.359375 C 3.0625,-4.46875 2.96875,-4.625 2.78125,-4.625 c -0.203125,0 -0.390625,0.203125 -0.390625,0.390625 0,0.109375 0.078125,0.265625 0.28125,0.265625 0.1875,0 0.390625,-0.1875 0.390625,-0.390625 z M 1.578125,0.34375 C 1.46875,0.828125 1.09375,1.21875 0.6875,1.21875 c -0.09375,0 -0.171875,0 -0.25,-0.03125 0.171875,-0.09375 0.234375,-0.25 0.234375,-0.359375 0,-0.171875 -0.140625,-0.25 -0.28125,-0.25 C 0.1875,0.578125 0,0.765625 0,0.984375 c 0,0.265625 0.265625,0.4375 0.6875,0.4375 0.421875,0 1.234375,-0.25 1.453125,-1.09375 l 0.625,-2.5 c 0.015625,-0.078125 0.03125,-0.140625 0.03125,-0.25 0,-0.375 -0.328125,-0.65625 -0.734375,-0.65625 -0.78125,0 -1.21875,0.96875 -1.21875,1.078125 0,0.078125 0.09375,0.078125 0.109375,0.078125 0.078125,0 0.09375,-0.015625 0.140625,-0.125 C 1.265625,-2.453125 1.625,-2.875 2.03125,-2.875 c 0.171875,0 0.234375,0.109375 0.234375,0.34375 0,0.078125 0,0.171875 -0.015625,0.203125 z m 0,0"
               style="stroke:none"
               inkscape:connector-curvature="0" />
          </symbol>
        </g>
      </defs>
      <g
         id="textext-e23fc3e5-27">
        <g
           id="g47350"
           style="fill:#000000;fill-opacity:1">
          <use
             id="use47352"
             y="134.765"
             x="223.43201"
             xlink:href="#textext-e23fc3e5-1"
             width="100%"
             height="100%" />
          <use
             id="use47354"
             y="134.765"
             x="230.21254"
             xlink:href="#textext-e23fc3e5-2"
             width="100%"
             height="100%" />
        </g>
        <g
           id="g47356"
           style="fill:#000000;fill-opacity:1">
          <use
             id="use47358"
             y="134.765"
             x="239.06531"
             xlink:href="#textext-e23fc3e5-3"
             width="100%"
             height="100%" />
          <use
             id="use47360"
             y="134.765"
             x="243.49269"
             xlink:href="#textext-e23fc3e5-4"
             width="100%"
             height="100%" />
        </g>
        <g
           id="g47362"
           style="fill:#000000;fill-opacity:1">
          <use
             id="use47364"
             y="134.765"
             x="249.58781"
             xlink:href="#textext-e23fc3e5-4"
             width="100%"
             height="100%" />
          <use
             id="use47366"
             y="134.765"
             x="252.35542"
             xlink:href="#textext-e23fc3e5-5"
             width="100%"
             height="100%" />
          <use
             id="use47368"
             y="134.765"
             x="257.33673"
             xlink:href="#textext-e23fc3e5-6"
             width="100%"
             height="100%" />
        </g>
        <g
           id="g47370"
           style="fill:#000000;fill-opacity:1">
          <use
             id="use47372"
             y="134.765"
             x="263.14093"
             xlink:href="#textext-e23fc3e5-7"
             width="100%"
             height="100%" />
          <use
             id="use47374"
             y="134.765"
             x="268.12222"
             xlink:href="#textext-e23fc3e5-8"
             width="100%"
             height="100%" />
          <use
             id="use47376"
             y="134.765"
             x="272.0246"
             xlink:href="#textext-e23fc3e5-5"
             width="100%"
             height="100%" />
          <use
             id="use47378"
             y="134.765"
             x="277.00589"
             xlink:href="#textext-e23fc3e5-9"
             width="100%"
             height="100%" />
          <use
             id="use47380"
             y="134.765"
             x="280.88034"
             xlink:href="#textext-e23fc3e5-7"
             width="100%"
             height="100%" />
          <use
             id="use47382"
             y="134.765"
             x="285.86163"
             xlink:href="#textext-e23fc3e5-8"
             width="100%"
             height="100%" />
          <use
             id="use47384"
             y="134.765"
             x="289.76398"
             xlink:href="#textext-e23fc3e5-10"
             width="100%"
             height="100%" />
          <use
             id="use47386"
             y="134.765"
             x="292.53159"
             xlink:href="#textext-e23fc3e5-7"
             width="100%"
             height="100%" />
        </g>
        <g
           id="g47388"
           style="fill:#000000;fill-opacity:1">
          <use
             id="use47390"
             y="134.765"
             x="300.84039"
             xlink:href="#textext-e23fc3e5-11"
             width="100%"
             height="100%" />
        </g>
        <g
           id="g47392"
           style="fill:#000000;fill-opacity:1">
          <use
             id="use47394"
             y="134.765"
             x="306.64462"
             xlink:href="#textext-e23fc3e5-7"
             width="100%"
             height="100%" />
        </g>
        <g
           id="g47396"
           style="fill:#000000;fill-opacity:1">
          <use
             id="use47398"
             y="134.765"
             x="311.90488"
             xlink:href="#textext-e23fc3e5-12"
             width="100%"
             height="100%" />
          <use
             id="use47400"
             y="134.765"
             x="317.44009"
             xlink:href="#textext-e23fc3e5-3"
             width="100%"
             height="100%" />
          <use
             id="use47402"
             y="134.765"
             x="321.86746"
             xlink:href="#textext-e23fc3e5-13"
             width="100%"
             height="100%" />
          <use
             id="use47404"
             y="134.765"
             x="330.16931"
             xlink:href="#textext-e23fc3e5-7"
             width="100%"
             height="100%" />
          <use
             id="use47406"
             y="134.765"
             x="335.1506"
             xlink:href="#textext-e23fc3e5-14"
             width="100%"
             height="100%" />
        </g>
        <g
           id="g47408"
           style="fill:#000000;fill-opacity:1">
          <use
             id="use47410"
             y="134.765"
             x="342.40735"
             xlink:href="#textext-e23fc3e5-3"
             width="100%"
             height="100%" />
          <use
             id="use47412"
             y="134.765"
             x="346.83475"
             xlink:href="#textext-e23fc3e5-14"
             width="100%"
             height="100%" />
          <use
             id="use47414"
             y="134.765"
             x="350.76398"
             xlink:href="#textext-e23fc3e5-15"
             width="100%"
             height="100%" />
          <use
             id="use47416"
             y="134.765"
             x="355.19138"
             xlink:href="#textext-e23fc3e5-7"
             width="100%"
             height="100%" />
          <use
             id="use47418"
             y="134.765"
             x="360.17267"
             xlink:href="#textext-e23fc3e5-16"
             width="100%"
             height="100%" />
          <use
             id="use47420"
             y="134.765"
             x="365.15396"
             xlink:href="#textext-e23fc3e5-3"
             width="100%"
             height="100%" />
          <use
             id="use47422"
             y="134.765"
             x="369.58136"
             xlink:href="#textext-e23fc3e5-8"
             width="100%"
             height="100%" />
        </g>
        <g
           id="g47424"
           style="fill:#000000;fill-opacity:1">
          <use
             id="use47426"
             y="134.765"
             x="376.80124"
             xlink:href="#textext-e23fc3e5-3"
             width="100%"
             height="100%" />
          <use
             id="use47428"
             y="134.765"
             x="381.22864"
             xlink:href="#textext-e23fc3e5-4"
             width="100%"
             height="100%" />
        </g>
        <g
           id="g47430"
           style="fill:#000000;fill-opacity:1">
          <use
             id="use47432"
             y="134.765"
             x="387.31378"
             xlink:href="#textext-e23fc3e5-9"
             width="100%"
             height="100%" />
          <use
             id="use47434"
             y="134.765"
             x="391.18823"
             xlink:href="#textext-e23fc3e5-10"
             width="100%"
             height="100%" />
          <use
             id="use47436"
             y="134.765"
             x="393.95584"
             xlink:href="#textext-e23fc3e5-11"
             width="100%"
             height="100%" />
        </g>
        <g
           id="g47438"
           style="fill:#000000;fill-opacity:1">
          <use
             id="use47440"
             y="134.765"
             x="399.77002"
             xlink:href="#textext-e23fc3e5-7"
             width="100%"
             height="100%" />
        </g>
        <g
           id="g47442"
           style="fill:#000000;fill-opacity:1">
          <use
             id="use47444"
             y="146.72"
             x="223.43201"
             xlink:href="#textext-e23fc3e5-12"
             width="100%"
             height="100%" />
          <use
             id="use47446"
             y="146.72"
             x="228.96722"
             xlink:href="#textext-e23fc3e5-3"
             width="100%"
             height="100%" />
        </g>
        <g
           id="g47448"
           style="fill:#000000;fill-opacity:1">
          <use
             id="use47450"
             y="146.72"
             x="236.71214"
             xlink:href="#textext-e23fc3e5-10"
             width="100%"
             height="100%" />
          <use
             id="use47452"
             y="146.72"
             x="239.47975"
             xlink:href="#textext-e23fc3e5-4"
             width="100%"
             height="100%" />
          <use
             id="use47454"
             y="146.72"
             x="242.24736"
             xlink:href="#textext-e23fc3e5-17"
             width="100%"
             height="100%" />
          <use
             id="use47456"
             y="146.72"
             x="247.78259"
             xlink:href="#textext-e23fc3e5-13"
             width="100%"
             height="100%" />
          <use
             id="use47458"
             y="146.72"
             x="256.08441"
             xlink:href="#textext-e23fc3e5-10"
             width="100%"
             height="100%" />
          <use
             id="use47460"
             y="146.72"
             x="258.85202"
             xlink:href="#textext-e23fc3e5-2"
             width="100%"
             height="100%" />
          <use
             id="use47462"
             y="146.72"
             x="264.38724"
             xlink:href="#textext-e23fc3e5-5"
             width="100%"
             height="100%" />
          <use
             id="use47464"
             y="146.72"
             x="269.36856"
             xlink:href="#textext-e23fc3e5-15"
             width="100%"
             height="100%" />
          <use
             id="use47466"
             y="146.72"
             x="273.79593"
             xlink:href="#textext-e23fc3e5-10"
             width="100%"
             height="100%" />
          <use
             id="use47468"
             y="146.72"
             x="276.56354"
             xlink:href="#textext-e23fc3e5-18"
             width="100%"
             height="100%" />
        </g>
        <g
           id="g47470"
           style="fill:#000000;fill-opacity:1">
          <use
             id="use47472"
             y="146.72"
             x="276.56354"
             xlink:href="#textext-e23fc3e5-7"
             width="100%"
             height="100%" />
          <use
             id="use47474"
             y="146.72"
             x="281.54483"
             xlink:href="#textext-e23fc3e5-2"
             width="100%"
             height="100%" />
        </g>
        <g
           id="g47476"
           style="fill:#000000;fill-opacity:1">
          <use
             id="use47478"
             y="146.72"
             x="290.40756"
             xlink:href="#textext-e23fc3e5-19"
             width="100%"
             height="100%" />
        </g>
        <g
           id="g47480"
           style="fill:#000000;fill-opacity:1">
          <use
             id="use47482"
             y="146.72"
             x="298.98337"
             xlink:href="#textext-e23fc3e5-12"
             width="100%"
             height="100%" />
          <use
             id="use47484"
             y="146.72"
             x="304.51859"
             xlink:href="#textext-e23fc3e5-3"
             width="100%"
             height="100%" />
          <use
             id="use47486"
             y="146.72"
             x="308.94598"
             xlink:href="#textext-e23fc3e5-20"
             width="100%"
             height="100%" />
          <use
             id="use47488"
             y="146.72"
             x="314.4812"
             xlink:href="#textext-e23fc3e5-2"
             width="100%"
             height="100%" />
          <use
             id="use47490"
             y="146.72"
             x="320.01642"
             xlink:href="#textext-e23fc3e5-10"
             width="100%"
             height="100%" />
          <use
             id="use47492"
             y="146.72"
             x="322.78403"
             xlink:href="#textext-e23fc3e5-8"
             width="100%"
             height="100%" />
        </g>
        <g
           id="g47494"
           style="fill:#000000;fill-opacity:1">
          <use
             id="use47496"
             y="146.72"
             x="330.00394"
             xlink:href="#textext-e23fc3e5-2"
             width="100%"
             height="100%" />
        </g>
        <g
           id="g47498"
           style="fill:#000000;fill-opacity:1">
          <use
             id="use47500"
             y="146.72"
             x="335.26019"
             xlink:href="#textext-e23fc3e5-17"
             width="100%"
             height="100%" />
          <use
             id="use47502"
             y="146.72"
             x="340.79541"
             xlink:href="#textext-e23fc3e5-3"
             width="100%"
             height="100%" />
          <use
             id="use47504"
             y="146.72"
             x="345.22278"
             xlink:href="#textext-e23fc3e5-14"
             width="100%"
             height="100%" />
          <use
             id="use47506"
             y="146.72"
             x="349.15204"
             xlink:href="#textext-e23fc3e5-9"
             width="100%"
             height="100%" />
          <use
             id="use47508"
             y="146.72"
             x="353.02649"
             xlink:href="#textext-e23fc3e5-8"
             width="100%"
             height="100%" />
          <use
             id="use47510"
             y="146.72"
             x="356.92883"
             xlink:href="#textext-e23fc3e5-7"
             width="100%"
             height="100%" />
        </g>
        <g
           id="g47512"
           style="fill:#000000;fill-opacity:1">
          <use
             id="use47514"
             y="146.72"
             x="365.23767"
             xlink:href="#textext-e23fc3e5-11"
             width="100%"
             height="100%" />
          <use
             id="use47516"
             y="146.72"
             x="370.77289"
             xlink:href="#textext-e23fc3e5-8"
             width="100%"
             height="100%" />
          <use
             id="use47518"
             y="146.72"
             x="374.67523"
             xlink:href="#textext-e23fc3e5-7"
             width="100%"
             height="100%" />
          <use
             id="use47520"
             y="146.72"
             x="379.65652"
             xlink:href="#textext-e23fc3e5-11"
             width="100%"
             height="100%" />
          <use
             id="use47522"
             y="146.72"
             x="385.19174"
             xlink:href="#textext-e23fc3e5-10"
             width="100%"
             height="100%" />
          <use
             id="use47524"
             y="146.72"
             x="387.95935"
             xlink:href="#textext-e23fc3e5-7"
             width="100%"
             height="100%" />
        </g>
        <g
           id="g47526"
           style="fill:#000000;fill-opacity:1">
          <use
             id="use47528"
             y="146.72"
             x="396.25699"
             xlink:href="#textext-e23fc3e5-22"
             width="100%"
             height="100%" />
        </g>
        <g
           id="g47530"
           style="fill:#000000;fill-opacity:1">
          <use
             id="use47532"
             y="148.214"
             x="401.95999"
             xlink:href="#textext-e23fc3e5-24"
             width="100%"
             height="100%" />
          <use
             id="use47534"
             y="148.214"
             x="405.89252"
             xlink:href="#textext-e23fc3e5-25"
             width="100%"
             height="100%" />
          <use
             id="use47536"
             y="148.214"
             x="409.39615"
             xlink:href="#textext-e23fc3e5-26"
             width="100%"
             height="100%" />
        </g>
      </g>
    </g>
    <g
       id="g50255"
       transform="matrix(2.106482,0,0,2.106482,-323.62356,85.646821)"
       ns0:preamble="/Users/Santiago/Dropbox/Faustos/Master 3/Focus poster/Tikzposter (extended example)/preamble.ini"
       ns0:text="\\begin{equation*}\\label{eq:field}\nu_{j}(\\vec{x}) = \\mathcal{F}^{- 1}\\{ U_{obj} H_0(\\vec{u}) H_j(\\vec{u}) \\}\n\\end{equation*} ">
      <defs
         id="defs50257">
        <g
           id="g50259">
          <symbol
             id="textext-1c722199-0"
             overflow="visible"
             style="overflow:visible">
            <path
               id="path50262"
               d=""
               style="stroke:none"
               inkscape:connector-curvature="0" />
          </symbol>
          <symbol
             id="textext-1c722199-1"
             overflow="visible"
             style="overflow:visible">
            <path
               id="path50265"
               d="M 3.484375,-0.5625 C 3.59375,-0.15625 3.953125,0.109375 4.375,0.109375 4.71875,0.109375 4.953125,-0.125 5.109375,-0.4375 5.28125,-0.796875 5.40625,-1.40625 5.40625,-1.421875 c 0,-0.109375 -0.078125,-0.109375 -0.109375,-0.109375 -0.109375,0 -0.109375,0.046875 -0.140625,0.1875 -0.140625,0.5625 -0.328125,1.234375 -0.75,1.234375 -0.203125,0 -0.3125,-0.125 -0.3125,-0.453125 0,-0.21875 0.125,-0.6875 0.203125,-1.046875 L 4.578125,-2.6875 C 4.609375,-2.828125 4.703125,-3.203125 4.75,-3.359375 4.796875,-3.59375 4.890625,-3.96875 4.890625,-4.03125 c 0,-0.171875 -0.140625,-0.265625 -0.28125,-0.265625 -0.046875,0 -0.3125,0.015625 -0.390625,0.34375 -0.1875,0.734375 -0.625,2.484375 -0.75,3 -0.015625,0.046875 -0.40625,0.84375 -1.140625,0.84375 -0.515625,0 -0.609375,-0.453125 -0.609375,-0.8125 0,-0.5625 0.28125,-1.34375 0.53125,-2.03125 0.125,-0.3125 0.171875,-0.453125 0.171875,-0.640625 0,-0.4375 -0.3125,-0.8125 -0.8125,-0.8125 -0.953125,0 -1.3125,1.453125 -1.3125,1.53125 0,0.109375 0.09375,0.109375 0.109375,0.109375 0.109375,0 0.109375,-0.03125 0.15625,-0.1875 0.25,-0.859375 0.640625,-1.234375 1.015625,-1.234375 0.09375,0 0.25,0.015625 0.25,0.328125 0,0.234375 -0.109375,0.53125 -0.171875,0.671875 -0.375,1 -0.578125,1.609375 -0.578125,2.09375 0,0.953125 0.6875,1.203125 1.21875,1.203125 0.65625,0 1.015625,-0.453125 1.1875,-0.671875 z m 0,0"
               style="stroke:none"
               inkscape:connector-curvature="0" />
          </symbol>
          <symbol
             id="textext-1c722199-2"
             overflow="visible"
             style="overflow:visible">
            <path
               id="path50268"
               d="m 5.359375,-5.9375 c -0.140625,0.140625 -0.46875,0.421875 -0.46875,0.59375 0,0.09375 0.09375,0.203125 0.1875,0.203125 0.09375,0 0.140625,-0.078125 0.203125,-0.140625 C 5.390625,-5.421875 5.625,-5.703125 6.0625,-5.921875 6.125,-5.96875 6.234375,-6.015625 6.234375,-6.125 6.234375,-6.234375 6.15625,-6.28125 6.09375,-6.328125 5.875,-6.484375 5.765625,-6.65625 5.6875,-6.890625 5.65625,-6.984375 5.625,-7.125 5.484375,-7.125 c -0.140625,0 -0.203125,0.140625 -0.203125,0.21875 0,0.046875 0.078125,0.359375 0.234375,0.578125 l -3.359375,0 c -0.15625,0 -0.34375,0 -0.34375,0.203125 0,0.1875 0.1875,0.1875 0.34375,0.1875 z m 0,0"
               style="stroke:none"
               inkscape:connector-curvature="0" />
          </symbol>
          <symbol
             id="textext-1c722199-3"
             overflow="visible"
             style="overflow:visible">
            <path
               id="path50271"
               d="M 3.328125,-3.015625 C 3.390625,-3.265625 3.625,-4.1875 4.3125,-4.1875 c 0.046875,0 0.296875,0 0.5,0.125 C 4.53125,-4 4.34375,-3.765625 4.34375,-3.515625 c 0,0.15625 0.109375,0.34375 0.375,0.34375 0.21875,0 0.53125,-0.171875 0.53125,-0.578125 0,-0.515625 -0.578125,-0.65625 -0.921875,-0.65625 -0.578125,0 -0.921875,0.53125 -1.046875,0.75 -0.25,-0.65625 -0.78125,-0.75 -1.078125,-0.75 -1.03125,0 -1.609375,1.28125 -1.609375,1.53125 0,0.109375 0.109375,0.109375 0.125,0.109375 0.078125,0 0.109375,-0.03125 0.125,-0.109375 0.34375,-1.0625 1,-1.3125 1.34375,-1.3125 0.1875,0 0.53125,0.09375 0.53125,0.671875 0,0.3125 -0.171875,0.96875 -0.53125,2.375 -0.15625,0.609375 -0.515625,1.03125 -0.953125,1.03125 -0.0625,0 -0.28125,0 -0.5,-0.125 0.25,-0.0625 0.46875,-0.265625 0.46875,-0.546875 0,-0.265625 -0.21875,-0.34375 -0.359375,-0.34375 -0.3125,0 -0.546875,0.25 -0.546875,0.578125 0,0.453125 0.484375,0.65625 0.921875,0.65625 0.671875,0 1.03125,-0.703125 1.046875,-0.75 0.125,0.359375 0.484375,0.75 1.078125,0.75 1.03125,0 1.59375,-1.28125 1.59375,-1.53125 0,-0.109375 -0.078125,-0.109375 -0.109375,-0.109375 -0.09375,0 -0.109375,0.046875 -0.140625,0.109375 -0.328125,1.078125 -1,1.3125 -1.3125,1.3125 -0.390625,0 -0.546875,-0.3125 -0.546875,-0.65625 0,-0.21875 0.046875,-0.4375 0.15625,-0.875 z m 0,0"
               style="stroke:none"
               inkscape:connector-curvature="0" />
          </symbol>
          <symbol
             id="textext-1c722199-4"
             overflow="visible"
             style="overflow:visible">
            <path
               id="path50274"
               d="M 6.328125,-5.765625 C 6.4375,-6.171875 6.609375,-6.46875 7.40625,-6.5 c 0.046875,0 0.171875,-0.015625 0.171875,-0.203125 0,0 0,-0.109375 -0.125,-0.109375 -0.328125,0 -0.6875,0.03125 -1.015625,0.03125 -0.34375,0 -0.71875,-0.03125 -1.046875,-0.03125 -0.0625,0 -0.171875,0 -0.171875,0.203125 C 5.21875,-6.5 5.3125,-6.5 5.390625,-6.5 c 0.578125,0.015625 0.6875,0.21875 0.6875,0.4375 0,0.03125 -0.03125,0.1875 -0.03125,0.203125 l -0.90625,3.5625 C 4.8125,-0.953125 3.65625,-0.09375 2.65625,-0.09375 c -0.671875,0 -1.203125,-0.4375 -1.203125,-1.296875 0,-0.015625 0,-0.328125 0.109375,-0.765625 L 2.515625,-6.046875 C 2.609375,-6.40625 2.625,-6.5 3.359375,-6.5 c 0.265625,0 0.34375,0 0.34375,-0.203125 0,-0.109375 -0.109375,-0.109375 -0.140625,-0.109375 -0.28125,0 -1,0.03125 -1.28125,0.03125 -0.28125,0 -1,-0.03125 -1.28125,-0.03125 -0.078125,0 -0.1875,0 -0.1875,0.203125 C 0.8125,-6.5 0.890625,-6.5 1.09375,-6.5 c 0.015625,0 0.203125,0 0.375,0.015625 0.171875,0.03125 0.265625,0.03125 0.265625,0.171875 0,0.046875 -0.109375,0.46875 -0.171875,0.703125 l -0.21875,0.875 C 1.25,-4.34375 0.78125,-2.46875 0.734375,-2.265625 0.671875,-2 0.671875,-1.84375 0.671875,-1.6875 c 0,1.203125 0.90625,1.90625 1.953125,1.90625 1.25,0 2.484375,-1.125 2.8125,-2.4375 z m 0,0"
               style="stroke:none"
               inkscape:connector-curvature="0" />
          </symbol>
          <symbol
             id="textext-1c722199-5"
             overflow="visible"
             style="overflow:visible">
            <path
               id="path50277"
               d="M 7.609375,-6.046875 C 7.703125,-6.40625 7.71875,-6.5 8.4375,-6.5 c 0.265625,0 0.34375,0 0.34375,-0.203125 0,-0.109375 -0.109375,-0.109375 -0.140625,-0.109375 -0.28125,0 -1,0.03125 -1.28125,0.03125 -0.28125,0 -0.984375,-0.03125 -1.28125,-0.03125 -0.078125,0 -0.1875,0 -0.1875,0.203125 0,0.109375 0.09375,0.109375 0.28125,0.109375 0.015625,0 0.203125,0 0.375,0.015625 0.1875,0.03125 0.265625,0.03125 0.265625,0.171875 0,0.03125 0,0.046875 -0.03125,0.1875 l -0.59375,2.421875 -3.046875,0 0.59375,-2.34375 C 3.8125,-6.40625 3.84375,-6.5 4.5625,-6.5 c 0.265625,0 0.34375,0 0.34375,-0.203125 0,-0.109375 -0.109375,-0.109375 -0.140625,-0.109375 -0.28125,0 -1,0.03125 -1.28125,0.03125 -0.28125,0 -0.984375,-0.03125 -1.28125,-0.03125 -0.078125,0 -0.1875,0 -0.1875,0.203125 0,0.109375 0.09375,0.109375 0.28125,0.109375 0.015625,0 0.203125,0 0.375,0.015625 0.171875,0.03125 0.265625,0.03125 0.265625,0.171875 0,0.03125 0,0.0625 -0.03125,0.1875 L 1.5625,-0.78125 c -0.09375,0.390625 -0.109375,0.46875 -0.90625,0.46875 -0.171875,0 -0.265625,0 -0.265625,0.203125 C 0.390625,0 0.515625,0 0.53125,0 0.8125,0 1.515625,-0.03125 1.796875,-0.03125 2,-0.03125 2.21875,-0.015625 2.4375,-0.015625 2.65625,-0.015625 2.875,0 3.078125,0 3.15625,0 3.28125,0 3.28125,-0.203125 3.28125,-0.3125 3.1875,-0.3125 3,-0.3125 c -0.375,0 -0.640625,0 -0.640625,-0.171875 0,-0.0625 0.015625,-0.109375 0.015625,-0.171875 l 0.6875,-2.734375 3.03125,0 c -0.40625,1.65625 -0.640625,2.609375 -0.6875,2.75 C 5.3125,-0.3125 5.125,-0.3125 4.5,-0.3125 c -0.140625,0 -0.234375,0 -0.234375,0.203125 C 4.265625,0 4.390625,0 4.40625,0 4.6875,0 5.390625,-0.03125 5.671875,-0.03125 5.875,-0.03125 6.09375,-0.015625 6.3125,-0.015625 6.53125,-0.015625 6.75,0 6.953125,0 7.03125,0 7.15625,0 7.15625,-0.203125 7.15625,-0.3125 7.0625,-0.3125 6.875,-0.3125 c -0.359375,0 -0.640625,0 -0.640625,-0.171875 0,-0.0625 0.015625,-0.109375 0.03125,-0.171875 z m 0,0"
               style="stroke:none"
               inkscape:connector-curvature="0" />
          </symbol>
          <symbol
             id="textext-1c722199-6"
             overflow="visible"
             style="overflow:visible">
            <path
               id="path50280"
               d=""
               style="stroke:none"
               inkscape:connector-curvature="0" />
          </symbol>
          <symbol
             id="textext-1c722199-7"
             overflow="visible"
             style="overflow:visible">
            <path
               id="path50283"
               d="M 3.0625,-4.359375 C 3.0625,-4.46875 2.96875,-4.625 2.78125,-4.625 c -0.203125,0 -0.390625,0.203125 -0.390625,0.390625 0,0.109375 0.078125,0.265625 0.28125,0.265625 0.1875,0 0.390625,-0.1875 0.390625,-0.390625 z M 1.578125,0.34375 C 1.46875,0.828125 1.09375,1.21875 0.6875,1.21875 c -0.09375,0 -0.171875,0 -0.25,-0.03125 0.171875,-0.09375 0.234375,-0.25 0.234375,-0.359375 0,-0.171875 -0.140625,-0.25 -0.28125,-0.25 C 0.1875,0.578125 0,0.765625 0,0.984375 c 0,0.265625 0.265625,0.4375 0.6875,0.4375 0.421875,0 1.234375,-0.25 1.453125,-1.09375 l 0.625,-2.5 c 0.015625,-0.078125 0.03125,-0.140625 0.03125,-0.25 0,-0.375 -0.328125,-0.65625 -0.734375,-0.65625 -0.78125,0 -1.21875,0.96875 -1.21875,1.078125 0,0.078125 0.09375,0.078125 0.109375,0.078125 0.078125,0 0.09375,-0.015625 0.140625,-0.125 C 1.265625,-2.453125 1.625,-2.875 2.03125,-2.875 c 0.171875,0 0.234375,0.109375 0.234375,0.34375 0,0.078125 0,0.171875 -0.015625,0.203125 z m 0,0"
               style="stroke:none"
               inkscape:connector-curvature="0" />
          </symbol>
          <symbol
             id="textext-1c722199-8"
             overflow="visible"
             style="overflow:visible">
            <path
               id="path50286"
               d="m 3.703125,-1.859375 c 0,-0.765625 -0.578125,-1.21875 -1.265625,-1.21875 -1.03125,0 -2,0.96875 -2,1.921875 0,0.703125 0.5,1.21875 1.265625,1.21875 1,0 2,-0.90625 2,-1.921875 z m -2,1.734375 c -0.34375,0 -0.6875,-0.21875 -0.6875,-0.78125 0,-0.28125 0.125,-0.96875 0.40625,-1.359375 C 1.71875,-2.703125 2.125,-2.875 2.4375,-2.875 c 0.375,0 0.6875,0.25 0.6875,0.765625 C 3.125,-1.9375 3.046875,-1.25 2.734375,-0.765625 2.46875,-0.34375 2.0625,-0.125 1.703125,-0.125 Z m 0,0"
               style="stroke:none"
               inkscape:connector-curvature="0" />
          </symbol>
          <symbol
             id="textext-1c722199-9"
             overflow="visible"
             style="overflow:visible">
            <path
               id="path50289"
               d="m 1.84375,-4.625 c 0,-0.015625 0.03125,-0.109375 0.03125,-0.109375 0,-0.046875 -0.03125,-0.109375 -0.125,-0.109375 -0.140625,0 -0.71875,0.0625 -0.890625,0.078125 -0.046875,0 -0.15625,0.015625 -0.15625,0.15625 0,0.09375 0.109375,0.09375 0.1875,0.09375 0.328125,0 0.328125,0.0625 0.328125,0.109375 0,0.046875 -0.0625,0.328125 -0.109375,0.484375 l -0.15625,0.640625 c -0.0625,0.25 -0.4375,1.765625 -0.453125,1.859375 -0.046875,0.171875 -0.046875,0.265625 -0.046875,0.34375 0,0.703125 0.453125,1.140625 1.03125,1.140625 0.875,0 1.796875,-0.9375 1.796875,-1.96875 0,-0.8125 -0.5625,-1.171875 -1.046875,-1.171875 -0.359375,0 -0.671875,0.203125 -0.875,0.390625 z m -0.359375,4.5 c -0.328125,0 -0.53125,-0.296875 -0.53125,-0.71875 0,-0.25 0.0625,-0.484375 0.265625,-1.28125 C 1.25,-2.25 1.25,-2.265625 1.390625,-2.421875 1.65625,-2.71875 1.96875,-2.875 2.21875,-2.875 c 0.265625,0 0.5,0.203125 0.5,0.671875 0,0.28125 -0.140625,1 -0.359375,1.40625 C 2.1875,-0.453125 1.84375,-0.125 1.484375,-0.125 Z m 0,0"
               style="stroke:none"
               inkscape:connector-curvature="0" />
          </symbol>
          <symbol
             id="textext-1c722199-10"
             overflow="visible"
             style="overflow:visible">
            <path
               id="path50292"
               d=""
               style="stroke:none"
               inkscape:connector-curvature="0" />
          </symbol>
          <symbol
             id="textext-1c722199-11"
             overflow="visible"
             style="overflow:visible">
            <path
               id="path50295"
               d="m 3.296875,2.390625 c 0,-0.03125 0,-0.046875 -0.171875,-0.21875 C 1.890625,0.921875 1.5625,-0.96875 1.5625,-2.5 c 0,-1.734375 0.375,-3.46875 1.609375,-4.703125 0.125,-0.125 0.125,-0.140625 0.125,-0.171875 0,-0.078125 -0.03125,-0.109375 -0.09375,-0.109375 -0.109375,0 -1,0.6875 -1.59375,1.953125 -0.5,1.09375 -0.625,2.203125 -0.625,3.03125 0,0.78125 0.109375,1.984375 0.65625,3.125 C 2.25,1.84375 3.09375,2.5 3.203125,2.5 c 0.0625,0 0.09375,-0.03125 0.09375,-0.109375 z m 0,0"
               style="stroke:none"
               inkscape:connector-curvature="0" />
          </symbol>
          <symbol
             id="textext-1c722199-12"
             overflow="visible"
             style="overflow:visible">
            <path
               id="path50298"
               d="m 2.875,-2.5 c 0,-0.765625 -0.109375,-1.96875 -0.65625,-3.109375 -0.59375,-1.21875 -1.453125,-1.875 -1.546875,-1.875 -0.0625,0 -0.109375,0.046875 -0.109375,0.109375 0,0.03125 0,0.046875 0.1875,0.234375 0.984375,0.984375 1.546875,2.5625 1.546875,4.640625 0,1.71875 -0.359375,3.46875 -1.59375,4.71875 C 0.5625,2.34375 0.5625,2.359375 0.5625,2.390625 0.5625,2.453125 0.609375,2.5 0.671875,2.5 0.765625,2.5 1.671875,1.8125 2.25,0.546875 2.765625,-0.546875 2.875,-1.65625 2.875,-2.5 Z m 0,0"
               style="stroke:none"
               inkscape:connector-curvature="0" />
          </symbol>
          <symbol
             id="textext-1c722199-13"
             overflow="visible"
             style="overflow:visible">
            <path
               id="path50301"
               d="m 6.84375,-3.265625 c 0.15625,0 0.34375,0 0.34375,-0.1875 C 7.1875,-3.65625 7,-3.65625 6.859375,-3.65625 l -5.96875,0 c -0.140625,0 -0.328125,0 -0.328125,0.203125 0,0.1875 0.1875,0.1875 0.328125,0.1875 z m 0.015625,1.9375 c 0.140625,0 0.328125,0 0.328125,-0.203125 0,-0.1875 -0.1875,-0.1875 -0.34375,-0.1875 l -5.953125,0 c -0.140625,0 -0.328125,0 -0.328125,0.1875 0,0.203125 0.1875,0.203125 0.328125,0.203125 z m 0,0"
               style="stroke:none"
               inkscape:connector-curvature="0" />
          </symbol>
          <symbol
             id="textext-1c722199-14"
             overflow="visible"
             style="overflow:visible">
            <path
               id="path50304"
               d=""
               style="stroke:none"
               inkscape:connector-curvature="0" />
          </symbol>
          <symbol
             id="textext-1c722199-15"
             overflow="visible"
             style="overflow:visible">
            <path
               id="path50307"
               d="m 8.28125,-6.4375 c 0,-0.453125 -0.78125,-0.375 -1.078125,-0.375 l -3.765625,0 c -0.5,0 -1.390625,0.28125 -1.546875,0.828125 C 1.90625,-5.9375 1.9375,-5.921875 2,-5.921875 c 0.21875,0 0.515625,-0.171875 0.65625,-0.328125 0.296875,0 0.609375,-0.015625 0.90625,-0.015625 l 0.625,0 c 0,0 -0.046875,0.171875 -0.046875,0.1875 -0.375,1.828125 -0.96875,3.359375 -1.40625,4.34375 -0.0625,0.125 -0.59375,1.375 -0.734375,1.5 -0.4375,0 -0.78125,-0.25 -0.953125,-0.640625 -0.03125,-0.046875 -0.03125,-0.09375 -0.09375,-0.09375 -0.234375,0 -0.78125,0.328125 -0.78125,0.484375 0,0.03125 0,0.046875 0.015625,0.0625 0.1875,0.46875 0.625,0.734375 1.125,0.734375 0.5,0 1.09375,-0.359375 1.40625,-0.734375 0.328125,-0.375 0.984375,-2.015625 1.25,-2.609375 l 1.921875,0 C 5.875,-3.015625 5.875,-3.015625 5.875,-3 c 0,0.046875 0.0625,0.0625 0.09375,0.0625 0.21875,0 0.796875,-0.265625 0.796875,-0.578125 0,-0.078125 -0.078125,-0.0625 -0.203125,-0.0625 l -2.390625,0 c 0.265625,-0.890625 0.609375,-1.78125 0.78125,-2.6875 l 1.3125,0 c 0.25,0 0.953125,-0.046875 1.125,0.171875 0.03125,0.046875 0,0.15625 0.03125,0.203125 C 7.4375,-5.875 7.46875,-5.859375 7.5,-5.859375 c 0.234375,0 0.78125,-0.296875 0.78125,-0.578125 z m 0,0"
               style="stroke:none"
               inkscape:connector-curvature="0" />
          </symbol>
          <symbol
             id="textext-1c722199-16"
             overflow="visible"
             style="overflow:visible">
            <path
               id="path50310"
               d="m 2.828125,-6.15625 c 0,-0.390625 0.25,-1.03125 1.34375,-1.09375 C 4.21875,-7.265625 4.25,-7.3125 4.25,-7.359375 c 0,-0.125 -0.078125,-0.125 -0.1875,-0.125 -0.984375,0 -1.90625,0.515625 -1.90625,1.25 l 0,2.28125 c 0,0.390625 0,0.703125 -0.40625,1.03125 -0.34375,0.296875 -0.71875,0.3125 -0.9375,0.3125 C 0.75,-2.59375 0.71875,-2.546875 0.71875,-2.5 c 0,0.109375 0.0625,0.109375 0.15625,0.125 0.65625,0.03125 1.140625,0.390625 1.25,0.875 0.03125,0.109375 0.03125,0.140625 0.03125,0.5 l 0,1.96875 c 0,0.421875 0,0.734375 0.46875,1.109375 C 3.015625,2.375 3.671875,2.5 4.0625,2.5 4.171875,2.5 4.25,2.5 4.25,2.375 4.25,2.28125 4.203125,2.28125 4.09375,2.265625 3.46875,2.234375 2.984375,1.90625 2.84375,1.40625 2.828125,1.3125 2.828125,1.296875 2.828125,0.9375 l 0,-2.09375 c 0,-0.453125 -0.09375,-0.625 -0.40625,-0.953125 C 2.21875,-2.3125 1.921875,-2.40625 1.640625,-2.5 c 0.828125,-0.21875 1.1875,-0.6875 1.1875,-1.265625 z m 0,0"
               style="stroke:none"
               inkscape:connector-curvature="0" />
          </symbol>
          <symbol
             id="textext-1c722199-17"
             overflow="visible"
             style="overflow:visible">
            <path
               id="path50313"
               d="m 2.15625,1.171875 c 0,0.390625 -0.265625,1.03125 -1.34375,1.09375 C 0.75,2.28125 0.71875,2.328125 0.71875,2.375 0.71875,2.5 0.828125,2.5 0.921875,2.5 1.890625,2.5 2.8125,2 2.828125,1.25 l 0,-2.28125 c 0,-0.390625 0,-0.703125 0.390625,-1.03125 C 3.5625,-2.359375 3.953125,-2.375 4.171875,-2.375 4.21875,-2.390625 4.25,-2.4375 4.25,-2.5 4.25,-2.59375 4.203125,-2.59375 4.09375,-2.609375 3.4375,-2.640625 2.953125,-3 2.84375,-3.484375 2.828125,-3.59375 2.828125,-3.625 2.828125,-3.984375 l 0,-1.96875 c 0,-0.421875 0,-0.734375 -0.484375,-1.109375 C 1.9375,-7.375 1.25,-7.484375 0.921875,-7.484375 c -0.09375,0 -0.203125,0 -0.203125,0.125 0,0.09375 0.0625,0.09375 0.15625,0.109375 0.625,0.03125 1.125,0.359375 1.25,0.859375 0.03125,0.09375 0.03125,0.109375 0.03125,0.46875 l 0,2.09375 c 0,0.453125 0.078125,0.625 0.390625,0.953125 0.21875,0.203125 0.5,0.296875 0.78125,0.375 -0.8125,0.234375 -1.171875,0.703125 -1.171875,1.28125 z m 0,0"
               style="stroke:none"
               inkscape:connector-curvature="0" />
          </symbol>
          <symbol
             id="textext-1c722199-18"
             overflow="visible"
             style="overflow:visible">
            <path
               id="path50316"
               d=""
               style="stroke:none"
               inkscape:connector-curvature="0" />
          </symbol>
          <symbol
             id="textext-1c722199-19"
             overflow="visible"
             style="overflow:visible">
            <path
               id="path50319"
               d="m 5.1875,-1.578125 c 0.109375,0 0.28125,0 0.28125,-0.15625 0,-0.1875 -0.171875,-0.1875 -0.28125,-0.1875 l -4.15625,0 c -0.109375,0 -0.28125,0 -0.28125,0.171875 0,0.171875 0.15625,0.171875 0.28125,0.171875 z m 0,0"
               style="stroke:none"
               inkscape:connector-curvature="0" />
          </symbol>
          <symbol
             id="textext-1c722199-20"
             overflow="visible"
             style="overflow:visible">
            <path
               id="path50322"
               d=""
               style="stroke:none"
               inkscape:connector-curvature="0" />
          </symbol>
          <symbol
             id="textext-1c722199-21"
             overflow="visible"
             style="overflow:visible">
            <path
               id="path50325"
               d="m 2.328125,-4.4375 c 0,-0.1875 0,-0.1875 -0.203125,-0.1875 -0.453125,0.4375 -1.078125,0.4375 -1.359375,0.4375 l 0,0.25 c 0.15625,0 0.625,0 1,-0.1875 l 0,3.546875 c 0,0.234375 0,0.328125 -0.6875,0.328125 l -0.265625,0 0,0.25 c 0.125,0 0.984375,-0.03125 1.234375,-0.03125 0.21875,0 1.09375,0.03125 1.25,0.03125 l 0,-0.25 -0.265625,0 c -0.703125,0 -0.703125,-0.09375 -0.703125,-0.328125 z m 0,0"
               style="stroke:none"
               inkscape:connector-curvature="0" />
          </symbol>
          <symbol
             id="textext-1c722199-22"
             overflow="visible"
             style="overflow:visible">
            <path
               id="path50328"
               d="M 3.59375,-2.21875 C 3.59375,-2.984375 3.5,-3.546875 3.1875,-4.03125 2.96875,-4.34375 2.53125,-4.625 1.984375,-4.625 c -1.625,0 -1.625,1.90625 -1.625,2.40625 0,0.5 0,2.359375 1.625,2.359375 1.609375,0 1.609375,-1.859375 1.609375,-2.359375 z M 1.984375,-0.0625 c -0.328125,0 -0.75,-0.1875 -0.890625,-0.75 C 1,-1.21875 1,-1.796875 1,-2.3125 1,-2.828125 1,-3.359375 1.09375,-3.734375 1.25,-4.28125 1.6875,-4.4375 1.984375,-4.4375 c 0.375,0 0.734375,0.234375 0.859375,0.640625 0.109375,0.375 0.125,0.875 0.125,1.484375 0,0.515625 0,1.03125 -0.09375,1.46875 -0.140625,0.640625 -0.609375,0.78125 -0.890625,0.78125 z m 0,0"
               style="stroke:none"
               inkscape:connector-curvature="0" />
          </symbol>
        </g>
      </defs>
      <g
         id="textext-1c722199-23">
        <g
           id="g50331"
           style="fill:#000000;fill-opacity:1">
          <use
             id="use50333"
             y="134.765"
             x="327.285"
             xlink:href="#textext-1c722199-1"
             width="100%"
             height="100%" />
        </g>
        <g
           id="g50335"
           style="fill:#000000;fill-opacity:1">
          <use
             id="use50337"
             y="136.259"
             x="332.98801"
             xlink:href="#textext-1c722199-7"
             width="100%"
             height="100%" />
        </g>
        <g
           id="g50339"
           style="fill:#000000;fill-opacity:1">
          <use
             id="use50341"
             y="134.765"
             x="337.186"
             xlink:href="#textext-1c722199-11"
             width="100%"
             height="100%" />
        </g>
        <g
           id="g50343"
           style="fill:#000000;fill-opacity:1">
          <use
             id="use50345"
             y="134.765"
             x="340.927"
             xlink:href="#textext-1c722199-2"
             width="100%"
             height="100%" />
        </g>
        <g
           id="g50347"
           style="fill:#000000;fill-opacity:1">
          <use
             id="use50349"
             y="134.765"
             x="341.05652"
             xlink:href="#textext-1c722199-3"
             width="100%"
             height="100%" />
        </g>
        <g
           id="g50351"
           style="fill:#000000;fill-opacity:1">
          <use
             id="use50353"
             y="134.765"
             x="346.754"
             xlink:href="#textext-1c722199-12"
             width="100%"
             height="100%" />
        </g>
        <g
           id="g50355"
           style="fill:#000000;fill-opacity:1">
          <use
             id="use50357"
             y="134.765"
             x="353.39807"
             xlink:href="#textext-1c722199-13"
             width="100%"
             height="100%" />
        </g>
        <g
           id="g50359"
           style="fill:#000000;fill-opacity:1">
          <use
             id="use50361"
             y="134.765"
             x="363.91199"
             xlink:href="#textext-1c722199-15"
             width="100%"
             height="100%" />
        </g>
        <g
           id="g50363"
           style="fill:#000000;fill-opacity:1">
          <use
             id="use50365"
             y="130.651"
             x="372.06201"
             xlink:href="#textext-1c722199-19"
             width="100%"
             height="100%" />
        </g>
        <g
           id="g50367"
           style="fill:#000000;fill-opacity:1">
          <use
             id="use50369"
             y="130.651"
             x="378.28799"
             xlink:href="#textext-1c722199-21"
             width="100%"
             height="100%" />
        </g>
        <g
           id="g50371"
           style="fill:#000000;fill-opacity:1">
          <use
             id="use50373"
             y="134.765"
             x="382.758"
             xlink:href="#textext-1c722199-16"
             width="100%"
             height="100%" />
        </g>
        <g
           id="g50375"
           style="fill:#000000;fill-opacity:1">
          <use
             id="use50377"
             y="134.765"
             x="387.73901"
             xlink:href="#textext-1c722199-4"
             width="100%"
             height="100%" />
        </g>
        <g
           id="g50379"
           style="fill:#000000;fill-opacity:1">
          <use
             id="use50381"
             y="136.259"
             x="394.54099"
             xlink:href="#textext-1c722199-8"
             width="100%"
             height="100%" />
          <use
             id="use50383"
             y="136.259"
             x="398.47351"
             xlink:href="#textext-1c722199-9"
             width="100%"
             height="100%" />
          <use
             id="use50385"
             y="136.259"
             x="401.97717"
             xlink:href="#textext-1c722199-7"
             width="100%"
             height="100%" />
        </g>
        <g
           id="g50387"
           style="fill:#000000;fill-opacity:1">
          <use
             id="use50389"
             y="134.765"
             x="406.17499"
             xlink:href="#textext-1c722199-5"
             width="100%"
             height="100%" />
        </g>
        <g
           id="g50391"
           style="fill:#000000;fill-opacity:1">
          <use
             id="use50393"
             y="136.259"
             x="414.457"
             xlink:href="#textext-1c722199-22"
             width="100%"
             height="100%" />
        </g>
        <g
           id="g50395"
           style="fill:#000000;fill-opacity:1">
          <use
             id="use50397"
             y="134.765"
             x="418.92599"
             xlink:href="#textext-1c722199-11"
             width="100%"
             height="100%" />
        </g>
        <g
           id="g50399"
           style="fill:#000000;fill-opacity:1">
          <use
             id="use50401"
             y="134.765"
             x="422.672"
             xlink:href="#textext-1c722199-2"
             width="100%"
             height="100%" />
        </g>
        <g
           id="g50403"
           style="fill:#000000;fill-opacity:1">
          <use
             id="use50405"
             y="134.765"
             x="422.80151"
             xlink:href="#textext-1c722199-1"
             width="100%"
             height="100%" />
        </g>
        <g
           id="g50407"
           style="fill:#000000;fill-opacity:1">
          <use
             id="use50409"
             y="134.765"
             x="428.504"
             xlink:href="#textext-1c722199-12"
             width="100%"
             height="100%" />
        </g>
        <g
           id="g50411"
           style="fill:#000000;fill-opacity:1">
          <use
             id="use50413"
             y="134.765"
             x="432.37799"
             xlink:href="#textext-1c722199-5"
             width="100%"
             height="100%" />
        </g>
        <g
           id="g50415"
           style="fill:#000000;fill-opacity:1">
          <use
             id="use50417"
             y="136.259"
             x="440.659"
             xlink:href="#textext-1c722199-7"
             width="100%"
             height="100%" />
        </g>
        <g
           id="g50419"
           style="fill:#000000;fill-opacity:1">
          <use
             id="use50421"
             y="134.765"
             x="444.85699"
             xlink:href="#textext-1c722199-11"
             width="100%"
             height="100%" />
        </g>
        <g
           id="g50423"
           style="fill:#000000;fill-opacity:1">
          <use
             id="use50425"
             y="134.765"
             x="448.603"
             xlink:href="#textext-1c722199-2"
             width="100%"
             height="100%" />
        </g>
        <g
           id="g50427"
           style="fill:#000000;fill-opacity:1">
          <use
             id="use50429"
             y="134.765"
             x="448.73251"
             xlink:href="#textext-1c722199-1"
             width="100%"
             height="100%" />
        </g>
        <g
           id="g50431"
           style="fill:#000000;fill-opacity:1">
          <use
             id="use50433"
             y="134.765"
             x="454.435"
             xlink:href="#textext-1c722199-12"
             width="100%"
             height="100%" />
        </g>
        <g
           id="g50435"
           style="fill:#000000;fill-opacity:1">
          <use
             id="use50437"
             y="134.765"
             x="458.30899"
             xlink:href="#textext-1c722199-17"
             width="100%"
             height="100%" />
        </g>
      </g>
    </g>
  </g>
</svg>
