<?xml version="1.0" encoding="UTF-8" standalone="no"?>
<!-- Created with Inkscape (http://www.inkscape.org/) -->

<svg
   xmlns:ns0="http://www.iki.fi/pav/software/textext/"
   xmlns:dc="http://purl.org/dc/elements/1.1/"
   xmlns:cc="http://creativecommons.org/ns#"
   xmlns:rdf="http://www.w3.org/1999/02/22-rdf-syntax-ns#"
   xmlns:svg="http://www.w3.org/2000/svg"
   xmlns="http://www.w3.org/2000/svg"
   xmlns:xlink="http://www.w3.org/1999/xlink"
   xmlns:sodipodi="http://sodipodi.sourceforge.net/DTD/sodipodi-0.dtd"
   xmlns:inkscape="http://www.inkscape.org/namespaces/inkscape"
   width="210.53816mm"
   height="36.382298mm"
   viewBox="0 0 746.00136 128.91365"
   id="svg2"
   version="1.1"
   inkscape:version="0.91 r13725"
   sodipodi:docname="propuesta.svg">
  <sodipodi:namedview
     id="base"
     pagecolor="#ffffff"
     bordercolor="#666666"
     borderopacity="1.0"
     inkscape:pageopacity="0.0"
     inkscape:pageshadow="2"
     inkscape:zoom="0.27513354"
     inkscape:cx="160.61589"
     inkscape:cy="191.43621"
     inkscape:document-units="px"
     inkscape:current-layer="layer2"
     showgrid="false"
     inkscape:window-width="1280"
     inkscape:window-height="751"
     inkscape:window-x="0"
     inkscape:window-y="0"
     inkscape:window-maximized="1"
     fit-margin-top="0"
     fit-margin-left="0"
     fit-margin-right="0"
     fit-margin-bottom="0" />
  <defs
     id="defs4">
    <marker
       inkscape:isstock="true"
       style="overflow:visible"
       id="Arrow1Send"
       refX="0"
       refY="0"
       orient="auto"
       inkscape:stockid="Arrow1Send">
      <path
         inkscape:connector-curvature="0"
         transform="matrix(-0.2,0,0,-0.2,-1.2,0)"
         style="fill:#000000;fill-opacity:1;fill-rule:evenodd;stroke:#000000;stroke-width:1pt;stroke-opacity:1"
         d="M 0,0 5,-5 -12.5,0 5,5 0,0 Z"
         id="path16419" />
    </marker>
    <marker
       inkscape:isstock="true"
       style="overflow:visible"
       id="Arrow1Sstart"
       refX="0"
       refY="0"
       orient="auto"
       inkscape:stockid="Arrow1Sstart">
      <path
         inkscape:connector-curvature="0"
         transform="matrix(0.2,0,0,0.2,1.2,0)"
         style="fill:#000000;fill-opacity:1;fill-rule:evenodd;stroke:#000000;stroke-width:1pt;stroke-opacity:1"
         d="M 0,0 5,-5 -12.5,0 5,5 0,0 Z"
         id="path16416" />
    </marker>
    <defs
       id="defs8102">
      <g
         id="g8104">
        <symbol
           style="overflow:visible"
           overflow="visible"
           id="textext-f58730be-0">
          <path
             inkscape:connector-curvature="0"
             style="stroke:none"
             d=""
             id="path8107" />
        </symbol>
        <symbol
           style="overflow:visible"
           overflow="visible"
           id="textext-f58730be-1">
          <path
             inkscape:connector-curvature="0"
             style="stroke:none"
             d="m 3.484375,-3.875 -1.28125,-0.296875 c -0.625,-0.15625 -1,-0.6875 -1,-1.265625 0,-0.703125 0.53125,-1.3125 1.3125,-1.3125 1.65625,0 1.875,1.640625 1.9375,2.078125 0.015625,0.0625 0.015625,0.125 0.125,0.125 0.125,0 0.125,-0.046875 0.125,-0.234375 l 0,-2 c 0,-0.171875 0,-0.25 -0.109375,-0.25 -0.0625,0 -0.078125,0.015625 -0.140625,0.140625 l -0.359375,0.5625 C 3.796875,-6.625 3.390625,-7.03125 2.5,-7.03125 c -1.109375,0 -1.9375,0.875 -1.9375,1.9375 0,0.828125 0.53125,1.5625 1.296875,1.828125 0.109375,0.03125 0.625,0.15625 1.328125,0.328125 0.265625,0.0625 0.5625,0.140625 0.84375,0.5 0.203125,0.265625 0.3125,0.59375 0.3125,0.921875 0,0.703125 -0.5,1.421875 -1.34375,1.421875 -0.28125,0 -1.046875,-0.046875 -1.578125,-0.53125 C 0.84375,-1.171875 0.8125,-1.796875 0.8125,-2.15625 0.796875,-2.265625 0.71875,-2.265625 0.6875,-2.265625 c -0.125,0 -0.125,0.078125 -0.125,0.25 l 0,2 c 0,0.171875 0,0.234375 0.109375,0.234375 0.0625,0 0.078125,-0.015625 0.140625,-0.125 0,-0.015625 0.03125,-0.046875 0.359375,-0.578125 0.3125,0.34375 0.953125,0.703125 1.84375,0.703125 1.15625,0 1.953125,-0.96875 1.953125,-2.078125 0,-0.984375 -0.65625,-1.8125 -1.484375,-2.015625 z m 0,0"
             id="path8110" />
        </symbol>
        <symbol
           style="overflow:visible"
           overflow="visible"
           id="textext-f58730be-2">
          <path
             inkscape:connector-curvature="0"
             style="stroke:none"
             d="m 5.796875,-2.578125 -0.25,0 c -0.109375,1.015625 -0.25,2.265625 -2,2.265625 l -0.8125,0 C 2.265625,-0.3125 2.25,-0.375 2.25,-0.703125 l 0,-5.3125 C 2.25,-6.359375 2.25,-6.5 3.1875,-6.5 l 0.328125,0 0,-0.3125 C 3.15625,-6.78125 2.25,-6.78125 1.84375,-6.78125 c -0.390625,0 -1.171875,0 -1.515625,-0.03125 l 0,0.3125 0.234375,0 c 0.765625,0 0.796875,0.109375 0.796875,0.46875 l 0,5.25 c 0,0.359375 -0.03125,0.46875 -0.796875,0.46875 l -0.234375,0 0,0.3125 5.1875,0 z m 0,0"
             id="path8113" />
        </symbol>
        <symbol
           style="overflow:visible"
           overflow="visible"
           id="textext-f58730be-3">
          <path
             inkscape:connector-curvature="0"
             style="stroke:none"
             d="M 2.40625,-6.59375 C 2.3125,-6.8125 2.28125,-6.8125 2.046875,-6.8125 l -1.671875,0 0,0.3125 0.234375,0 c 0.765625,0 0.78125,0.109375 0.78125,0.46875 l 0,4.984375 c 0,0.265625 0,0.734375 -1.015625,0.734375 L 0.375,0 c 0.34375,-0.015625 0.828125,-0.03125 1.15625,-0.03125 0.328125,0 0.828125,0.015625 1.171875,0.03125 l 0,-0.3125 c -1.03125,0 -1.03125,-0.46875 -1.03125,-0.734375 l 0,-5.375 0.015625,0 2.40625,6.203125 C 4.140625,-0.09375 4.1875,0 4.28125,0 4.390625,0 4.421875,-0.078125 4.46875,-0.1875 L 6.921875,-6.5 l 0,5.71875 c 0,0.359375 -0.015625,0.46875 -0.78125,0.46875 l -0.234375,0 0,0.3125 c 0.359375,-0.03125 1.046875,-0.03125 1.4375,-0.03125 0.375,0 1.046875,0 1.421875,0.03125 l 0,-0.3125 -0.25,0 c -0.765625,0 -0.78125,-0.109375 -0.78125,-0.46875 l 0,-5.25 C 7.734375,-6.390625 7.75,-6.5 8.515625,-6.5 l 0.25,0 0,-0.3125 -1.6875,0 C 6.8125,-6.8125 6.8125,-6.796875 6.75,-6.625 L 4.5625,-1 Z m 0,0"
             id="path8116" />
        </symbol>
      </g>
    </defs>
  </defs>
  <metadata
     id="metadata7">
    <rdf:RDF>
      <cc:Work
         rdf:about="">
        <dc:format>image/svg+xml</dc:format>
        <dc:type
           rdf:resource="http://purl.org/dc/dcmitype/StillImage" />
        <dc:title></dc:title>
      </cc:Work>
    </rdf:RDF>
  </metadata>
  <g
     transform="translate(-45.533309,-58.205531)"
     id="layer1"
     inkscape:groupmode="layer"
     inkscape:label="Layer 1">
    <path
       inkscape:connector-curvature="0"
       id="path8082"
       d="m 325.15891,91.456506 56.35713,25.702624 -56.35713,27.58905 z"
       style="fill:#00ff00;fill-opacity:0.72941176;fill-rule:evenodd;stroke:#00ff00;stroke-width:0.46686786px;stroke-linecap:butt;stroke-linejoin:miter;stroke-opacity:0.72941176" />
    <path
       inkscape:connector-curvature="0"
       id="path8078"
       d="m 184.82667,92.192758 65.36149,53.356322 74.36539,-53.689801 1.00043,53.356321 -75.69929,-53.022842 -64.69455,53.356322 z"
       style="fill:#00ff00;fill-opacity:0.72941176;fill-rule:evenodd;stroke:#00ff00;stroke-width:0.46686786px;stroke-linecap:butt;stroke-linejoin:miter;stroke-opacity:0.72941176" />
    <rect
       y="91.859276"
       x="45.766743"
       height="54.690235"
       width="138.72644"
       id="rect8076"
       style="opacity:1;fill:#00ff00;fill-opacity:0.73015873;stroke:#00ff00;stroke-width:0.46686786;stroke-linecap:butt;stroke-linejoin:miter;stroke-miterlimit:10;stroke-dasharray:none;stroke-dashoffset:0;stroke-opacity:1" />
    <rect
       y="88.932098"
       x="177.68205"
       height="61.145927"
       width="163.5217"
       id="rect8068"
       style="opacity:1;fill:none;fill-opacity:0.42857145;stroke:#000000;stroke-width:2.08131671;stroke-linecap:butt;stroke-linejoin:miter;stroke-miterlimit:10;stroke-dasharray:16.65053492, 2.08131686;stroke-dashoffset:0;stroke-opacity:1" />
    <ellipse
       ry="26.678164"
       rx="3.6682475"
       cy="119.20438"
       cx="250.18816"
       id="path8070"
       style="opacity:1;fill:#d5f6ff;fill-opacity:0.94709018;stroke:#000000;stroke-width:0.46686786;stroke-linecap:butt;stroke-linejoin:miter;stroke-miterlimit:10;stroke-dasharray:none;stroke-dashoffset:0;stroke-opacity:1" />
    <ellipse
       style="opacity:1;fill:#d5f6ff;fill-opacity:0.978836;stroke:#000000;stroke-width:0.46686786;stroke-linecap:butt;stroke-linejoin:miter;stroke-miterlimit:10;stroke-dasharray:none;stroke-dashoffset:0;stroke-opacity:1"
       id="ellipse8072"
       cx="325.24417"
       cy="118.22267"
       rx="3.6682475"
       ry="26.678164" />
    <ellipse
       style="opacity:1;fill:#d5f6ff;fill-opacity:0.96825406;stroke:#000000;stroke-width:0.46686786;stroke-linecap:butt;stroke-linejoin:miter;stroke-miterlimit:10;stroke-dasharray:none;stroke-dashoffset:0;stroke-opacity:1"
       id="ellipse8074"
       cx="184.82664"
       cy="119.20438"
       rx="3.6682475"
       ry="26.678164" />
    <rect
       y="94.066002"
       x="284.85995"
       height="49.544193"
       width="5.8587036"
       id="rect8080"
       style="opacity:1;fill:#ff0000;fill-opacity:0.96825406;stroke:#000000;stroke-width:0.2772741;stroke-linecap:butt;stroke-linejoin:miter;stroke-miterlimit:10;stroke-dasharray:none;stroke-dashoffset:0;stroke-opacity:0.72941176" />
    <g
       transform="matrix(2.251206,0,0,2.251206,-240.78152,-229.05307)"
       id="textext-f58730be-4">
      <g
         style="fill:#000000;fill-opacity:1"
         id="g8119">
        <use
           height="100%"
           width="100%"
           xlink:href="#textext-f58730be-1"
           x="223.43201"
           y="134.765"
           id="use8121" />
        <use
           height="100%"
           width="100%"
           xlink:href="#textext-f58730be-2"
           x="228.96722"
           y="134.765"
           id="use8123" />
        <use
           height="100%"
           width="100%"
           xlink:href="#textext-f58730be-3"
           x="235.19385"
           y="134.765"
           id="use8125" />
      </g>
    </g>
  </g>
  <g
     style="display:none"
     inkscape:label="Layer 3"
     id="layer3"
     inkscape:groupmode="layer">
    <g
       transform="translate(-45.533309,-55.796271)"
       id="g18009">
      <g
         transform="matrix(1.7855838,0,0,1.7855838,-663.47689,-463.51596)"
         style="display:inline"
         id="g12019">
        <g
           style="fill:#999999;stroke:#000000;stroke-opacity:1"
           id="g11455"
           transform="matrix(-0.28065366,0,0,0.28065366,689.90604,346.44536)">
          <path
             sodipodi:nodetypes="ccccc"
             inkscape:connector-curvature="0"
             id="path11457"
             d="m 354.87384,-27.87271 -16.77894,9.538328 2e-5,-111.516128 16.65265,9.06227 z"
             style="fill:#999999;fill-rule:evenodd;stroke:#000000;stroke-width:1px;stroke-linecap:butt;stroke-linejoin:miter;stroke-opacity:1" />
          <path
             sodipodi:nodetypes="cccc"
             inkscape:connector-curvature="0"
             id="path11459"
             d="m 337.67505,-130.16012 -45.2176,0 -0.0349,112.161715 45.18942,0"
             style="fill:#999999;fill-rule:evenodd;stroke:#000000;stroke-width:1px;stroke-linecap:butt;stroke-linejoin:miter;stroke-opacity:1" />
        </g>
        <path
           style="fill:none;fill-rule:evenodd;stroke:#000000;stroke-width:0.28065369;stroke-linecap:butt;stroke-linejoin:miter;stroke-miterlimit:4;stroke-dasharray:none;stroke-opacity:1"
           d="m 589.18994,315.61284 2.83318,-0.006"
           id="path11461"
           inkscape:connector-curvature="0"
           sodipodi:nodetypes="cc" />
        <g
           transform="matrix(0.28065366,0,0,0.28065366,437.96384,347.39611)"
           id="g11463">
          <path
             sodipodi:nodetypes="sssss"
             inkscape:connector-curvature="0"
             id="path11465"
             d="m 546.6859,-77.178108 c 0,19.928689 -3.48217,36.084083 -7.77764,36.08408 -4.29547,-2.3e-5 -7.77763,-16.155409 -7.77763,-36.08408 0,-19.928672 3.48216,-36.084062 7.77763,-36.084082 4.29547,0 7.77764,16.155392 7.77764,36.084082 z"
             style="opacity:1;fill:#ffffff;fill-opacity:1;stroke:#000000;stroke-width:1.00000012;stroke-linecap:butt;stroke-linejoin:miter;stroke-miterlimit:4;stroke-dasharray:none;stroke-dashoffset:0;stroke-opacity:1" />
          <path
             style="fill:none;fill-rule:evenodd;stroke:#000000;stroke-width:1.00000012;stroke-linecap:butt;stroke-linejoin:miter;stroke-miterlimit:4;stroke-dasharray:none;stroke-opacity:1"
             d="m 539.41961,-41.087946 9.38011,0.01253 c 4.40401,-0.01861 7.88618,-16.174002 7.88618,-36.102691 0,-19.92869 -3.48217,-36.084083 -7.77764,-36.084083"
             id="path11467"
             inkscape:connector-curvature="0"
             sodipodi:nodetypes="ccsc" />
        </g>
        <path
           style="opacity:1;fill:#ececec;fill-opacity:1;stroke:#000000;stroke-width:0.08433418;stroke-linecap:butt;stroke-linejoin:miter;stroke-miterlimit:4;stroke-dasharray:none;stroke-dashoffset:0;stroke-opacity:1"
           d="m 590.12193,335.32539 c 1.4542,-2.52532 1.91223,-11.11869 0.8749,-16.41481 -0.2074,-1.05893 -0.59397,-2.28336 -0.8749,-2.77121 l -0.2064,-0.35842 1.11784,0 c 1.10942,0 1.11952,0.002 1.33988,0.23191 0.80368,0.83948 1.3799,3.64854 1.59167,7.75936 0.25195,4.89085 -0.46463,10.29832 -1.53711,11.59942 l -0.25732,0.31217 -1.12748,0 -1.12748,0 0.2064,-0.35842 z"
           id="path11469"
           inkscape:connector-curvature="0" />
        <g
           ns0:text="CCD"
           ns0:preamble="/Users/Santiago/Dropbox/Faustos/Master 3/Focus poster/Tikzposter (extended example)/preamble.ini"
           transform="matrix(0.51023461,0,0,0.51023461,479.97914,237.92111)"
           id="g11471">
          <defs
             id="defs11473">
            <g
               id="g11475">
              <symbol
                 style="overflow:visible"
                 overflow="visible"
                 id="symbol11477">
                <path
                   inkscape:connector-curvature="0"
                   style="stroke:none"
                   d=""
                   id="path11479" />
              </symbol>
              <symbol
                 style="overflow:visible"
                 overflow="visible"
                 id="symbol11481">
                <path
                   inkscape:connector-curvature="0"
                   style="stroke:none"
                   d="m 0.5625,-3.40625 c 0,2.0625 1.609375,3.625 3.46875,3.625 1.625,0 2.59375,-1.390625 2.59375,-2.546875 C 6.625,-2.421875 6.625,-2.5 6.5,-2.5 6.390625,-2.5 6.390625,-2.4375 6.375,-2.328125 6.296875,-0.90625 5.234375,-0.09375 4.140625,-0.09375 c -0.609375,0 -2.5625,-0.328125 -2.5625,-3.3125 0,-2.96875 1.953125,-3.3125 2.5625,-3.3125 1.078125,0 1.96875,0.90625 2.171875,2.359375 0.015625,0.140625 0.015625,0.171875 0.15625,0.171875 0.15625,0 0.15625,-0.03125 0.15625,-0.234375 l 0,-2.359375 c 0,-0.171875 0,-0.25 -0.109375,-0.25 -0.03125,0 -0.078125,0 -0.15625,0.125 l -0.5,0.734375 C 5.5,-6.53125 4.984375,-7.03125 4.03125,-7.03125 c -1.875,0 -3.46875,1.59375 -3.46875,3.625 z m 0,0"
                   id="path11483" />
              </symbol>
              <symbol
                 style="overflow:visible"
                 overflow="visible"
                 id="symbol11485">
                <path
                   inkscape:connector-curvature="0"
                   style="stroke:none"
                   d="m 0.34375,-6.8125 0,0.3125 0.25,0 c 0.765625,0 0.78125,0.109375 0.78125,0.46875 l 0,5.25 c 0,0.359375 -0.015625,0.46875 -0.78125,0.46875 l -0.25,0 0,0.3125 L 4,0 C 5.671875,0 7.046875,-1.46875 7.046875,-3.34375 7.046875,-5.25 5.703125,-6.8125 4,-6.8125 Z m 2.375,6.5 C 2.25,-0.3125 2.234375,-0.375 2.234375,-0.703125 l 0,-5.390625 C 2.234375,-6.4375 2.25,-6.5 2.71875,-6.5 l 1,0 c 0.625,0 1.3125,0.21875 1.8125,0.921875 0.4375,0.59375 0.515625,1.453125 0.515625,2.234375 0,1.09375 -0.1875,1.703125 -0.546875,2.1875 -0.203125,0.265625 -0.765625,0.84375 -1.765625,0.84375 z m 0,0"
                   id="path11487" />
              </symbol>
            </g>
          </defs>
          <g
             id="g11489">
            <g
               style="fill:#000000;fill-opacity:1"
               id="g11491">
              <use
                 height="100%"
                 width="100%"
                 xlink:href="#textext-93af552d-1"
                 x="223.43201"
                 y="134.765"
                 id="use11493" />
              <use
                 height="100%"
                 width="100%"
                 xlink:href="#textext-93af552d-1"
                 x="230.62698"
                 y="134.765"
                 id="use11495" />
              <use
                 height="100%"
                 width="100%"
                 xlink:href="#textext-93af552d-2"
                 x="237.82198"
                 y="134.765"
                 id="use11497" />
            </g>
          </g>
        </g>
        <g
           transform="matrix(-0.28065366,0,0,0.28065366,689.90604,346.44536)"
           id="g17875"
           style="fill:#999999;stroke:#000000;stroke-opacity:1">
          <path
             style="fill:#999999;fill-rule:evenodd;stroke:#000000;stroke-width:1px;stroke-linecap:butt;stroke-linejoin:miter;stroke-opacity:1"
             d="m 354.87384,-27.87271 -16.77894,9.538328 2e-5,-111.516128 16.65265,9.06227 z"
             id="path17877"
             inkscape:connector-curvature="0"
             sodipodi:nodetypes="ccccc" />
          <path
             style="fill:#999999;fill-rule:evenodd;stroke:#000000;stroke-width:1px;stroke-linecap:butt;stroke-linejoin:miter;stroke-opacity:1"
             d="m 337.67505,-130.16012 -45.2176,0 -0.0349,112.161715 45.18942,0"
             id="path17879"
             inkscape:connector-curvature="0"
             sodipodi:nodetypes="cccc" />
        </g>
        <path
           sodipodi:nodetypes="cc"
           inkscape:connector-curvature="0"
           id="path17881"
           d="m 589.18994,315.61284 2.83318,-0.006"
           style="fill:none;fill-rule:evenodd;stroke:#000000;stroke-width:0.28065369;stroke-linecap:butt;stroke-linejoin:miter;stroke-miterlimit:4;stroke-dasharray:none;stroke-opacity:1" />
        <g
           id="g17883"
           transform="matrix(0.28065366,0,0,0.28065366,437.96384,347.39611)">
          <path
             style="opacity:1;fill:#ffffff;fill-opacity:1;stroke:#000000;stroke-width:1.00000012;stroke-linecap:butt;stroke-linejoin:miter;stroke-miterlimit:4;stroke-dasharray:none;stroke-dashoffset:0;stroke-opacity:1"
             d="m 546.6859,-77.178108 c 0,19.928689 -3.48217,36.084083 -7.77764,36.08408 -4.29547,-2.3e-5 -7.77763,-16.155409 -7.77763,-36.08408 0,-19.928672 3.48216,-36.084062 7.77763,-36.084082 4.29547,0 7.77764,16.155392 7.77764,36.084082 z"
             id="path17885"
             inkscape:connector-curvature="0"
             sodipodi:nodetypes="sssss" />
          <path
             sodipodi:nodetypes="ccsc"
             inkscape:connector-curvature="0"
             id="path17887"
             d="m 539.41961,-41.087946 9.38011,0.01253 c 4.40401,-0.01861 7.88618,-16.174002 7.88618,-36.102691 0,-19.92869 -3.48217,-36.084083 -7.77764,-36.084083"
             style="fill:none;fill-rule:evenodd;stroke:#000000;stroke-width:1.00000012;stroke-linecap:butt;stroke-linejoin:miter;stroke-miterlimit:4;stroke-dasharray:none;stroke-opacity:1" />
        </g>
        <path
           inkscape:connector-curvature="0"
           id="path17889"
           d="m 590.12193,335.32539 c 1.4542,-2.52532 1.91223,-11.11869 0.8749,-16.41481 -0.2074,-1.05893 -0.59397,-2.28336 -0.8749,-2.77121 l -0.2064,-0.35842 1.11784,0 c 1.10942,0 1.11952,0.002 1.33988,0.23191 0.80368,0.83948 1.3799,3.64854 1.59167,7.75936 0.25195,4.89085 -0.46463,10.29832 -1.53711,11.59942 l -0.25732,0.31217 -1.12748,0 -1.12748,0 0.2064,-0.35842 z"
           style="opacity:1;fill:#ececec;fill-opacity:1;stroke:#000000;stroke-width:0.08433418;stroke-linecap:butt;stroke-linejoin:miter;stroke-miterlimit:4;stroke-dasharray:none;stroke-dashoffset:0;stroke-opacity:1" />
      </g>
      <g
         id="g16299"
         ns0:preamble="/Users/Santiago/Dropbox/Faustos/Master 3/Focus poster/Tikzposter (extended example)/preamble.ini"
         ns0:text="CCD"
         transform="matrix(2.1130174,0,0,2.1130174,-92.736145,-200.75871)">
        <defs
           id="defs16301">
          <g
             id="g16303">
            <symbol
               id="textext-1d4b0994-0"
               overflow="visible"
               style="overflow:visible">
              <path
                 id="path16306"
                 d=""
                 style="stroke:none"
                 inkscape:connector-curvature="0" />
            </symbol>
            <symbol
               id="textext-1d4b0994-1"
               overflow="visible"
               style="overflow:visible">
              <path
                 id="path16309"
                 d="m 0.5625,-3.40625 c 0,2.0625 1.609375,3.625 3.46875,3.625 1.625,0 2.59375,-1.390625 2.59375,-2.546875 C 6.625,-2.421875 6.625,-2.5 6.5,-2.5 6.390625,-2.5 6.390625,-2.4375 6.375,-2.328125 6.296875,-0.90625 5.234375,-0.09375 4.140625,-0.09375 c -0.609375,0 -2.5625,-0.328125 -2.5625,-3.3125 0,-2.96875 1.953125,-3.3125 2.5625,-3.3125 1.078125,0 1.96875,0.90625 2.171875,2.359375 0.015625,0.140625 0.015625,0.171875 0.15625,0.171875 0.15625,0 0.15625,-0.03125 0.15625,-0.234375 l 0,-2.359375 c 0,-0.171875 0,-0.25 -0.109375,-0.25 -0.03125,0 -0.078125,0 -0.15625,0.125 l -0.5,0.734375 C 5.5,-6.53125 4.984375,-7.03125 4.03125,-7.03125 c -1.875,0 -3.46875,1.59375 -3.46875,3.625 z m 0,0"
                 style="stroke:none"
                 inkscape:connector-curvature="0" />
            </symbol>
            <symbol
               id="textext-1d4b0994-2"
               overflow="visible"
               style="overflow:visible">
              <path
                 id="path16312"
                 d="m 0.34375,-6.8125 0,0.3125 0.25,0 c 0.765625,0 0.78125,0.109375 0.78125,0.46875 l 0,5.25 c 0,0.359375 -0.015625,0.46875 -0.78125,0.46875 l -0.25,0 0,0.3125 L 4,0 C 5.671875,0 7.046875,-1.46875 7.046875,-3.34375 7.046875,-5.25 5.703125,-6.8125 4,-6.8125 Z m 2.375,6.5 C 2.25,-0.3125 2.234375,-0.375 2.234375,-0.703125 l 0,-5.390625 C 2.234375,-6.4375 2.25,-6.5 2.71875,-6.5 l 1,0 c 0.625,0 1.3125,0.21875 1.8125,0.921875 0.4375,0.59375 0.515625,1.453125 0.515625,2.234375 0,1.09375 -0.1875,1.703125 -0.546875,2.1875 -0.203125,0.265625 -0.765625,0.84375 -1.765625,0.84375 z m 0,0"
                 style="stroke:none"
                 inkscape:connector-curvature="0" />
            </symbol>
          </g>
        </defs>
        <g
           id="textext-1d4b0994-3">
          <g
             id="g16315"
             style="fill:#000000;fill-opacity:1">
            <use
               id="use16317"
               y="134.765"
               x="223.43201"
               xlink:href="#textext-1d4b0994-1"
               width="100%"
               height="100%" />
            <use
               id="use16319"
               y="134.765"
               x="230.62698"
               xlink:href="#textext-1d4b0994-1"
               width="100%"
               height="100%" />
            <use
               id="use16321"
               y="134.765"
               x="237.82198"
               xlink:href="#textext-1d4b0994-2"
               width="100%"
               height="100%" />
          </g>
        </g>
      </g>
    </g>
  </g>
  <g
     transform="translate(-45.533309,-58.205531)"
     style="display:inline"
     inkscape:label="Layer 2"
     id="layer2"
     inkscape:groupmode="layer">
    <rect
       y="59.139267"
       x="385.33853"
       height="120.73159"
       width="308.43149"
       id="rect8084"
       style="opacity:1;fill:none;fill-opacity:0.72941176;stroke:#000000;stroke-width:1.86747146;stroke-linecap:butt;stroke-linejoin:miter;stroke-miterlimit:10;stroke-dasharray:none;stroke-dashoffset:0;stroke-opacity:1" />
    <g
       transform="translate(-2.857143,-1.428571)"
       id="g18146">
      <g
         transform="matrix(1.7855838,0,0,1.7855838,-292.7509,-461.48424)"
         style="display:inline"
         id="g18056">
        <g
           style="fill:#999999;stroke:#000000;stroke-opacity:1"
           id="g18058"
           transform="matrix(-0.28065366,0,0,0.28065366,689.90604,346.44536)">
          <path
             sodipodi:nodetypes="ccccc"
             inkscape:connector-curvature="0"
             id="path18060"
             d="m 354.87384,-27.87271 -16.77894,9.538328 2e-5,-111.516128 16.65265,9.06227 z"
             style="fill:#999999;fill-rule:evenodd;stroke:#000000;stroke-width:1px;stroke-linecap:butt;stroke-linejoin:miter;stroke-opacity:1" />
          <path
             sodipodi:nodetypes="cccc"
             inkscape:connector-curvature="0"
             id="path18062"
             d="m 337.67505,-130.16012 -45.2176,0 -0.0349,112.161715 45.18942,0"
             style="fill:#999999;fill-rule:evenodd;stroke:#000000;stroke-width:1px;stroke-linecap:butt;stroke-linejoin:miter;stroke-opacity:1" />
        </g>
        <path
           style="fill:none;fill-rule:evenodd;stroke:#000000;stroke-width:0.28065369;stroke-linecap:butt;stroke-linejoin:miter;stroke-miterlimit:4;stroke-dasharray:none;stroke-opacity:1"
           d="m 589.18994,315.61284 2.83318,-0.006"
           id="path18064"
           inkscape:connector-curvature="0"
           sodipodi:nodetypes="cc" />
        <g
           transform="matrix(0.28065366,0,0,0.28065366,437.96384,347.39611)"
           id="g18066">
          <path
             sodipodi:nodetypes="sssss"
             inkscape:connector-curvature="0"
             id="path18068"
             d="m 546.6859,-77.178108 c 0,19.928689 -3.48217,36.084083 -7.77764,36.08408 -4.29547,-2.3e-5 -7.77763,-16.155409 -7.77763,-36.08408 0,-19.928672 3.48216,-36.084062 7.77763,-36.084082 4.29547,0 7.77764,16.155392 7.77764,36.084082 z"
             style="opacity:1;fill:#ffffff;fill-opacity:1;stroke:#000000;stroke-width:1.00000012;stroke-linecap:butt;stroke-linejoin:miter;stroke-miterlimit:4;stroke-dasharray:none;stroke-dashoffset:0;stroke-opacity:1" />
          <path
             style="fill:none;fill-rule:evenodd;stroke:#000000;stroke-width:1.00000012;stroke-linecap:butt;stroke-linejoin:miter;stroke-miterlimit:4;stroke-dasharray:none;stroke-opacity:1"
             d="m 539.41961,-41.087946 9.38011,0.01253 c 4.40401,-0.01861 7.88618,-16.174002 7.88618,-36.102691 0,-19.92869 -3.48217,-36.084083 -7.77764,-36.084083"
             id="path18070"
             inkscape:connector-curvature="0"
             sodipodi:nodetypes="ccsc" />
        </g>
        <path
           style="opacity:1;fill:#ececec;fill-opacity:1;stroke:#000000;stroke-width:0.08433418;stroke-linecap:butt;stroke-linejoin:miter;stroke-miterlimit:4;stroke-dasharray:none;stroke-dashoffset:0;stroke-opacity:1"
           d="m 590.12193,335.32539 c 1.4542,-2.52532 1.91223,-11.11869 0.8749,-16.41481 -0.2074,-1.05893 -0.59397,-2.28336 -0.8749,-2.77121 l -0.2064,-0.35842 1.11784,0 c 1.10942,0 1.11952,0.002 1.33988,0.23191 0.80368,0.83948 1.3799,3.64854 1.59167,7.75936 0.25195,4.89085 -0.46463,10.29832 -1.53711,11.59942 l -0.25732,0.31217 -1.12748,0 -1.12748,0 0.2064,-0.35842 z"
           id="path18072"
           inkscape:connector-curvature="0" />
        <g
           ns0:text="CCD"
           ns0:preamble="/Users/Santiago/Dropbox/Faustos/Master 3/Focus poster/Tikzposter (extended example)/preamble.ini"
           transform="matrix(0.51023461,0,0,0.51023461,479.97914,237.92111)"
           id="g18074">
          <defs
             id="defs18076">
            <g
               id="g18078">
              <symbol
                 style="overflow:visible"
                 overflow="visible"
                 id="symbol18080">
                <path
                   inkscape:connector-curvature="0"
                   style="stroke:none"
                   d=""
                   id="path18082" />
              </symbol>
              <symbol
                 style="overflow:visible"
                 overflow="visible"
                 id="symbol18084">
                <path
                   inkscape:connector-curvature="0"
                   style="stroke:none"
                   d="m 0.5625,-3.40625 c 0,2.0625 1.609375,3.625 3.46875,3.625 1.625,0 2.59375,-1.390625 2.59375,-2.546875 C 6.625,-2.421875 6.625,-2.5 6.5,-2.5 6.390625,-2.5 6.390625,-2.4375 6.375,-2.328125 6.296875,-0.90625 5.234375,-0.09375 4.140625,-0.09375 c -0.609375,0 -2.5625,-0.328125 -2.5625,-3.3125 0,-2.96875 1.953125,-3.3125 2.5625,-3.3125 1.078125,0 1.96875,0.90625 2.171875,2.359375 0.015625,0.140625 0.015625,0.171875 0.15625,0.171875 0.15625,0 0.15625,-0.03125 0.15625,-0.234375 l 0,-2.359375 c 0,-0.171875 0,-0.25 -0.109375,-0.25 -0.03125,0 -0.078125,0 -0.15625,0.125 l -0.5,0.734375 C 5.5,-6.53125 4.984375,-7.03125 4.03125,-7.03125 c -1.875,0 -3.46875,1.59375 -3.46875,3.625 z m 0,0"
                   id="path18086" />
              </symbol>
              <symbol
                 style="overflow:visible"
                 overflow="visible"
                 id="symbol18088">
                <path
                   inkscape:connector-curvature="0"
                   style="stroke:none"
                   d="m 0.34375,-6.8125 0,0.3125 0.25,0 c 0.765625,0 0.78125,0.109375 0.78125,0.46875 l 0,5.25 c 0,0.359375 -0.015625,0.46875 -0.78125,0.46875 l -0.25,0 0,0.3125 L 4,0 C 5.671875,0 7.046875,-1.46875 7.046875,-3.34375 7.046875,-5.25 5.703125,-6.8125 4,-6.8125 Z m 2.375,6.5 C 2.25,-0.3125 2.234375,-0.375 2.234375,-0.703125 l 0,-5.390625 C 2.234375,-6.4375 2.25,-6.5 2.71875,-6.5 l 1,0 c 0.625,0 1.3125,0.21875 1.8125,0.921875 0.4375,0.59375 0.515625,1.453125 0.515625,2.234375 0,1.09375 -0.1875,1.703125 -0.546875,2.1875 -0.203125,0.265625 -0.765625,0.84375 -1.765625,0.84375 z m 0,0"
                   id="path18090" />
              </symbol>
            </g>
          </defs>
          <g
             id="g18092">
            <g
               style="fill:#000000;fill-opacity:1"
               id="g18094">
              <use
                 height="100%"
                 width="100%"
                 xlink:href="#textext-93af552d-1"
                 x="223.43201"
                 y="134.765"
                 id="use18096" />
              <use
                 height="100%"
                 width="100%"
                 xlink:href="#textext-93af552d-1"
                 x="230.62698"
                 y="134.765"
                 id="use18098" />
              <use
                 height="100%"
                 width="100%"
                 xlink:href="#textext-93af552d-2"
                 x="237.82198"
                 y="134.765"
                 id="use18100" />
            </g>
          </g>
        </g>
        <g
           transform="matrix(-0.28065366,0,0,0.28065366,689.90604,346.44536)"
           id="g18102"
           style="fill:#999999;stroke:#000000;stroke-opacity:1">
          <path
             style="fill:#999999;fill-rule:evenodd;stroke:#000000;stroke-width:1px;stroke-linecap:butt;stroke-linejoin:miter;stroke-opacity:1"
             d="m 354.87384,-27.87271 -16.77894,9.538328 2e-5,-111.516128 16.65265,9.06227 z"
             id="path18104"
             inkscape:connector-curvature="0"
             sodipodi:nodetypes="ccccc" />
          <path
             style="fill:#999999;fill-rule:evenodd;stroke:#000000;stroke-width:1px;stroke-linecap:butt;stroke-linejoin:miter;stroke-opacity:1"
             d="m 337.67505,-130.16012 -45.2176,0 -0.0349,112.161715 45.18942,0"
             id="path18106"
             inkscape:connector-curvature="0"
             sodipodi:nodetypes="cccc" />
        </g>
        <path
           sodipodi:nodetypes="cc"
           inkscape:connector-curvature="0"
           id="path18108"
           d="m 589.18994,315.61284 2.83318,-0.006"
           style="fill:none;fill-rule:evenodd;stroke:#000000;stroke-width:0.28065369;stroke-linecap:butt;stroke-linejoin:miter;stroke-miterlimit:4;stroke-dasharray:none;stroke-opacity:1" />
        <g
           id="g18110"
           transform="matrix(0.28065366,0,0,0.28065366,437.96384,347.39611)">
          <path
             style="opacity:1;fill:#ffffff;fill-opacity:1;stroke:#000000;stroke-width:1.00000012;stroke-linecap:butt;stroke-linejoin:miter;stroke-miterlimit:4;stroke-dasharray:none;stroke-dashoffset:0;stroke-opacity:1"
             d="m 546.6859,-77.178108 c 0,19.928689 -3.48217,36.084083 -7.77764,36.08408 -4.29547,-2.3e-5 -7.77763,-16.155409 -7.77763,-36.08408 0,-19.928672 3.48216,-36.084062 7.77763,-36.084082 4.29547,0 7.77764,16.155392 7.77764,36.084082 z"
             id="path18112"
             inkscape:connector-curvature="0"
             sodipodi:nodetypes="sssss" />
          <path
             sodipodi:nodetypes="ccsc"
             inkscape:connector-curvature="0"
             id="path18114"
             d="m 539.41961,-41.087946 9.38011,0.01253 c 4.40401,-0.01861 7.88618,-16.174002 7.88618,-36.102691 0,-19.92869 -3.48217,-36.084083 -7.77764,-36.084083"
             style="fill:none;fill-rule:evenodd;stroke:#000000;stroke-width:1.00000012;stroke-linecap:butt;stroke-linejoin:miter;stroke-miterlimit:4;stroke-dasharray:none;stroke-opacity:1" />
        </g>
        <path
           inkscape:connector-curvature="0"
           id="path18116"
           d="m 590.12193,335.32539 c 1.4542,-2.52532 1.91223,-11.11869 0.8749,-16.41481 -0.2074,-1.05893 -0.59397,-2.28336 -0.8749,-2.77121 l -0.2064,-0.35842 1.11784,0 c 1.10942,0 1.11952,0.002 1.33988,0.23191 0.80368,0.83948 1.3799,3.64854 1.59167,7.75936 0.25195,4.89085 -0.46463,10.29832 -1.53711,11.59942 l -0.25732,0.31217 -1.12748,0 -1.12748,0 0.2064,-0.35842 z"
           style="opacity:1;fill:#ececec;fill-opacity:1;stroke:#000000;stroke-width:0.08433418;stroke-linecap:butt;stroke-linejoin:miter;stroke-miterlimit:4;stroke-dasharray:none;stroke-dashoffset:0;stroke-opacity:1" />
      </g>
      <g
         transform="matrix(2.1130174,0,0,2.1130174,276.97969,-197.97191)"
         ns0:text="CCD"
         ns0:preamble="/Users/Santiago/Dropbox/Faustos/Master 3/Focus poster/Tikzposter (extended example)/preamble.ini"
         id="g18118">
        <defs
           id="defs18120">
          <g
             id="g18122">
            <symbol
               style="overflow:visible"
               overflow="visible"
               id="symbol18124">
              <path
                 inkscape:connector-curvature="0"
                 style="stroke:none"
                 d=""
                 id="path18126" />
            </symbol>
            <symbol
               style="overflow:visible"
               overflow="visible"
               id="symbol18128">
              <path
                 inkscape:connector-curvature="0"
                 style="stroke:none"
                 d="m 0.5625,-3.40625 c 0,2.0625 1.609375,3.625 3.46875,3.625 1.625,0 2.59375,-1.390625 2.59375,-2.546875 C 6.625,-2.421875 6.625,-2.5 6.5,-2.5 6.390625,-2.5 6.390625,-2.4375 6.375,-2.328125 6.296875,-0.90625 5.234375,-0.09375 4.140625,-0.09375 c -0.609375,0 -2.5625,-0.328125 -2.5625,-3.3125 0,-2.96875 1.953125,-3.3125 2.5625,-3.3125 1.078125,0 1.96875,0.90625 2.171875,2.359375 0.015625,0.140625 0.015625,0.171875 0.15625,0.171875 0.15625,0 0.15625,-0.03125 0.15625,-0.234375 l 0,-2.359375 c 0,-0.171875 0,-0.25 -0.109375,-0.25 -0.03125,0 -0.078125,0 -0.15625,0.125 l -0.5,0.734375 C 5.5,-6.53125 4.984375,-7.03125 4.03125,-7.03125 c -1.875,0 -3.46875,1.59375 -3.46875,3.625 z m 0,0"
                 id="path18130" />
            </symbol>
            <symbol
               style="overflow:visible"
               overflow="visible"
               id="symbol18132">
              <path
                 inkscape:connector-curvature="0"
                 style="stroke:none"
                 d="m 0.34375,-6.8125 0,0.3125 0.25,0 c 0.765625,0 0.78125,0.109375 0.78125,0.46875 l 0,5.25 c 0,0.359375 -0.015625,0.46875 -0.78125,0.46875 l -0.25,0 0,0.3125 L 4,0 C 5.671875,0 7.046875,-1.46875 7.046875,-3.34375 7.046875,-5.25 5.703125,-6.8125 4,-6.8125 Z m 2.375,6.5 C 2.25,-0.3125 2.234375,-0.375 2.234375,-0.703125 l 0,-5.390625 C 2.234375,-6.4375 2.25,-6.5 2.71875,-6.5 l 1,0 c 0.625,0 1.3125,0.21875 1.8125,0.921875 0.4375,0.59375 0.515625,1.453125 0.515625,2.234375 0,1.09375 -0.1875,1.703125 -0.546875,2.1875 -0.203125,0.265625 -0.765625,0.84375 -1.765625,0.84375 z m 0,0"
                 id="path18134" />
            </symbol>
          </g>
        </defs>
        <g
           id="g18136">
          <g
             style="fill:#000000;fill-opacity:1"
             id="g18138">
            <use
               height="100%"
               width="100%"
               xlink:href="#textext-1d4b0994-1"
               x="223.43201"
               y="134.765"
               id="use18140" />
            <use
               height="100%"
               width="100%"
               xlink:href="#textext-1d4b0994-1"
               x="230.62698"
               y="134.765"
               id="use18142" />
            <use
               height="100%"
               width="100%"
               xlink:href="#textext-1d4b0994-2"
               x="237.82198"
               y="134.765"
               id="use18144" />
          </g>
        </g>
      </g>
    </g>
    <path
       style="fill:#00ff00;fill-opacity:0.72941176;fill-rule:evenodd;stroke:#00ff00;stroke-width:0.46686786px;stroke-linecap:butt;stroke-linejoin:miter;stroke-opacity:0.72941176"
       d="m 694.44462,91.456504 56.35713,25.702626 -56.35713,27.58905 z"
       id="path18193"
       inkscape:connector-curvature="0" />
    <g
       ns0:text="\\centering\nSistema desconocido que\\\\ debe ser caracterizado"
       ns0:preamble="/Users/Santiago/Dropbox/Faustos/Master 3/Focus poster/Tikzposter (extended example)/preamble.ini"
       transform="matrix(2.3852727,0,0,2.3852727,-391.35343,-220.58843)"
       id="g17558">
      <defs
         id="defs17560">
        <g
           id="g17562">
          <symbol
             style="overflow:visible"
             overflow="visible"
             id="textext-40cd2fc5-0">
            <path
               inkscape:connector-curvature="0"
               style="stroke:none"
               d=""
               id="path17565" />
          </symbol>
          <symbol
             style="overflow:visible"
             overflow="visible"
             id="textext-40cd2fc5-1">
            <path
               inkscape:connector-curvature="0"
               style="stroke:none"
               d="m 3.484375,-3.875 -1.28125,-0.296875 c -0.625,-0.15625 -1,-0.6875 -1,-1.265625 0,-0.703125 0.53125,-1.3125 1.3125,-1.3125 1.65625,0 1.875,1.640625 1.9375,2.078125 0.015625,0.0625 0.015625,0.125 0.125,0.125 0.125,0 0.125,-0.046875 0.125,-0.234375 l 0,-2 c 0,-0.171875 0,-0.25 -0.109375,-0.25 -0.0625,0 -0.078125,0.015625 -0.140625,0.140625 l -0.359375,0.5625 C 3.796875,-6.625 3.390625,-7.03125 2.5,-7.03125 c -1.109375,0 -1.9375,0.875 -1.9375,1.9375 0,0.828125 0.53125,1.5625 1.296875,1.828125 0.109375,0.03125 0.625,0.15625 1.328125,0.328125 0.265625,0.0625 0.5625,0.140625 0.84375,0.5 0.203125,0.265625 0.3125,0.59375 0.3125,0.921875 0,0.703125 -0.5,1.421875 -1.34375,1.421875 -0.28125,0 -1.046875,-0.046875 -1.578125,-0.53125 C 0.84375,-1.171875 0.8125,-1.796875 0.8125,-2.15625 0.796875,-2.265625 0.71875,-2.265625 0.6875,-2.265625 c -0.125,0 -0.125,0.078125 -0.125,0.25 l 0,2 c 0,0.171875 0,0.234375 0.109375,0.234375 0.0625,0 0.078125,-0.015625 0.140625,-0.125 0,-0.015625 0.03125,-0.046875 0.359375,-0.578125 0.3125,0.34375 0.953125,0.703125 1.84375,0.703125 1.15625,0 1.953125,-0.96875 1.953125,-2.078125 0,-0.984375 -0.65625,-1.8125 -1.484375,-2.015625 z m 0,0"
               id="path17568" />
          </symbol>
          <symbol
             style="overflow:visible"
             overflow="visible"
             id="textext-40cd2fc5-2">
            <path
               inkscape:connector-curvature="0"
               style="stroke:none"
               d="M 1.765625,-4.40625 0.375,-4.296875 l 0,0.3125 c 0.640625,0 0.734375,0.0625 0.734375,0.546875 l 0,2.6875 c 0,0.4375 -0.109375,0.4375 -0.78125,0.4375 l 0,0.3125 C 0.640625,-0.015625 1.1875,-0.03125 1.421875,-0.03125 1.78125,-0.03125 2.125,-0.015625 2.46875,0 l 0,-0.3125 c -0.671875,0 -0.703125,-0.046875 -0.703125,-0.4375 z m 0.03125,-1.734375 c 0,-0.3125 -0.234375,-0.53125 -0.515625,-0.53125 -0.3125,0 -0.53125,0.265625 -0.53125,0.53125 0,0.265625 0.21875,0.53125 0.53125,0.53125 0.28125,0 0.515625,-0.21875 0.515625,-0.53125 z m 0,0"
               id="path17571" />
          </symbol>
          <symbol
             style="overflow:visible"
             overflow="visible"
             id="textext-40cd2fc5-3">
            <path
               inkscape:connector-curvature="0"
               style="stroke:none"
               d="m 2.078125,-1.9375 c 0.21875,0.046875 1.03125,0.203125 1.03125,0.921875 0,0.5 -0.34375,0.90625 -1.125,0.90625 -0.84375,0 -1.203125,-0.5625 -1.390625,-1.421875 C 0.5625,-1.65625 0.5625,-1.6875 0.453125,-1.6875 c -0.125,0 -0.125,0.0625 -0.125,0.234375 l 0,1.328125 c 0,0.171875 0,0.234375 0.109375,0.234375 0.046875,0 0.0625,-0.015625 0.25,-0.203125 0.015625,-0.015625 0.015625,-0.03125 0.203125,-0.21875 0.4375,0.40625 0.890625,0.421875 1.09375,0.421875 1.140625,0 1.609375,-0.671875 1.609375,-1.390625 0,-0.515625 -0.296875,-0.828125 -0.421875,-0.9375 C 2.84375,-2.546875 2.453125,-2.625 2.03125,-2.703125 1.46875,-2.8125 0.8125,-2.9375 0.8125,-3.515625 c 0,-0.359375 0.25,-0.765625 1.109375,-0.765625 1.09375,0 1.15625,0.90625 1.171875,1.203125 0,0.09375 0.09375,0.09375 0.109375,0.09375 0.140625,0 0.140625,-0.046875 0.140625,-0.234375 l 0,-1.015625 c 0,-0.15625 0,-0.234375 -0.109375,-0.234375 -0.046875,0 -0.078125,0 -0.203125,0.125 -0.03125,0.03125 -0.125,0.125 -0.171875,0.15625 -0.375,-0.28125 -0.78125,-0.28125 -0.9375,-0.28125 -1.21875,0 -1.59375,0.671875 -1.59375,1.234375 0,0.34375 0.15625,0.625 0.421875,0.84375 0.328125,0.25 0.609375,0.3125 1.328125,0.453125 z m 0,0"
               id="path17574" />
          </symbol>
          <symbol
             style="overflow:visible"
             overflow="visible"
             id="textext-40cd2fc5-4">
            <path
               inkscape:connector-curvature="0"
               style="stroke:none"
               d="m 1.71875,-3.984375 1.4375,0 0,-0.3125 -1.4375,0 0,-1.828125 -0.25,0 c 0,0.8125 -0.296875,1.875 -1.28125,1.921875 l 0,0.21875 0.84375,0 0,2.75 c 0,1.21875 0.9375,1.34375 1.296875,1.34375 0.703125,0 0.984375,-0.703125 0.984375,-1.34375 l 0,-0.5625 -0.25,0 0,0.546875 c 0,0.734375 -0.296875,1.109375 -0.671875,1.109375 -0.671875,0 -0.671875,-0.90625 -0.671875,-1.078125 z m 0,0"
               id="path17577" />
          </symbol>
          <symbol
             style="overflow:visible"
             overflow="visible"
             id="textext-40cd2fc5-5">
            <path
               inkscape:connector-curvature="0"
               style="stroke:none"
               d="M 1.109375,-2.515625 C 1.171875,-4 2.015625,-4.25 2.359375,-4.25 c 1.015625,0 1.125,1.34375 1.125,1.734375 z m 0,0.21875 2.78125,0 c 0.21875,0 0.25,0 0.25,-0.21875 0,-0.984375 -0.546875,-1.953125 -1.78125,-1.953125 -1.15625,0 -2.078125,1.03125 -2.078125,2.28125 0,1.328125 1.046875,2.296875 2.1875,2.296875 C 3.6875,0.109375 4.140625,-1 4.140625,-1.1875 4.140625,-1.28125 4.0625,-1.3125 4,-1.3125 c -0.078125,0 -0.109375,0.0625 -0.125,0.140625 -0.34375,1.03125 -1.25,1.03125 -1.34375,1.03125 -0.5,0 -0.890625,-0.296875 -1.125,-0.671875 -0.296875,-0.46875 -0.296875,-1.125 -0.296875,-1.484375 z m 0,0"
               id="path17580" />
          </symbol>
          <symbol
             style="overflow:visible"
             overflow="visible"
             id="textext-40cd2fc5-6">
            <path
               inkscape:connector-curvature="0"
               style="stroke:none"
               d="m 1.09375,-3.421875 0,2.671875 c 0,0.4375 -0.109375,0.4375 -0.78125,0.4375 l 0,0.3125 c 0.359375,-0.015625 0.859375,-0.03125 1.140625,-0.03125 0.25,0 0.765625,0.015625 1.109375,0.03125 l 0,-0.3125 c -0.671875,0 -0.78125,0 -0.78125,-0.4375 l 0,-1.84375 C 1.78125,-3.625 2.5,-4.1875 3.125,-4.1875 c 0.640625,0 0.75,0.53125 0.75,1.109375 l 0,2.328125 c 0,0.4375 -0.109375,0.4375 -0.78125,0.4375 l 0,0.3125 c 0.34375,-0.015625 0.859375,-0.03125 1.125,-0.03125 0.25,0 0.78125,0.015625 1.109375,0.03125 l 0,-0.3125 c -0.65625,0 -0.765625,0 -0.765625,-0.4375 l 0,-1.84375 c 0,-1.03125 0.703125,-1.59375 1.34375,-1.59375 0.625,0 0.734375,0.53125 0.734375,1.109375 l 0,2.328125 c 0,0.4375 -0.109375,0.4375 -0.78125,0.4375 l 0,0.3125 c 0.34375,-0.015625 0.859375,-0.03125 1.125,-0.03125 0.265625,0 0.78125,0.015625 1.125,0.03125 l 0,-0.3125 c -0.515625,0 -0.765625,0 -0.78125,-0.296875 l 0,-1.90625 c 0,-0.859375 0,-1.15625 -0.3125,-1.515625 -0.140625,-0.171875 -0.46875,-0.375 -1.046875,-0.375 -0.828125,0 -1.28125,0.59375 -1.4375,0.984375 C 4.390625,-4.296875 3.65625,-4.40625 3.203125,-4.40625 2.46875,-4.40625 2,-3.984375 1.71875,-3.359375 l 0,-1.046875 -1.40625,0.109375 0,0.3125 c 0.703125,0 0.78125,0.0625 0.78125,0.5625 z m 0,0"
               id="path17583" />
          </symbol>
          <symbol
             style="overflow:visible"
             overflow="visible"
             id="textext-40cd2fc5-7">
            <path
               inkscape:connector-curvature="0"
               style="stroke:none"
               d="m 3.3125,-0.75 c 0.046875,0.390625 0.3125,0.8125 0.78125,0.8125 0.21875,0 0.828125,-0.140625 0.828125,-0.953125 l 0,-0.5625 -0.25,0 0,0.5625 c 0,0.578125 -0.25,0.640625 -0.359375,0.640625 -0.328125,0 -0.375,-0.453125 -0.375,-0.5 l 0,-1.984375 c 0,-0.421875 0,-0.8125 -0.359375,-1.1875 C 3.1875,-4.3125 2.6875,-4.46875 2.21875,-4.46875 c -0.828125,0 -1.515625,0.46875 -1.515625,1.125 0,0.296875 0.203125,0.46875 0.46875,0.46875 0.28125,0 0.453125,-0.203125 0.453125,-0.453125 0,-0.125 -0.046875,-0.453125 -0.515625,-0.453125 C 1.390625,-4.140625 1.875,-4.25 2.1875,-4.25 c 0.5,0 1.0625,0.390625 1.0625,1.28125 l 0,0.359375 c -0.515625,0.03125 -1.203125,0.0625 -1.828125,0.359375 -0.75,0.34375 -1,0.859375 -1,1.296875 0,0.8125 0.96875,1.0625 1.59375,1.0625 0.65625,0 1.109375,-0.40625 1.296875,-0.859375 z M 3.25,-2.390625 l 0,1 c 0,0.9375 -0.71875,1.28125 -1.171875,1.28125 -0.484375,0 -0.890625,-0.34375 -0.890625,-0.84375 0,-0.546875 0.421875,-1.375 2.0625,-1.4375 z m 0,0"
               id="path17586" />
          </symbol>
          <symbol
             style="overflow:visible"
             overflow="visible"
             id="textext-40cd2fc5-8">
            <path
               inkscape:connector-curvature="0"
               style="stroke:none"
               d="m 3.78125,-0.546875 0,0.65625 L 5.25,0 l 0,-0.3125 c -0.6875,0 -0.78125,-0.0625 -0.78125,-0.5625 l 0,-6.046875 -1.421875,0.109375 0,0.3125 c 0.6875,0 0.765625,0.0625 0.765625,0.5625 l 0,2.15625 c -0.28125,-0.359375 -0.71875,-0.625 -1.25,-0.625 -1.171875,0 -2.21875,0.984375 -2.21875,2.265625 0,1.265625 0.96875,2.25 2.109375,2.25 0.640625,0 1.078125,-0.34375 1.328125,-0.65625 z m 0,-2.671875 0,2.046875 c 0,0.171875 0,0.1875 -0.109375,0.359375 C 3.375,-0.328125 2.9375,-0.109375 2.5,-0.109375 2.046875,-0.109375 1.6875,-0.375 1.453125,-0.75 1.203125,-1.15625 1.171875,-1.71875 1.171875,-2.140625 1.171875,-2.5 1.1875,-3.09375 1.46875,-3.546875 1.6875,-3.859375 2.0625,-4.1875 2.609375,-4.1875 c 0.34375,0 0.765625,0.15625 1.0625,0.59375 0.109375,0.171875 0.109375,0.1875 0.109375,0.375 z m 0,0"
               id="path17589" />
          </symbol>
          <symbol
             style="overflow:visible"
             overflow="visible"
             id="textext-40cd2fc5-9">
            <path
               inkscape:connector-curvature="0"
               style="stroke:none"
               d="m 1.171875,-2.171875 c 0,-1.625 0.8125,-2.046875 1.34375,-2.046875 0.09375,0 0.71875,0.015625 1.0625,0.375 -0.40625,0.03125 -0.46875,0.328125 -0.46875,0.453125 0,0.265625 0.1875,0.453125 0.453125,0.453125 0.265625,0 0.46875,-0.15625 0.46875,-0.46875 0,-0.671875 -0.765625,-1.0625 -1.53125,-1.0625 -1.25,0 -2.15625,1.078125 -2.15625,2.3125 0,1.28125 0.984375,2.265625 2.140625,2.265625 1.328125,0 1.65625,-1.203125 1.65625,-1.296875 0,-0.09375 -0.109375,-0.09375 -0.140625,-0.09375 -0.078125,0 -0.109375,0.03125 -0.125,0.09375 -0.28125,0.921875 -0.9375,1.046875 -1.296875,1.046875 -0.53125,0 -1.40625,-0.421875 -1.40625,-2.03125 z m 0,0"
               id="path17592" />
          </symbol>
          <symbol
             style="overflow:visible"
             overflow="visible"
             id="textext-40cd2fc5-10">
            <path
               inkscape:connector-curvature="0"
               style="stroke:none"
               d="M 4.6875,-2.140625 C 4.6875,-3.40625 3.703125,-4.46875 2.5,-4.46875 c -1.25,0 -2.21875,1.09375 -2.21875,2.328125 0,1.296875 1.03125,2.25 2.203125,2.25 1.203125,0 2.203125,-0.984375 2.203125,-2.25 z m -2.1875,2 c -0.4375,0 -0.875,-0.203125 -1.140625,-0.671875 -0.25,-0.4375 -0.25,-1.046875 -0.25,-1.40625 0,-0.390625 0,-0.921875 0.234375,-1.359375 C 1.609375,-4.03125 2.078125,-4.25 2.484375,-4.25 c 0.4375,0 0.859375,0.21875 1.125,0.65625 0.265625,0.421875 0.265625,1 0.265625,1.375 0,0.359375 0,0.90625 -0.21875,1.34375 C 3.421875,-0.421875 2.984375,-0.140625 2.5,-0.140625 Z m 0,0"
               id="path17595" />
          </symbol>
          <symbol
             style="overflow:visible"
             overflow="visible"
             id="textext-40cd2fc5-11">
            <path
               inkscape:connector-curvature="0"
               style="stroke:none"
               d="m 1.09375,-3.421875 0,2.671875 c 0,0.4375 -0.109375,0.4375 -0.78125,0.4375 l 0,0.3125 c 0.359375,-0.015625 0.859375,-0.03125 1.140625,-0.03125 0.25,0 0.765625,0.015625 1.109375,0.03125 l 0,-0.3125 c -0.671875,0 -0.78125,0 -0.78125,-0.4375 l 0,-1.84375 C 1.78125,-3.625 2.5,-4.1875 3.125,-4.1875 c 0.640625,0 0.75,0.53125 0.75,1.109375 l 0,2.328125 c 0,0.4375 -0.109375,0.4375 -0.78125,0.4375 l 0,0.3125 c 0.34375,-0.015625 0.859375,-0.03125 1.125,-0.03125 0.25,0 0.78125,0.015625 1.109375,0.03125 l 0,-0.3125 c -0.515625,0 -0.765625,0 -0.765625,-0.296875 l 0,-1.90625 c 0,-0.859375 0,-1.15625 -0.3125,-1.515625 -0.140625,-0.171875 -0.46875,-0.375 -1.046875,-0.375 C 2.46875,-4.40625 2,-3.984375 1.71875,-3.359375 l 0,-1.046875 -1.40625,0.109375 0,0.3125 c 0.703125,0 0.78125,0.0625 0.78125,0.5625 z m 0,0"
               id="path17598" />
          </symbol>
          <symbol
             style="overflow:visible"
             overflow="visible"
             id="textext-40cd2fc5-12">
            <path
               inkscape:connector-curvature="0"
               style="stroke:none"
               d="m 3.78125,-0.609375 0,1.78125 C 3.78125,1.625 3.671875,1.625 3.015625,1.625 l 0,0.3125 C 3.34375,1.921875 3.875,1.90625 4.125,1.90625 c 0.265625,0 0.78125,0.015625 1.125,0.03125 l 0,-0.3125 c -0.671875,0 -0.78125,0 -0.78125,-0.453125 l 0,-5.578125 -0.21875,0 L 3.875,-3.5 C 3.75,-3.78125 3.34375,-4.40625 2.546875,-4.40625 c -1.15625,0 -2.203125,0.96875 -2.203125,2.265625 0,1.25 0.96875,2.25 2.125,2.25 0.6875,0 1.09375,-0.421875 1.3125,-0.71875 z m 0.03125,-2.15625 0,1.40625 C 3.8125,-1.03125 3.640625,-0.75 3.421875,-0.515625 3.296875,-0.375 2.96875,-0.109375 2.5,-0.109375 1.78125,-0.109375 1.171875,-1 1.171875,-2.140625 c 0,-1.1875 0.6875,-2.015625 1.4375,-2.015625 0.796875,0 1.203125,0.859375 1.203125,1.390625 z m 0,0"
               id="path17601" />
          </symbol>
          <symbol
             style="overflow:visible"
             overflow="visible"
             id="textext-40cd2fc5-13">
            <path
               inkscape:connector-curvature="0"
               style="stroke:none"
               d="m 3.890625,-0.78125 0,0.890625 L 5.328125,0 l 0,-0.3125 C 4.640625,-0.3125 4.5625,-0.375 4.5625,-0.875 l 0,-3.53125 -1.46875,0.109375 0,0.3125 c 0.6875,0 0.78125,0.0625 0.78125,0.5625 l 0,1.765625 c 0,0.875 -0.484375,1.546875 -1.21875,1.546875 -0.828125,0 -0.875,-0.46875 -0.875,-0.984375 l 0,-3.3125 -1.46875,0.109375 0,0.3125 c 0.78125,0 0.78125,0.03125 0.78125,0.90625 l 0,1.5 c 0,0.78125 0,1.6875 1.515625,1.6875 0.5625,0 1,-0.28125 1.28125,-0.890625 z m 0,0"
               id="path17604" />
          </symbol>
          <symbol
             style="overflow:visible"
             overflow="visible"
             id="textext-40cd2fc5-14">
            <path
               inkscape:connector-curvature="0"
               style="stroke:none"
               d="m 1.71875,-3.765625 0,-3.15625 -1.4375,0.109375 0,0.3125 c 0.703125,0 0.78125,0.0625 0.78125,0.5625 l 0,5.9375 0.25,0 c 0,-0.015625 0.078125,-0.15625 0.359375,-0.625 0.140625,0.234375 0.5625,0.734375 1.296875,0.734375 1.1875,0 2.21875,-0.984375 2.21875,-2.265625 0,-1.265625 -0.96875,-2.25 -2.109375,-2.25 -0.78125,0 -1.203125,0.46875 -1.359375,0.640625 z m 0.03125,2.625 0,-2.046875 c 0,-0.1875 0,-0.203125 0.109375,-0.359375 C 2.25,-4.109375 2.796875,-4.1875 3.03125,-4.1875 c 0.453125,0 0.8125,0.265625 1.046875,0.640625 0.265625,0.40625 0.28125,0.96875 0.28125,1.390625 0,0.359375 -0.015625,0.953125 -0.296875,1.40625 -0.21875,0.3125 -0.59375,0.640625 -1.125,0.640625 -0.453125,0 -0.8125,-0.234375 -1.046875,-0.609375 C 1.75,-0.921875 1.75,-0.953125 1.75,-1.140625 Z m 0,0"
               id="path17607" />
          </symbol>
          <symbol
             style="overflow:visible"
             overflow="visible"
             id="textext-40cd2fc5-15">
            <path
               inkscape:connector-curvature="0"
               style="stroke:none"
               d="m 1.671875,-3.3125 0,-1.09375 -1.390625,0.109375 0,0.3125 c 0.703125,0 0.78125,0.0625 0.78125,0.5625 l 0,2.671875 c 0,0.4375 -0.109375,0.4375 -0.78125,0.4375 l 0,0.3125 c 0.390625,-0.015625 0.859375,-0.03125 1.140625,-0.03125 0.390625,0 0.859375,0 1.265625,0.03125 l 0,-0.3125 -0.21875,0 c -0.734375,0 -0.75,-0.109375 -0.75,-0.46875 l 0,-1.53125 c 0,-0.984375 0.421875,-1.875 1.171875,-1.875 0.0625,0 0.09375,0 0.109375,0.015625 -0.03125,0 -0.234375,0.125 -0.234375,0.390625 0,0.265625 0.21875,0.421875 0.4375,0.421875 0.171875,0 0.421875,-0.125 0.421875,-0.4375 0,-0.3125 -0.3125,-0.609375 -0.734375,-0.609375 -0.734375,0 -1.09375,0.671875 -1.21875,1.09375 z m 0,0"
               id="path17610" />
          </symbol>
          <symbol
             style="overflow:visible"
             overflow="visible"
             id="textext-40cd2fc5-16">
            <path
               inkscape:connector-curvature="0"
               style="stroke:none"
               d="m 3.890625,-4 c 0.09375,-0.109375 0.09375,-0.125 0.09375,-0.171875 0,-0.125 -0.09375,-0.125 -0.265625,-0.125 l -3.1875,0 -0.109375,1.609375 0.25,0 c 0.0625,-1.015625 0.25,-1.390625 1.34375,-1.390625 l 1.140625,0 L 0.375,-0.3125 C 0.28125,-0.203125 0.28125,-0.1875 0.28125,-0.140625 0.28125,0 0.34375,0 0.53125,0 L 3.828125,0 4,-1.859375 l -0.25,0 C 3.65625,-0.6875 3.453125,-0.25 2.296875,-0.25 l -1.1875,0 z m 0,0"
               id="path17613" />
          </symbol>
        </g>
      </defs>
      <g
         id="textext-40cd2fc5-17">
        <g
           style="fill:#000000;fill-opacity:1"
           id="g17616">
          <use
             height="100%"
             width="100%"
             xlink:href="#textext-40cd2fc5-1"
             x="341.54501"
             y="134.765"
             id="use17618" />
          <use
             height="100%"
             width="100%"
             xlink:href="#textext-40cd2fc5-2"
             x="347.08023"
             y="134.765"
             id="use17620" />
          <use
             height="100%"
             width="100%"
             xlink:href="#textext-40cd2fc5-3"
             x="349.84784"
             y="134.765"
             id="use17622" />
          <use
             height="100%"
             width="100%"
             xlink:href="#textext-40cd2fc5-4"
             x="353.77707"
             y="134.765"
             id="use17624" />
          <use
             height="100%"
             width="100%"
             xlink:href="#textext-40cd2fc5-5"
             x="357.65152"
             y="134.765"
             id="use17626" />
          <use
             height="100%"
             width="100%"
             xlink:href="#textext-40cd2fc5-6"
             x="362.07892"
             y="134.765"
             id="use17628" />
          <use
             height="100%"
             width="100%"
             xlink:href="#textext-40cd2fc5-7"
             x="370.38074"
             y="134.765"
             id="use17630" />
        </g>
        <g
           style="fill:#000000;fill-opacity:1"
           id="g17632">
          <use
             height="100%"
             width="100%"
             xlink:href="#textext-40cd2fc5-8"
             x="378.6796"
             y="134.765"
             id="use17634" />
          <use
             height="100%"
             width="100%"
             xlink:href="#textext-40cd2fc5-5"
             x="384.21481"
             y="134.765"
             id="use17636" />
          <use
             height="100%"
             width="100%"
             xlink:href="#textext-40cd2fc5-3"
             x="388.64218"
             y="134.765"
             id="use17638" />
          <use
             height="100%"
             width="100%"
             xlink:href="#textext-40cd2fc5-9"
             x="392.57144"
             y="134.765"
             id="use17640" />
          <use
             height="100%"
             width="100%"
             xlink:href="#textext-40cd2fc5-10"
             x="396.99881"
             y="134.765"
             id="use17642" />
          <use
             height="100%"
             width="100%"
             xlink:href="#textext-40cd2fc5-11"
             x="401.98013"
             y="134.765"
             id="use17644" />
          <use
             height="100%"
             width="100%"
             xlink:href="#textext-40cd2fc5-10"
             x="407.51535"
             y="134.765"
             id="use17646" />
        </g>
        <g
           style="fill:#000000;fill-opacity:1"
           id="g17648">
          <use
             height="100%"
             width="100%"
             xlink:href="#textext-40cd2fc5-9"
             x="412.7756"
             y="134.765"
             id="use17650" />
          <use
             height="100%"
             width="100%"
             xlink:href="#textext-40cd2fc5-2"
             x="417.20297"
             y="134.765"
             id="use17652" />
          <use
             height="100%"
             width="100%"
             xlink:href="#textext-40cd2fc5-8"
             x="419.97058"
             y="134.765"
             id="use17654" />
          <use
             height="100%"
             width="100%"
             xlink:href="#textext-40cd2fc5-10"
             x="425.5058"
             y="134.765"
             id="use17656" />
        </g>
        <g
           style="fill:#000000;fill-opacity:1"
           id="g17658">
          <use
             height="100%"
             width="100%"
             xlink:href="#textext-40cd2fc5-12"
             x="433.81461"
             y="134.765"
             id="use17660" />
          <use
             height="100%"
             width="100%"
             xlink:href="#textext-40cd2fc5-13"
             x="439.07288"
             y="134.765"
             id="use17662" />
        </g>
        <g
           style="fill:#000000;fill-opacity:1"
           id="g17664">
          <use
             height="100%"
             width="100%"
             xlink:href="#textext-40cd2fc5-5"
             x="444.59814"
             y="134.765"
             id="use17666" />
        </g>
        <g
           style="fill:#000000;fill-opacity:1"
           id="g17668">
          <use
             height="100%"
             width="100%"
             xlink:href="#textext-40cd2fc5-8"
             x="346.927"
             y="146.72"
             id="use17670" />
          <use
             height="100%"
             width="100%"
             xlink:href="#textext-40cd2fc5-5"
             x="352.46222"
             y="146.72"
             id="use17672" />
          <use
             height="100%"
             width="100%"
             xlink:href="#textext-40cd2fc5-14"
             x="356.88959"
             y="146.72"
             id="use17674" />
        </g>
        <g
           style="fill:#000000;fill-opacity:1"
           id="g17676">
          <use
             height="100%"
             width="100%"
             xlink:href="#textext-40cd2fc5-5"
             x="362.70377"
             y="146.72"
             id="use17678" />
        </g>
        <g
           style="fill:#000000;fill-opacity:1"
           id="g17680">
          <use
             height="100%"
             width="100%"
             xlink:href="#textext-40cd2fc5-3"
             x="370.4487"
             y="146.72"
             id="use17682" />
          <use
             height="100%"
             width="100%"
             xlink:href="#textext-40cd2fc5-5"
             x="374.37796"
             y="146.72"
             id="use17684" />
          <use
             height="100%"
             width="100%"
             xlink:href="#textext-40cd2fc5-15"
             x="378.80533"
             y="146.72"
             id="use17686" />
        </g>
        <g
           style="fill:#000000;fill-opacity:1"
           id="g17688">
          <use
             height="100%"
             width="100%"
             xlink:href="#textext-40cd2fc5-9"
             x="386.03519"
             y="146.72"
             id="use17690" />
          <use
             height="100%"
             width="100%"
             xlink:href="#textext-40cd2fc5-7"
             x="390.46255"
             y="146.72"
             id="use17692" />
          <use
             height="100%"
             width="100%"
             xlink:href="#textext-40cd2fc5-15"
             x="395.44388"
             y="146.72"
             id="use17694" />
          <use
             height="100%"
             width="100%"
             xlink:href="#textext-40cd2fc5-7"
             x="399.34622"
             y="146.72"
             id="use17696" />
          <use
             height="100%"
             width="100%"
             xlink:href="#textext-40cd2fc5-9"
             x="404.32751"
             y="146.72"
             id="use17698" />
          <use
             height="100%"
             width="100%"
             xlink:href="#textext-40cd2fc5-4"
             x="408.75488"
             y="146.72"
             id="use17700" />
          <use
             height="100%"
             width="100%"
             xlink:href="#textext-40cd2fc5-5"
             x="412.62936"
             y="146.72"
             id="use17702" />
          <use
             height="100%"
             width="100%"
             xlink:href="#textext-40cd2fc5-15"
             x="417.05673"
             y="146.72"
             id="use17704" />
          <use
             height="100%"
             width="100%"
             xlink:href="#textext-40cd2fc5-2"
             x="420.95908"
             y="146.72"
             id="use17706" />
          <use
             height="100%"
             width="100%"
             xlink:href="#textext-40cd2fc5-16"
             x="423.72668"
             y="146.72"
             id="use17708" />
          <use
             height="100%"
             width="100%"
             xlink:href="#textext-40cd2fc5-7"
             x="428.15408"
             y="146.72"
             id="use17710" />
          <use
             height="100%"
             width="100%"
             xlink:href="#textext-40cd2fc5-8"
             x="433.13538"
             y="146.72"
             id="use17712" />
          <use
             height="100%"
             width="100%"
             xlink:href="#textext-40cd2fc5-10"
             x="438.67059"
             y="146.72"
             id="use17714" />
        </g>
      </g>
    </g>
    <g
       style="display:inline"
       id="g18513"
       ns0:preamble="/Users/Santiago/Dropbox/Faustos/Master 3/Focus poster/Tikzposter (extended example)/preamble.ini"
       ns0:text="\\centering\nSistema conocido que introduce\\\\\n diversidades de fase"
       transform="matrix(1.4110546,0,0,1.4110546,-288.51393,-20.06508)">
      <defs
         id="defs18515">
        <g
           id="g18517">
          <symbol
             id="textext-5c4ad461-0"
             overflow="visible"
             style="overflow:visible">
            <path
               id="path18520"
               d=""
               style="stroke:none"
               inkscape:connector-curvature="0" />
          </symbol>
          <symbol
             id="textext-5c4ad461-1"
             overflow="visible"
             style="overflow:visible">
            <path
               id="path18523"
               d="m 3.484375,-3.875 -1.28125,-0.296875 c -0.625,-0.15625 -1,-0.6875 -1,-1.265625 0,-0.703125 0.53125,-1.3125 1.3125,-1.3125 1.65625,0 1.875,1.640625 1.9375,2.078125 0.015625,0.0625 0.015625,0.125 0.125,0.125 0.125,0 0.125,-0.046875 0.125,-0.234375 l 0,-2 c 0,-0.171875 0,-0.25 -0.109375,-0.25 -0.0625,0 -0.078125,0.015625 -0.140625,0.140625 l -0.359375,0.5625 C 3.796875,-6.625 3.390625,-7.03125 2.5,-7.03125 c -1.109375,0 -1.9375,0.875 -1.9375,1.9375 0,0.828125 0.53125,1.5625 1.296875,1.828125 0.109375,0.03125 0.625,0.15625 1.328125,0.328125 0.265625,0.0625 0.5625,0.140625 0.84375,0.5 0.203125,0.265625 0.3125,0.59375 0.3125,0.921875 0,0.703125 -0.5,1.421875 -1.34375,1.421875 -0.28125,0 -1.046875,-0.046875 -1.578125,-0.53125 C 0.84375,-1.171875 0.8125,-1.796875 0.8125,-2.15625 0.796875,-2.265625 0.71875,-2.265625 0.6875,-2.265625 c -0.125,0 -0.125,0.078125 -0.125,0.25 l 0,2 c 0,0.171875 0,0.234375 0.109375,0.234375 0.0625,0 0.078125,-0.015625 0.140625,-0.125 0,-0.015625 0.03125,-0.046875 0.359375,-0.578125 0.3125,0.34375 0.953125,0.703125 1.84375,0.703125 1.15625,0 1.953125,-0.96875 1.953125,-2.078125 0,-0.984375 -0.65625,-1.8125 -1.484375,-2.015625 z m 0,0"
               style="stroke:none"
               inkscape:connector-curvature="0" />
          </symbol>
          <symbol
             id="textext-5c4ad461-2"
             overflow="visible"
             style="overflow:visible">
            <path
               id="path18526"
               d="M 1.765625,-4.40625 0.375,-4.296875 l 0,0.3125 c 0.640625,0 0.734375,0.0625 0.734375,0.546875 l 0,2.6875 c 0,0.4375 -0.109375,0.4375 -0.78125,0.4375 l 0,0.3125 C 0.640625,-0.015625 1.1875,-0.03125 1.421875,-0.03125 1.78125,-0.03125 2.125,-0.015625 2.46875,0 l 0,-0.3125 c -0.671875,0 -0.703125,-0.046875 -0.703125,-0.4375 z m 0.03125,-1.734375 c 0,-0.3125 -0.234375,-0.53125 -0.515625,-0.53125 -0.3125,0 -0.53125,0.265625 -0.53125,0.53125 0,0.265625 0.21875,0.53125 0.53125,0.53125 0.28125,0 0.515625,-0.21875 0.515625,-0.53125 z m 0,0"
               style="stroke:none"
               inkscape:connector-curvature="0" />
          </symbol>
          <symbol
             id="textext-5c4ad461-3"
             overflow="visible"
             style="overflow:visible">
            <path
               id="path18529"
               d="m 2.078125,-1.9375 c 0.21875,0.046875 1.03125,0.203125 1.03125,0.921875 0,0.5 -0.34375,0.90625 -1.125,0.90625 -0.84375,0 -1.203125,-0.5625 -1.390625,-1.421875 C 0.5625,-1.65625 0.5625,-1.6875 0.453125,-1.6875 c -0.125,0 -0.125,0.0625 -0.125,0.234375 l 0,1.328125 c 0,0.171875 0,0.234375 0.109375,0.234375 0.046875,0 0.0625,-0.015625 0.25,-0.203125 0.015625,-0.015625 0.015625,-0.03125 0.203125,-0.21875 0.4375,0.40625 0.890625,0.421875 1.09375,0.421875 1.140625,0 1.609375,-0.671875 1.609375,-1.390625 0,-0.515625 -0.296875,-0.828125 -0.421875,-0.9375 C 2.84375,-2.546875 2.453125,-2.625 2.03125,-2.703125 1.46875,-2.8125 0.8125,-2.9375 0.8125,-3.515625 c 0,-0.359375 0.25,-0.765625 1.109375,-0.765625 1.09375,0 1.15625,0.90625 1.171875,1.203125 0,0.09375 0.09375,0.09375 0.109375,0.09375 0.140625,0 0.140625,-0.046875 0.140625,-0.234375 l 0,-1.015625 c 0,-0.15625 0,-0.234375 -0.109375,-0.234375 -0.046875,0 -0.078125,0 -0.203125,0.125 -0.03125,0.03125 -0.125,0.125 -0.171875,0.15625 -0.375,-0.28125 -0.78125,-0.28125 -0.9375,-0.28125 -1.21875,0 -1.59375,0.671875 -1.59375,1.234375 0,0.34375 0.15625,0.625 0.421875,0.84375 0.328125,0.25 0.609375,0.3125 1.328125,0.453125 z m 0,0"
               style="stroke:none"
               inkscape:connector-curvature="0" />
          </symbol>
          <symbol
             id="textext-5c4ad461-4"
             overflow="visible"
             style="overflow:visible">
            <path
               id="path18532"
               d="m 1.71875,-3.984375 1.4375,0 0,-0.3125 -1.4375,0 0,-1.828125 -0.25,0 c 0,0.8125 -0.296875,1.875 -1.28125,1.921875 l 0,0.21875 0.84375,0 0,2.75 c 0,1.21875 0.9375,1.34375 1.296875,1.34375 0.703125,0 0.984375,-0.703125 0.984375,-1.34375 l 0,-0.5625 -0.25,0 0,0.546875 c 0,0.734375 -0.296875,1.109375 -0.671875,1.109375 -0.671875,0 -0.671875,-0.90625 -0.671875,-1.078125 z m 0,0"
               style="stroke:none"
               inkscape:connector-curvature="0" />
          </symbol>
          <symbol
             id="textext-5c4ad461-5"
             overflow="visible"
             style="overflow:visible">
            <path
               id="path18535"
               d="M 1.109375,-2.515625 C 1.171875,-4 2.015625,-4.25 2.359375,-4.25 c 1.015625,0 1.125,1.34375 1.125,1.734375 z m 0,0.21875 2.78125,0 c 0.21875,0 0.25,0 0.25,-0.21875 0,-0.984375 -0.546875,-1.953125 -1.78125,-1.953125 -1.15625,0 -2.078125,1.03125 -2.078125,2.28125 0,1.328125 1.046875,2.296875 2.1875,2.296875 C 3.6875,0.109375 4.140625,-1 4.140625,-1.1875 4.140625,-1.28125 4.0625,-1.3125 4,-1.3125 c -0.078125,0 -0.109375,0.0625 -0.125,0.140625 -0.34375,1.03125 -1.25,1.03125 -1.34375,1.03125 -0.5,0 -0.890625,-0.296875 -1.125,-0.671875 -0.296875,-0.46875 -0.296875,-1.125 -0.296875,-1.484375 z m 0,0"
               style="stroke:none"
               inkscape:connector-curvature="0" />
          </symbol>
          <symbol
             id="textext-5c4ad461-6"
             overflow="visible"
             style="overflow:visible">
            <path
               id="path18538"
               d="m 1.09375,-3.421875 0,2.671875 c 0,0.4375 -0.109375,0.4375 -0.78125,0.4375 l 0,0.3125 c 0.359375,-0.015625 0.859375,-0.03125 1.140625,-0.03125 0.25,0 0.765625,0.015625 1.109375,0.03125 l 0,-0.3125 c -0.671875,0 -0.78125,0 -0.78125,-0.4375 l 0,-1.84375 C 1.78125,-3.625 2.5,-4.1875 3.125,-4.1875 c 0.640625,0 0.75,0.53125 0.75,1.109375 l 0,2.328125 c 0,0.4375 -0.109375,0.4375 -0.78125,0.4375 l 0,0.3125 c 0.34375,-0.015625 0.859375,-0.03125 1.125,-0.03125 0.25,0 0.78125,0.015625 1.109375,0.03125 l 0,-0.3125 c -0.65625,0 -0.765625,0 -0.765625,-0.4375 l 0,-1.84375 c 0,-1.03125 0.703125,-1.59375 1.34375,-1.59375 0.625,0 0.734375,0.53125 0.734375,1.109375 l 0,2.328125 c 0,0.4375 -0.109375,0.4375 -0.78125,0.4375 l 0,0.3125 c 0.34375,-0.015625 0.859375,-0.03125 1.125,-0.03125 0.265625,0 0.78125,0.015625 1.125,0.03125 l 0,-0.3125 c -0.515625,0 -0.765625,0 -0.78125,-0.296875 l 0,-1.90625 c 0,-0.859375 0,-1.15625 -0.3125,-1.515625 -0.140625,-0.171875 -0.46875,-0.375 -1.046875,-0.375 -0.828125,0 -1.28125,0.59375 -1.4375,0.984375 C 4.390625,-4.296875 3.65625,-4.40625 3.203125,-4.40625 2.46875,-4.40625 2,-3.984375 1.71875,-3.359375 l 0,-1.046875 -1.40625,0.109375 0,0.3125 c 0.703125,0 0.78125,0.0625 0.78125,0.5625 z m 0,0"
               style="stroke:none"
               inkscape:connector-curvature="0" />
          </symbol>
          <symbol
             id="textext-5c4ad461-7"
             overflow="visible"
             style="overflow:visible">
            <path
               id="path18541"
               d="m 3.3125,-0.75 c 0.046875,0.390625 0.3125,0.8125 0.78125,0.8125 0.21875,0 0.828125,-0.140625 0.828125,-0.953125 l 0,-0.5625 -0.25,0 0,0.5625 c 0,0.578125 -0.25,0.640625 -0.359375,0.640625 -0.328125,0 -0.375,-0.453125 -0.375,-0.5 l 0,-1.984375 c 0,-0.421875 0,-0.8125 -0.359375,-1.1875 C 3.1875,-4.3125 2.6875,-4.46875 2.21875,-4.46875 c -0.828125,0 -1.515625,0.46875 -1.515625,1.125 0,0.296875 0.203125,0.46875 0.46875,0.46875 0.28125,0 0.453125,-0.203125 0.453125,-0.453125 0,-0.125 -0.046875,-0.453125 -0.515625,-0.453125 C 1.390625,-4.140625 1.875,-4.25 2.1875,-4.25 c 0.5,0 1.0625,0.390625 1.0625,1.28125 l 0,0.359375 c -0.515625,0.03125 -1.203125,0.0625 -1.828125,0.359375 -0.75,0.34375 -1,0.859375 -1,1.296875 0,0.8125 0.96875,1.0625 1.59375,1.0625 0.65625,0 1.109375,-0.40625 1.296875,-0.859375 z M 3.25,-2.390625 l 0,1 c 0,0.9375 -0.71875,1.28125 -1.171875,1.28125 -0.484375,0 -0.890625,-0.34375 -0.890625,-0.84375 0,-0.546875 0.421875,-1.375 2.0625,-1.4375 z m 0,0"
               style="stroke:none"
               inkscape:connector-curvature="0" />
          </symbol>
          <symbol
             id="textext-5c4ad461-8"
             overflow="visible"
             style="overflow:visible">
            <path
               id="path18544"
               d="m 1.171875,-2.171875 c 0,-1.625 0.8125,-2.046875 1.34375,-2.046875 0.09375,0 0.71875,0.015625 1.0625,0.375 -0.40625,0.03125 -0.46875,0.328125 -0.46875,0.453125 0,0.265625 0.1875,0.453125 0.453125,0.453125 0.265625,0 0.46875,-0.15625 0.46875,-0.46875 0,-0.671875 -0.765625,-1.0625 -1.53125,-1.0625 -1.25,0 -2.15625,1.078125 -2.15625,2.3125 0,1.28125 0.984375,2.265625 2.140625,2.265625 1.328125,0 1.65625,-1.203125 1.65625,-1.296875 0,-0.09375 -0.109375,-0.09375 -0.140625,-0.09375 -0.078125,0 -0.109375,0.03125 -0.125,0.09375 -0.28125,0.921875 -0.9375,1.046875 -1.296875,1.046875 -0.53125,0 -1.40625,-0.421875 -1.40625,-2.03125 z m 0,0"
               style="stroke:none"
               inkscape:connector-curvature="0" />
          </symbol>
          <symbol
             id="textext-5c4ad461-9"
             overflow="visible"
             style="overflow:visible">
            <path
               id="path18547"
               d="M 4.6875,-2.140625 C 4.6875,-3.40625 3.703125,-4.46875 2.5,-4.46875 c -1.25,0 -2.21875,1.09375 -2.21875,2.328125 0,1.296875 1.03125,2.25 2.203125,2.25 1.203125,0 2.203125,-0.984375 2.203125,-2.25 z m -2.1875,2 c -0.4375,0 -0.875,-0.203125 -1.140625,-0.671875 -0.25,-0.4375 -0.25,-1.046875 -0.25,-1.40625 0,-0.390625 0,-0.921875 0.234375,-1.359375 C 1.609375,-4.03125 2.078125,-4.25 2.484375,-4.25 c 0.4375,0 0.859375,0.21875 1.125,0.65625 0.265625,0.421875 0.265625,1 0.265625,1.375 0,0.359375 0,0.90625 -0.21875,1.34375 C 3.421875,-0.421875 2.984375,-0.140625 2.5,-0.140625 Z m 0,0"
               style="stroke:none"
               inkscape:connector-curvature="0" />
          </symbol>
          <symbol
             id="textext-5c4ad461-10"
             overflow="visible"
             style="overflow:visible">
            <path
               id="path18550"
               d="m 1.09375,-3.421875 0,2.671875 c 0,0.4375 -0.109375,0.4375 -0.78125,0.4375 l 0,0.3125 c 0.359375,-0.015625 0.859375,-0.03125 1.140625,-0.03125 0.25,0 0.765625,0.015625 1.109375,0.03125 l 0,-0.3125 c -0.671875,0 -0.78125,0 -0.78125,-0.4375 l 0,-1.84375 C 1.78125,-3.625 2.5,-4.1875 3.125,-4.1875 c 0.640625,0 0.75,0.53125 0.75,1.109375 l 0,2.328125 c 0,0.4375 -0.109375,0.4375 -0.78125,0.4375 l 0,0.3125 c 0.34375,-0.015625 0.859375,-0.03125 1.125,-0.03125 0.25,0 0.78125,0.015625 1.109375,0.03125 l 0,-0.3125 c -0.515625,0 -0.765625,0 -0.765625,-0.296875 l 0,-1.90625 c 0,-0.859375 0,-1.15625 -0.3125,-1.515625 -0.140625,-0.171875 -0.46875,-0.375 -1.046875,-0.375 C 2.46875,-4.40625 2,-3.984375 1.71875,-3.359375 l 0,-1.046875 -1.40625,0.109375 0,0.3125 c 0.703125,0 0.78125,0.0625 0.78125,0.5625 z m 0,0"
               style="stroke:none"
               inkscape:connector-curvature="0" />
          </symbol>
          <symbol
             id="textext-5c4ad461-11"
             overflow="visible"
             style="overflow:visible">
            <path
               id="path18553"
               d="m 3.78125,-0.546875 0,0.65625 L 5.25,0 l 0,-0.3125 c -0.6875,0 -0.78125,-0.0625 -0.78125,-0.5625 l 0,-6.046875 -1.421875,0.109375 0,0.3125 c 0.6875,0 0.765625,0.0625 0.765625,0.5625 l 0,2.15625 c -0.28125,-0.359375 -0.71875,-0.625 -1.25,-0.625 -1.171875,0 -2.21875,0.984375 -2.21875,2.265625 0,1.265625 0.96875,2.25 2.109375,2.25 0.640625,0 1.078125,-0.34375 1.328125,-0.65625 z m 0,-2.671875 0,2.046875 c 0,0.171875 0,0.1875 -0.109375,0.359375 C 3.375,-0.328125 2.9375,-0.109375 2.5,-0.109375 2.046875,-0.109375 1.6875,-0.375 1.453125,-0.75 1.203125,-1.15625 1.171875,-1.71875 1.171875,-2.140625 1.171875,-2.5 1.1875,-3.09375 1.46875,-3.546875 1.6875,-3.859375 2.0625,-4.1875 2.609375,-4.1875 c 0.34375,0 0.765625,0.15625 1.0625,0.59375 0.109375,0.171875 0.109375,0.1875 0.109375,0.375 z m 0,0"
               style="stroke:none"
               inkscape:connector-curvature="0" />
          </symbol>
          <symbol
             id="textext-5c4ad461-12"
             overflow="visible"
             style="overflow:visible">
            <path
               id="path18556"
               d="m 3.78125,-0.609375 0,1.78125 C 3.78125,1.625 3.671875,1.625 3.015625,1.625 l 0,0.3125 C 3.34375,1.921875 3.875,1.90625 4.125,1.90625 c 0.265625,0 0.78125,0.015625 1.125,0.03125 l 0,-0.3125 c -0.671875,0 -0.78125,0 -0.78125,-0.453125 l 0,-5.578125 -0.21875,0 L 3.875,-3.5 C 3.75,-3.78125 3.34375,-4.40625 2.546875,-4.40625 c -1.15625,0 -2.203125,0.96875 -2.203125,2.265625 0,1.25 0.96875,2.25 2.125,2.25 0.6875,0 1.09375,-0.421875 1.3125,-0.71875 z m 0.03125,-2.15625 0,1.40625 C 3.8125,-1.03125 3.640625,-0.75 3.421875,-0.515625 3.296875,-0.375 2.96875,-0.109375 2.5,-0.109375 1.78125,-0.109375 1.171875,-1 1.171875,-2.140625 c 0,-1.1875 0.6875,-2.015625 1.4375,-2.015625 0.796875,0 1.203125,0.859375 1.203125,1.390625 z m 0,0"
               style="stroke:none"
               inkscape:connector-curvature="0" />
          </symbol>
          <symbol
             id="textext-5c4ad461-13"
             overflow="visible"
             style="overflow:visible">
            <path
               id="path18559"
               d="m 3.890625,-0.78125 0,0.890625 L 5.328125,0 l 0,-0.3125 C 4.640625,-0.3125 4.5625,-0.375 4.5625,-0.875 l 0,-3.53125 -1.46875,0.109375 0,0.3125 c 0.6875,0 0.78125,0.0625 0.78125,0.5625 l 0,1.765625 c 0,0.875 -0.484375,1.546875 -1.21875,1.546875 -0.828125,0 -0.875,-0.46875 -0.875,-0.984375 l 0,-3.3125 -1.46875,0.109375 0,0.3125 c 0.78125,0 0.78125,0.03125 0.78125,0.90625 l 0,1.5 c 0,0.78125 0,1.6875 1.515625,1.6875 0.5625,0 1,-0.28125 1.28125,-0.890625 z m 0,0"
               style="stroke:none"
               inkscape:connector-curvature="0" />
          </symbol>
          <symbol
             id="textext-5c4ad461-14"
             overflow="visible"
             style="overflow:visible">
            <path
               id="path18562"
               d="m 1.671875,-3.3125 0,-1.09375 -1.390625,0.109375 0,0.3125 c 0.703125,0 0.78125,0.0625 0.78125,0.5625 l 0,2.671875 c 0,0.4375 -0.109375,0.4375 -0.78125,0.4375 l 0,0.3125 c 0.390625,-0.015625 0.859375,-0.03125 1.140625,-0.03125 0.390625,0 0.859375,0 1.265625,0.03125 l 0,-0.3125 -0.21875,0 c -0.734375,0 -0.75,-0.109375 -0.75,-0.46875 l 0,-1.53125 c 0,-0.984375 0.421875,-1.875 1.171875,-1.875 0.0625,0 0.09375,0 0.109375,0.015625 -0.03125,0 -0.234375,0.125 -0.234375,0.390625 0,0.265625 0.21875,0.421875 0.4375,0.421875 0.171875,0 0.421875,-0.125 0.421875,-0.4375 0,-0.3125 -0.3125,-0.609375 -0.734375,-0.609375 -0.734375,0 -1.09375,0.671875 -1.21875,1.09375 z m 0,0"
               style="stroke:none"
               inkscape:connector-curvature="0" />
          </symbol>
          <symbol
             id="textext-5c4ad461-15"
             overflow="visible"
             style="overflow:visible">
            <path
               id="path18565"
               d="M 4.140625,-3.3125 C 4.234375,-3.546875 4.40625,-3.984375 5.0625,-3.984375 l 0,-0.3125 c -0.234375,0.015625 -0.515625,0.03125 -0.75,0.03125 -0.234375,0 -0.6875,-0.015625 -0.859375,-0.03125 l 0,0.3125 c 0.359375,0 0.46875,0.234375 0.46875,0.421875 0,0.09375 -0.015625,0.140625 -0.046875,0.25 L 2.84375,-0.78125 1.734375,-3.5625 c -0.0625,-0.125 -0.0625,-0.140625 -0.0625,-0.171875 0,-0.25 0.390625,-0.25 0.578125,-0.25 l 0,-0.3125 c -0.3125,0.015625 -0.859375,0.03125 -1.09375,0.03125 -0.265625,0 -0.671875,-0.015625 -0.96875,-0.03125 l 0,0.3125 c 0.625,0 0.671875,0.0625 0.796875,0.359375 l 1.4375,3.546875 C 2.484375,0.0625 2.5,0.109375 2.625,0.109375 c 0.140625,0 0.171875,-0.09375 0.21875,-0.1875 z m 0,0"
               style="stroke:none"
               inkscape:connector-curvature="0" />
          </symbol>
          <symbol
             id="textext-5c4ad461-16"
             overflow="visible"
             style="overflow:visible">
            <path
               id="path18568"
               d="m 1.75,-4.296875 0,-1.15625 c 0,-0.875 0.46875,-1.359375 0.90625,-1.359375 0.03125,0 0.1875,0 0.328125,0.078125 C 2.875,-6.703125 2.6875,-6.5625 2.6875,-6.3125 c 0,0.21875 0.15625,0.421875 0.4375,0.421875 0.28125,0 0.4375,-0.203125 0.4375,-0.4375 0,-0.375 -0.375,-0.703125 -0.90625,-0.703125 -0.6875,0 -1.546875,0.53125 -1.546875,1.59375 l 0,1.140625 -0.78125,0 0,0.3125 0.78125,0 0,3.234375 c 0,0.4375 -0.109375,0.4375 -0.765625,0.4375 l 0,0.3125 c 0.390625,-0.015625 0.859375,-0.03125 1.125,-0.03125 0.40625,0 0.875,0 1.265625,0.03125 l 0,-0.3125 -0.203125,0 c -0.734375,0 -0.75,-0.109375 -0.75,-0.46875 l 0,-3.203125 1.125,0 0,-0.3125 z m 0,0"
               style="stroke:none"
               inkscape:connector-curvature="0" />
          </symbol>
        </g>
      </defs>
      <g
         id="textext-5c4ad461-17">
        <g
           id="g18571"
           style="fill:#000000;fill-opacity:1">
          <use
             id="use18573"
             y="134.765"
             x="326.33801"
             xlink:href="#textext-5c4ad461-1"
             width="100%"
             height="100%" />
          <use
             id="use18575"
             y="134.765"
             x="331.87323"
             xlink:href="#textext-5c4ad461-2"
             width="100%"
             height="100%" />
          <use
             id="use18577"
             y="134.765"
             x="334.64084"
             xlink:href="#textext-5c4ad461-3"
             width="100%"
             height="100%" />
          <use
             id="use18579"
             y="134.765"
             x="338.57007"
             xlink:href="#textext-5c4ad461-4"
             width="100%"
             height="100%" />
          <use
             id="use18581"
             y="134.765"
             x="342.44455"
             xlink:href="#textext-5c4ad461-5"
             width="100%"
             height="100%" />
          <use
             id="use18583"
             y="134.765"
             x="346.87192"
             xlink:href="#textext-5c4ad461-6"
             width="100%"
             height="100%" />
          <use
             id="use18585"
             y="134.765"
             x="355.17374"
             xlink:href="#textext-5c4ad461-7"
             width="100%"
             height="100%" />
        </g>
        <g
           id="g18587"
           style="fill:#000000;fill-opacity:1">
          <use
             id="use18589"
             y="134.765"
             x="363.4726"
             xlink:href="#textext-5c4ad461-8"
             width="100%"
             height="100%" />
          <use
             id="use18591"
             y="134.765"
             x="367.89996"
             xlink:href="#textext-5c4ad461-9"
             width="100%"
             height="100%" />
          <use
             id="use18593"
             y="134.765"
             x="372.88129"
             xlink:href="#textext-5c4ad461-10"
             width="100%"
             height="100%" />
          <use
             id="use18595"
             y="134.765"
             x="378.4165"
             xlink:href="#textext-5c4ad461-9"
             width="100%"
             height="100%" />
        </g>
        <g
           id="g18597"
           style="fill:#000000;fill-opacity:1">
          <use
             id="use18599"
             y="134.765"
             x="383.67676"
             xlink:href="#textext-5c4ad461-8"
             width="100%"
             height="100%" />
          <use
             id="use18601"
             y="134.765"
             x="388.10413"
             xlink:href="#textext-5c4ad461-2"
             width="100%"
             height="100%" />
          <use
             id="use18603"
             y="134.765"
             x="390.87173"
             xlink:href="#textext-5c4ad461-11"
             width="100%"
             height="100%" />
          <use
             id="use18605"
             y="134.765"
             x="396.40695"
             xlink:href="#textext-5c4ad461-9"
             width="100%"
             height="100%" />
        </g>
        <g
           id="g18607"
           style="fill:#000000;fill-opacity:1">
          <use
             id="use18609"
             y="134.765"
             x="404.70581"
             xlink:href="#textext-5c4ad461-12"
             width="100%"
             height="100%" />
          <use
             id="use18611"
             y="134.765"
             x="409.96405"
             xlink:href="#textext-5c4ad461-13"
             width="100%"
             height="100%" />
          <use
             id="use18613"
             y="134.765"
             x="415.4993"
             xlink:href="#textext-5c4ad461-5"
             width="100%"
             height="100%" />
        </g>
        <g
           id="g18615"
           style="fill:#000000;fill-opacity:1">
          <use
             id="use18617"
             y="134.765"
             x="423.25418"
             xlink:href="#textext-5c4ad461-2"
             width="100%"
             height="100%" />
          <use
             id="use18619"
             y="134.765"
             x="426.02179"
             xlink:href="#textext-5c4ad461-10"
             width="100%"
             height="100%" />
        </g>
        <g
           id="g18621"
           style="fill:#000000;fill-opacity:1">
          <use
             id="use18623"
             y="134.765"
             x="431.27805"
             xlink:href="#textext-5c4ad461-4"
             width="100%"
             height="100%" />
          <use
             id="use18625"
             y="134.765"
             x="435.1525"
             xlink:href="#textext-5c4ad461-14"
             width="100%"
             height="100%" />
          <use
             id="use18627"
             y="134.765"
             x="439.05487"
             xlink:href="#textext-5c4ad461-9"
             width="100%"
             height="100%" />
        </g>
        <g
           id="g18629"
           style="fill:#000000;fill-opacity:1">
          <use
             id="use18631"
             y="134.765"
             x="444.31509"
             xlink:href="#textext-5c4ad461-11"
             width="100%"
             height="100%" />
          <use
             id="use18633"
             y="134.765"
             x="449.85034"
             xlink:href="#textext-5c4ad461-13"
             width="100%"
             height="100%" />
          <use
             id="use18635"
             y="134.765"
             x="455.38556"
             xlink:href="#textext-5c4ad461-8"
             width="100%"
             height="100%" />
          <use
             id="use18637"
             y="134.765"
             x="459.81293"
             xlink:href="#textext-5c4ad461-5"
             width="100%"
             height="100%" />
        </g>
        <g
           id="g18639"
           style="fill:#000000;fill-opacity:1">
          <use
             id="use18641"
             y="146.72"
             x="352.43399"
             xlink:href="#textext-5c4ad461-11"
             width="100%"
             height="100%" />
          <use
             id="use18643"
             y="146.72"
             x="357.96921"
             xlink:href="#textext-5c4ad461-2"
             width="100%"
             height="100%" />
          <use
             id="use18645"
             y="146.72"
             x="360.73682"
             xlink:href="#textext-5c4ad461-15"
             width="100%"
             height="100%" />
        </g>
        <g
           id="g18647"
           style="fill:#000000;fill-opacity:1">
          <use
             id="use18649"
             y="146.72"
             x="365.71613"
             xlink:href="#textext-5c4ad461-5"
             width="100%"
             height="100%" />
          <use
             id="use18651"
             y="146.72"
             x="370.14352"
             xlink:href="#textext-5c4ad461-14"
             width="100%"
             height="100%" />
          <use
             id="use18653"
             y="146.72"
             x="374.04587"
             xlink:href="#textext-5c4ad461-3"
             width="100%"
             height="100%" />
          <use
             id="use18655"
             y="146.72"
             x="377.97513"
             xlink:href="#textext-5c4ad461-2"
             width="100%"
             height="100%" />
          <use
             id="use18657"
             y="146.72"
             x="380.74274"
             xlink:href="#textext-5c4ad461-11"
             width="100%"
             height="100%" />
          <use
             id="use18659"
             y="146.72"
             x="386.27795"
             xlink:href="#textext-5c4ad461-7"
             width="100%"
             height="100%" />
          <use
             id="use18661"
             y="146.72"
             x="391.25925"
             xlink:href="#textext-5c4ad461-11"
             width="100%"
             height="100%" />
          <use
             id="use18663"
             y="146.72"
             x="396.79446"
             xlink:href="#textext-5c4ad461-5"
             width="100%"
             height="100%" />
          <use
             id="use18665"
             y="146.72"
             x="401.22186"
             xlink:href="#textext-5c4ad461-3"
             width="100%"
             height="100%" />
        </g>
        <g
           id="g18667"
           style="fill:#000000;fill-opacity:1">
          <use
             id="use18669"
             y="146.72"
             x="408.47861"
             xlink:href="#textext-5c4ad461-11"
             width="100%"
             height="100%" />
          <use
             id="use18671"
             y="146.72"
             x="414.01382"
             xlink:href="#textext-5c4ad461-5"
             width="100%"
             height="100%" />
        </g>
        <g
           id="g18673"
           style="fill:#000000;fill-opacity:1">
          <use
             id="use18675"
             y="146.72"
             x="421.75876"
             xlink:href="#textext-5c4ad461-16"
             width="100%"
             height="100%" />
          <use
             id="use18677"
             y="146.72"
             x="424.80331"
             xlink:href="#textext-5c4ad461-7"
             width="100%"
             height="100%" />
          <use
             id="use18679"
             y="146.72"
             x="429.78464"
             xlink:href="#textext-5c4ad461-3"
             width="100%"
             height="100%" />
          <use
             id="use18681"
             y="146.72"
             x="433.71387"
             xlink:href="#textext-5c4ad461-5"
             width="100%"
             height="100%" />
        </g>
      </g>
    </g>
  </g>
</svg>
